{"glyphs":{"0":{"ha":942,"x_min":64,"x_max":922,"o":"m 415 -17 q 158 81 253 -17 q 64 351 64 179 q 128 672 64 526 q 308 903 193 818 q 571 989 424 989 q 828 891 733 989 q 922 621 922 793 q 858 300 922 446 q 678 69 793 154 q 415 -17 563 -17 m 436 174 q 576 243 517 174 q 665 416 635 313 q 696 615 696 519 q 658 753 696 708 q 550 799 619 799 q 410 729 469 799 q 321 556 351 660 q 290 357 290 453 q 328 219 290 264 q 436 174 367 174 z "},"1":{"ha":544,"x_min":93,"x_max":549,"o":"m 549 972 l 354 0 l 129 0 l 288 792 l 93 792 l 129 972 l 549 972 z "},"2":{"ha":819,"x_min":-29,"x_max":817,"o":"m 335 183 l 743 183 l 707 0 l -29 0 l 0 146 l 443 493 q 555 603 524 558 q 586 696 586 647 q 549 774 586 744 q 443 803 513 803 q 331 776 385 803 q 236 701 276 750 l 85 811 q 249 941 144 893 q 476 989 353 989 q 655 956 578 989 q 774 863 732 922 q 817 728 817 803 q 767 558 817 638 q 593 383 717 479 l 335 183 z "},"3":{"ha":822,"x_min":-47,"x_max":847,"o":"m 819 826 l 547 572 q 704 485 649 549 q 760 326 760 421 q 702 150 760 228 q 542 28 644 72 q 308 -17 439 -17 q 108 13 201 -17 q -47 96 15 42 l 61 261 q 178 196 110 219 q 324 172 247 172 q 478 209 424 172 q 532 313 532 246 q 492 391 532 365 q 372 417 453 417 l 269 417 l 299 565 l 540 792 l 129 792 l 167 972 l 847 972 l 819 826 z "},"4":{"ha":957,"x_min":10,"x_max":949,"o":"m 911 204 l 751 204 l 711 0 l 492 0 l 533 204 l 10 204 l 39 356 l 611 972 l 857 972 l 324 388 l 579 388 l 615 569 l 825 569 l 789 388 l 949 388 l 911 204 z "},"5":{"ha":826,"x_min":-29,"x_max":850,"o":"m 408 792 l 356 607 l 414 607 q 685 538 593 607 q 778 340 778 468 q 721 152 778 233 q 562 27 664 71 q 328 -17 460 -17 q 127 13 219 -17 q -29 96 35 42 l 79 261 q 197 196 128 219 q 342 172 265 172 q 496 209 442 172 q 550 314 550 246 q 361 425 550 425 l 97 425 l 256 972 l 850 972 l 813 792 l 408 792 z "},"6":{"ha":885,"x_min":64,"x_max":919,"o":"m 535 610 q 690 576 618 610 q 803 480 761 543 q 846 329 846 417 q 796 147 846 225 q 657 26 746 68 q 457 -17 568 -17 q 251 29 340 -17 q 113 165 163 75 q 64 382 64 254 q 126 669 64 529 q 321 899 189 808 q 649 989 453 989 q 801 972 729 989 q 919 924 874 954 l 818 758 q 635 806 749 806 q 419 729 500 806 q 311 533 338 653 q 535 610 397 610 m 454 151 q 576 194 528 151 q 624 310 624 238 q 581 406 624 371 q 469 442 539 442 q 343 399 392 442 q 294 289 294 356 q 337 191 294 231 q 454 151 379 151 z "},"7":{"ha":861,"x_min":88,"x_max":935,"o":"m 935 972 l 906 826 l 386 0 l 136 0 l 635 789 l 319 789 l 288 631 l 88 631 l 156 972 l 935 972 z "},"8":{"ha":917,"x_min":31,"x_max":900,"o":"m 742 494 q 849 303 849 424 q 795 133 849 206 q 646 22 742 61 q 425 -17 550 -17 q 217 17 306 -17 q 79 113 128 50 q 31 257 31 175 q 82 422 31 353 q 229 529 133 492 q 150 692 150 592 q 199 849 150 782 q 337 953 249 917 q 538 989 425 989 q 726 958 644 989 q 854 869 808 926 q 900 736 900 813 q 859 592 900 653 q 742 494 818 531 m 533 824 q 417 788 461 824 q 374 690 374 753 q 412 611 374 640 q 517 582 450 582 q 633 617 589 582 q 676 713 676 653 q 638 794 676 764 q 533 824 599 824 m 429 149 q 569 190 517 149 q 621 301 621 231 q 575 394 621 360 q 449 428 529 428 q 309 388 361 428 q 257 278 257 347 q 304 183 257 218 q 429 149 351 149 z "},"9":{"ha":885,"x_min":11,"x_max":867,"o":"m 475 989 q 680 943 592 989 q 817 808 768 897 q 867 590 867 718 q 804 303 867 443 q 610 74 742 164 q 283 -17 478 -17 q 130 1 203 -17 q 11 49 57 18 l 114 214 q 296 167 183 167 q 513 243 432 167 q 621 440 594 319 q 403 363 538 363 q 243 396 315 363 q 128 492 171 429 q 85 643 85 556 q 135 826 85 747 q 275 947 186 904 q 475 989 364 989 m 461 531 q 589 574 540 531 q 638 683 638 617 q 594 781 638 742 q 478 821 551 821 q 356 778 403 821 q 308 663 308 735 q 350 566 308 601 q 461 531 392 531 z "},"\u0000":{"ha":0,"x_min":0,"x_max":0,"o":""},"\r":{"ha":393,"x_min":0,"x_max":0,"o":""}," ":{"ha":393,"x_min":0,"x_max":0,"o":""},"A":{"ha":1106,"x_min":32,"x_max":1040,"o":"m 650 989 q 936 897 832 989 q 1040 639 1040 804 q 1029 525 1040 579 l 924 0 l 699 0 l 744 233 l 301 233 l 254 0 l 32 0 l 143 554 q 315 879 185 769 q 650 989 444 989 m 781 414 l 806 540 q 814 622 814 585 q 766 753 814 708 q 628 797 718 797 q 454 738 519 797 q 364 550 389 679 l 336 414 l 781 414 z "},"Á":{"ha":1106,"x_min":32,"x_max":1040,"o":"m 650 989 q 936 897 832 989 q 1040 639 1040 804 q 1029 525 1040 579 l 924 0 l 699 0 l 744 233 l 301 233 l 254 0 l 32 0 l 143 554 q 315 879 185 769 q 650 989 444 989 m 781 414 l 806 540 q 814 622 814 585 q 766 753 814 708 q 628 797 718 797 q 454 738 519 797 q 364 550 389 679 l 336 414 l 781 414 m 764 1251 l 1003 1251 l 731 1051 l 556 1051 l 764 1251 z "},"Ă":{"ha":1106,"x_min":32,"x_max":1040,"o":"m 650 989 q 936 897 832 989 q 1040 639 1040 804 q 1029 525 1040 579 l 924 0 l 699 0 l 744 233 l 301 233 l 254 0 l 32 0 l 143 554 q 315 879 185 769 q 650 989 444 989 m 781 414 l 806 540 q 814 622 814 585 q 766 753 814 708 q 628 797 718 797 q 454 738 519 797 q 364 550 389 679 l 336 414 l 781 414 m 697 1040 q 532 1092 597 1040 q 467 1231 467 1144 q 468 1251 467 1244 l 600 1251 q 628 1180 599 1207 q 710 1153 658 1153 q 796 1180 761 1153 q 839 1251 831 1207 l 979 1251 q 885 1097 961 1154 q 697 1040 808 1040 z "},"Ắ":{"ha":1106,"x_min":32,"x_max":1040,"o":"m 650 989 q 936 897 832 989 q 1040 639 1040 804 q 1029 525 1040 579 l 924 0 l 699 0 l 744 233 l 301 233 l 254 0 l 32 0 l 143 554 q 315 879 185 769 q 650 989 444 989 m 781 414 l 806 540 q 814 622 814 585 q 766 753 814 708 q 628 797 718 797 q 454 738 519 797 q 364 550 389 679 l 336 414 l 781 414 m 700 1040 q 524 1086 590 1040 q 460 1210 458 1132 l 586 1210 q 622 1161 589 1179 q 707 1143 654 1143 q 794 1160 761 1143 q 838 1210 828 1178 l 972 1210 q 881 1086 956 1132 q 700 1040 807 1040 m 772 1419 l 999 1419 l 763 1251 l 600 1251 l 772 1419 z "},"Ặ":{"ha":1106,"x_min":32,"x_max":1040,"o":"m 650 989 q 936 897 832 989 q 1040 639 1040 804 q 1029 525 1040 579 l 924 0 l 699 0 l 744 233 l 301 233 l 254 0 l 32 0 l 143 554 q 315 879 185 769 q 650 989 444 989 m 781 414 l 806 540 q 814 622 814 585 q 766 753 814 708 q 628 797 718 797 q 454 738 519 797 q 364 550 389 679 l 336 414 l 781 414 m 429 -292 q 365 -268 389 -292 q 340 -206 340 -244 q 372 -132 340 -162 q 446 -101 404 -101 q 509 -125 483 -101 q 535 -185 535 -149 q 505 -262 535 -233 q 429 -292 475 -292 m 697 1040 q 532 1092 597 1040 q 467 1231 467 1144 q 468 1251 467 1244 l 600 1251 q 628 1180 599 1207 q 710 1153 658 1153 q 796 1180 761 1153 q 839 1251 831 1207 l 979 1251 q 885 1097 961 1154 q 697 1040 808 1040 z "},"Ằ":{"ha":1106,"x_min":32,"x_max":1040,"o":"m 650 989 q 936 897 832 989 q 1040 639 1040 804 q 1029 525 1040 579 l 924 0 l 699 0 l 744 233 l 301 233 l 254 0 l 32 0 l 143 554 q 315 879 185 769 q 650 989 444 989 m 781 414 l 806 540 q 814 622 814 585 q 766 753 814 708 q 628 797 718 797 q 454 738 519 797 q 364 550 389 679 l 336 414 l 781 414 m 700 1040 q 524 1086 590 1040 q 460 1210 458 1132 l 586 1210 q 622 1161 589 1179 q 707 1143 654 1143 q 794 1160 761 1143 q 838 1210 828 1178 l 972 1210 q 881 1086 956 1132 q 700 1040 807 1040 m 501 1419 l 724 1419 l 843 1251 l 686 1251 l 501 1419 z "},"Ẳ":{"ha":1106,"x_min":32,"x_max":1040,"o":"m 650 989 q 936 897 832 989 q 1040 639 1040 804 q 1029 525 1040 579 l 924 0 l 699 0 l 744 233 l 301 233 l 254 0 l 32 0 l 143 554 q 315 879 185 769 q 650 989 444 989 m 781 414 l 806 540 q 814 622 814 585 q 766 753 814 708 q 628 797 718 797 q 454 738 519 797 q 364 550 389 679 l 336 414 l 781 414 m 700 1040 q 524 1086 590 1040 q 460 1210 458 1132 l 586 1210 q 622 1161 589 1179 q 707 1143 654 1143 q 794 1160 761 1143 q 838 1210 828 1178 l 972 1210 q 881 1086 956 1132 q 700 1040 807 1040 m 678 1264 q 738 1329 738 1290 q 727 1353 738 1344 q 697 1363 717 1363 q 632 1346 665 1363 l 606 1414 q 722 1443 660 1443 q 807 1417 775 1443 q 839 1347 839 1390 q 808 1267 839 1301 q 725 1213 776 1232 l 678 1264 z "},"Ẵ":{"ha":1106,"x_min":32,"x_max":1040,"o":"m 650 989 q 936 897 832 989 q 1040 639 1040 804 q 1029 525 1040 579 l 924 0 l 699 0 l 744 233 l 301 233 l 254 0 l 32 0 l 143 554 q 315 879 185 769 q 650 989 444 989 m 781 414 l 806 540 q 814 622 814 585 q 766 753 814 708 q 628 797 718 797 q 454 738 519 797 q 364 550 389 679 l 336 414 l 781 414 m 700 1040 q 524 1086 590 1040 q 460 1210 458 1132 l 586 1210 q 622 1161 589 1179 q 707 1143 654 1143 q 794 1160 761 1143 q 838 1210 828 1178 l 972 1210 q 881 1086 956 1132 q 700 1040 807 1040 m 832 1249 q 769 1260 796 1249 q 711 1293 742 1272 q 650 1321 674 1321 q 604 1303 622 1321 q 581 1257 586 1286 l 468 1257 q 528 1385 481 1340 q 650 1431 576 1431 q 713 1419 686 1431 q 769 1386 740 1407 q 804 1365 790 1372 q 833 1358 818 1358 q 880 1376 861 1358 q 906 1421 899 1393 l 1014 1421 q 954 1294 1001 1340 q 832 1249 907 1249 z "},"Ǎ":{"ha":1106,"x_min":32,"x_max":1040,"o":"m 650 989 q 936 897 832 989 q 1040 639 1040 804 q 1029 525 1040 579 l 924 0 l 699 0 l 744 233 l 301 233 l 254 0 l 32 0 l 143 554 q 315 879 185 769 q 650 989 444 989 m 781 414 l 806 540 q 814 622 814 585 q 766 753 814 708 q 628 797 718 797 q 454 738 519 797 q 364 550 389 679 l 336 414 l 781 414 m 994 1251 l 785 1051 l 593 1051 l 438 1251 l 592 1251 l 699 1147 l 833 1251 l 994 1251 z "},"Â":{"ha":1106,"x_min":32,"x_max":1040,"o":"m 650 989 q 936 897 832 989 q 1040 639 1040 804 q 1029 525 1040 579 l 924 0 l 699 0 l 744 233 l 301 233 l 254 0 l 32 0 l 143 554 q 315 879 185 769 q 650 989 444 989 m 781 414 l 806 540 q 814 622 814 585 q 766 753 814 708 q 628 797 718 797 q 454 738 519 797 q 364 550 389 679 l 336 414 l 781 414 m 810 1051 l 703 1156 l 568 1051 l 406 1051 l 617 1251 l 807 1251 l 964 1051 l 810 1051 z "},"Ấ":{"ha":1106,"x_min":32,"x_max":1246,"o":"m 650 989 q 936 897 832 989 q 1040 639 1040 804 q 1029 525 1040 579 l 924 0 l 699 0 l 744 233 l 301 233 l 254 0 l 32 0 l 143 554 q 315 879 185 769 q 650 989 444 989 m 781 414 l 806 540 q 814 622 814 585 q 766 753 814 708 q 628 797 718 797 q 454 738 519 797 q 364 550 389 679 l 336 414 l 781 414 m 807 1051 l 700 1131 l 568 1051 l 406 1051 l 614 1210 l 801 1210 l 964 1051 l 807 1051 m 1019 1353 l 1246 1353 l 1010 1185 l 847 1185 l 1019 1353 z "},"Ậ":{"ha":1106,"x_min":32,"x_max":1040,"o":"m 650 989 q 936 897 832 989 q 1040 639 1040 804 q 1029 525 1040 579 l 924 0 l 699 0 l 744 233 l 301 233 l 254 0 l 32 0 l 143 554 q 315 879 185 769 q 650 989 444 989 m 781 414 l 806 540 q 814 622 814 585 q 766 753 814 708 q 628 797 718 797 q 454 738 519 797 q 364 550 389 679 l 336 414 l 781 414 m 429 -292 q 365 -268 389 -292 q 340 -206 340 -244 q 372 -132 340 -162 q 446 -101 404 -101 q 509 -125 483 -101 q 535 -185 535 -149 q 505 -262 535 -233 q 429 -292 475 -292 m 810 1051 l 703 1156 l 568 1051 l 406 1051 l 617 1251 l 807 1251 l 964 1051 l 810 1051 z "},"Ầ":{"ha":1106,"x_min":32,"x_max":1090,"o":"m 650 989 q 936 897 832 989 q 1040 639 1040 804 q 1029 525 1040 579 l 924 0 l 699 0 l 744 233 l 301 233 l 254 0 l 32 0 l 143 554 q 315 879 185 769 q 650 989 444 989 m 781 414 l 806 540 q 814 622 814 585 q 766 753 814 708 q 628 797 718 797 q 454 738 519 797 q 364 550 389 679 l 336 414 l 781 414 m 807 1051 l 700 1131 l 568 1051 l 406 1051 l 614 1210 l 801 1210 l 964 1051 l 807 1051 m 749 1353 l 971 1353 l 1090 1185 l 933 1185 l 749 1353 z "},"Ẩ":{"ha":1106,"x_min":32,"x_max":1051,"o":"m 650 989 q 936 897 832 989 q 1040 639 1040 804 q 1029 525 1040 579 l 924 0 l 699 0 l 744 233 l 301 233 l 254 0 l 32 0 l 143 554 q 315 879 185 769 q 650 989 444 989 m 781 414 l 806 540 q 814 622 814 585 q 766 753 814 708 q 628 797 718 797 q 454 738 519 797 q 364 550 389 679 l 336 414 l 781 414 m 807 1051 l 700 1131 l 568 1051 l 406 1051 l 614 1210 l 801 1210 l 964 1051 l 807 1051 m 890 1210 q 950 1275 950 1236 q 940 1299 950 1290 q 910 1308 929 1308 q 844 1292 878 1308 l 818 1360 q 935 1389 872 1389 q 1019 1363 988 1389 q 1051 1293 1051 1336 q 1020 1213 1051 1247 q 938 1158 989 1178 l 890 1210 z "},"Ẫ":{"ha":1106,"x_min":32,"x_max":1040,"o":"m 650 989 q 936 897 832 989 q 1040 639 1040 804 q 1029 525 1040 579 l 924 0 l 699 0 l 744 233 l 301 233 l 254 0 l 32 0 l 143 554 q 315 879 185 769 q 650 989 444 989 m 781 414 l 806 540 q 814 622 814 585 q 766 753 814 708 q 628 797 718 797 q 454 738 519 797 q 364 550 389 679 l 336 414 l 781 414 m 807 1051 l 700 1131 l 568 1051 l 406 1051 l 614 1210 l 801 1210 l 964 1051 l 807 1051 m 833 1258 q 770 1270 797 1258 q 713 1303 743 1282 q 651 1331 675 1331 q 606 1313 624 1331 q 582 1267 588 1296 l 469 1267 q 530 1395 482 1350 q 651 1440 578 1440 q 715 1428 688 1440 q 771 1396 742 1417 q 806 1375 792 1382 q 835 1368 819 1368 q 881 1385 863 1368 q 907 1431 900 1403 l 1015 1431 q 956 1304 1003 1350 q 833 1258 908 1258 z "},"Ȁ":{"ha":1106,"x_min":32,"x_max":1040,"o":"m 650 989 q 936 897 832 989 q 1040 639 1040 804 q 1029 525 1040 579 l 924 0 l 699 0 l 744 233 l 301 233 l 254 0 l 32 0 l 143 554 q 315 879 185 769 q 650 989 444 989 m 781 414 l 806 540 q 814 622 814 585 q 766 753 814 708 q 628 797 718 797 q 454 738 519 797 q 364 550 389 679 l 336 414 l 781 414 m 364 1251 l 558 1251 l 619 1051 l 469 1051 l 364 1251 m 644 1251 l 839 1251 l 900 1051 l 750 1051 l 644 1251 z "},"Ä":{"ha":1106,"x_min":32,"x_max":1040,"o":"m 650 989 q 936 897 832 989 q 1040 639 1040 804 q 1029 525 1040 579 l 924 0 l 699 0 l 744 233 l 301 233 l 254 0 l 32 0 l 143 554 q 315 879 185 769 q 650 989 444 989 m 781 414 l 806 540 q 814 622 814 585 q 766 753 814 708 q 628 797 718 797 q 454 738 519 797 q 364 550 389 679 l 336 414 l 781 414 m 557 1058 q 492 1082 518 1058 q 467 1144 467 1106 q 497 1220 467 1190 q 569 1250 528 1250 q 635 1226 608 1250 q 661 1164 661 1203 q 630 1088 661 1118 q 557 1058 599 1058 m 839 1058 q 774 1082 800 1058 q 749 1144 749 1106 q 778 1221 749 1192 q 851 1250 808 1250 q 916 1226 890 1250 q 942 1164 942 1203 q 911 1088 942 1118 q 839 1058 881 1058 z "},"Ạ":{"ha":1106,"x_min":32,"x_max":1040,"o":"m 650 989 q 936 897 832 989 q 1040 639 1040 804 q 1029 525 1040 579 l 924 0 l 699 0 l 744 233 l 301 233 l 254 0 l 32 0 l 143 554 q 315 879 185 769 q 650 989 444 989 m 781 414 l 806 540 q 814 622 814 585 q 766 753 814 708 q 628 797 718 797 q 454 738 519 797 q 364 550 389 679 l 336 414 l 781 414 m 429 -292 q 365 -268 389 -292 q 340 -206 340 -244 q 372 -132 340 -162 q 446 -101 404 -101 q 509 -125 483 -101 q 535 -185 535 -149 q 505 -262 535 -233 q 429 -292 475 -292 z "},"À":{"ha":1106,"x_min":32,"x_max":1040,"o":"m 650 989 q 936 897 832 989 q 1040 639 1040 804 q 1029 525 1040 579 l 924 0 l 699 0 l 744 233 l 301 233 l 254 0 l 32 0 l 143 554 q 315 879 185 769 q 650 989 444 989 m 781 414 l 806 540 q 814 622 814 585 q 766 753 814 708 q 628 797 718 797 q 454 738 519 797 q 364 550 389 679 l 336 414 l 781 414 m 431 1251 l 663 1251 l 810 1051 l 642 1051 l 431 1251 z "},"Ả":{"ha":1106,"x_min":32,"x_max":1040,"o":"m 650 989 q 936 897 832 989 q 1040 639 1040 804 q 1029 525 1040 579 l 924 0 l 699 0 l 744 233 l 301 233 l 254 0 l 32 0 l 143 554 q 315 879 185 769 q 650 989 444 989 m 781 414 l 806 540 q 814 622 814 585 q 766 753 814 708 q 628 797 718 797 q 454 738 519 797 q 364 550 389 679 l 336 414 l 781 414 m 675 1110 q 758 1203 758 1144 q 742 1240 758 1226 q 700 1254 726 1254 q 617 1226 658 1254 l 579 1315 q 736 1361 643 1361 q 846 1326 806 1361 q 886 1232 886 1292 q 732 1036 886 1104 l 675 1110 z "},"Ȃ":{"ha":1106,"x_min":32,"x_max":1040,"o":"m 650 989 q 936 897 832 989 q 1040 639 1040 804 q 1029 525 1040 579 l 924 0 l 699 0 l 744 233 l 301 233 l 254 0 l 32 0 l 143 554 q 315 879 185 769 q 650 989 444 989 m 781 414 l 806 540 q 814 622 814 585 q 766 753 814 708 q 628 797 718 797 q 454 738 519 797 q 364 550 389 679 l 336 414 l 781 414 m 428 1051 q 523 1206 446 1149 q 711 1264 600 1264 q 883 1206 818 1264 q 940 1051 949 1147 l 807 1051 q 780 1124 810 1097 q 699 1151 750 1151 q 613 1124 647 1151 q 568 1051 578 1097 l 428 1051 z "},"Ā":{"ha":1106,"x_min":32,"x_max":1040,"o":"m 650 989 q 936 897 832 989 q 1040 639 1040 804 q 1029 525 1040 579 l 924 0 l 699 0 l 744 233 l 301 233 l 254 0 l 32 0 l 143 554 q 315 879 185 769 q 650 989 444 989 m 781 414 l 806 540 q 814 622 814 585 q 766 753 814 708 q 628 797 718 797 q 454 738 519 797 q 364 550 389 679 l 336 414 l 781 414 m 460 1213 l 972 1213 l 949 1090 l 436 1090 l 460 1213 z "},"Ą":{"ha":1106,"x_min":32,"x_max":1040,"o":"m 650 989 q 936 897 832 989 q 1040 639 1040 804 q 1029 525 1040 579 l 924 0 l 699 0 l 744 233 l 301 233 l 254 0 l 32 0 l 143 554 q 315 879 185 769 q 650 989 444 989 m 781 414 l 806 540 q 814 622 814 585 q 766 753 814 708 q 628 797 718 797 q 454 738 519 797 q 364 550 389 679 l 336 414 l 781 414 m 763 -322 q 636 -285 683 -322 q 589 -185 589 -249 q 656 -44 589 -106 q 844 60 722 17 l 924 0 q 732 -154 732 -68 q 750 -197 732 -182 q 799 -212 768 -212 q 888 -192 846 -212 l 903 -290 q 763 -322 836 -322 z "},"Å":{"ha":1106,"x_min":32,"x_max":1040,"o":"m 650 989 q 936 897 832 989 q 1040 639 1040 804 q 1029 525 1040 579 l 924 0 l 699 0 l 744 233 l 301 233 l 254 0 l 32 0 l 143 554 q 315 879 185 769 q 650 989 444 989 m 781 414 l 806 540 q 814 622 814 585 q 766 753 814 708 q 628 797 718 797 q 454 738 519 797 q 364 550 389 679 l 336 414 l 781 414 m 717 1047 q 594 1096 644 1047 q 544 1215 544 1144 q 594 1334 544 1285 q 717 1383 644 1383 q 840 1335 790 1383 q 890 1215 890 1286 q 840 1096 890 1144 q 717 1047 790 1047 m 717 1131 q 777 1155 753 1131 q 801 1215 801 1179 q 777 1276 801 1251 q 717 1300 753 1300 q 658 1276 682 1300 q 633 1215 633 1251 q 657 1155 633 1179 q 717 1131 681 1131 z "},"Ǻ":{"ha":1106,"x_min":32,"x_max":1040,"o":"m 650 989 q 936 897 832 989 q 1040 639 1040 804 q 1029 525 1040 579 l 924 0 l 699 0 l 744 233 l 301 233 l 254 0 l 32 0 l 143 554 q 315 879 185 769 q 650 989 444 989 m 781 414 l 806 540 q 814 622 814 585 q 766 753 814 708 q 628 797 718 797 q 454 738 519 797 q 364 550 389 679 l 336 414 l 781 414 m 867 1303 q 890 1215 890 1263 q 840 1096 890 1144 q 717 1047 790 1047 q 594 1096 644 1047 q 544 1215 544 1144 q 594 1334 544 1285 q 717 1383 644 1383 q 789 1368 754 1383 l 910 1494 l 1017 1411 l 867 1303 m 717 1131 q 777 1155 753 1131 q 801 1215 801 1179 q 777 1276 801 1251 q 717 1300 753 1300 q 658 1276 682 1300 q 633 1215 633 1251 q 657 1155 633 1179 q 717 1131 681 1131 z "},"Ã":{"ha":1106,"x_min":32,"x_max":1040,"o":"m 650 989 q 936 897 832 989 q 1040 639 1040 804 q 1029 525 1040 579 l 924 0 l 699 0 l 744 233 l 301 233 l 254 0 l 32 0 l 143 554 q 315 879 185 769 q 650 989 444 989 m 781 414 l 806 540 q 814 622 814 585 q 766 753 814 708 q 628 797 718 797 q 454 738 519 797 q 364 550 389 679 l 336 414 l 781 414 m 801 1047 q 737 1061 764 1047 q 678 1100 710 1075 q 638 1127 651 1119 q 607 1135 624 1135 q 560 1114 579 1135 q 533 1057 540 1093 l 424 1057 q 488 1208 439 1156 q 608 1260 536 1260 q 672 1246 644 1260 q 731 1207 699 1232 q 770 1179 756 1188 q 801 1171 785 1171 q 849 1191 831 1171 q 875 1246 868 1211 l 985 1246 q 922 1099 969 1151 q 801 1047 874 1047 z "},"Æ":{"ha":1517,"x_min":22,"x_max":1558,"o":"m 1010 793 l 967 579 l 1421 579 l 1386 408 l 933 408 l 886 179 l 1418 179 l 1382 0 l 629 0 l 678 246 l 297 246 l 249 0 l 22 0 l 131 543 q 305 863 174 754 q 647 972 436 972 l 1558 972 l 1522 793 l 1010 793 m 714 424 l 785 781 l 643 781 q 451 715 525 781 q 353 521 378 649 l 333 424 l 714 424 z "},"Ǽ":{"ha":1517,"x_min":22,"x_max":1558,"o":"m 1010 793 l 967 579 l 1421 579 l 1386 408 l 933 408 l 886 179 l 1418 179 l 1382 0 l 629 0 l 678 246 l 297 246 l 249 0 l 22 0 l 131 543 q 305 863 174 754 q 647 972 436 972 l 1558 972 l 1522 793 l 1010 793 m 714 424 l 785 781 l 643 781 q 451 715 525 781 q 353 521 378 649 l 333 424 l 714 424 m 964 1251 l 1203 1251 l 931 1051 l 756 1051 l 964 1251 z "},"B":{"ha":1063,"x_min":40,"x_max":1031,"o":"m 857 501 q 953 427 919 476 q 988 307 988 378 q 868 78 988 156 q 550 0 749 0 l 40 0 l 235 972 l 704 972 q 946 915 861 972 q 1031 750 1031 857 q 984 598 1031 661 q 857 501 938 535 m 424 803 l 378 574 l 607 574 q 745 609 696 574 q 794 711 794 644 q 651 803 794 803 l 424 803 m 564 169 q 711 206 658 169 q 764 310 764 242 q 618 410 764 410 l 346 410 l 299 169 l 564 169 z "},"C":{"ha":1018,"x_min":71,"x_max":1057,"o":"m 551 -17 q 297 36 406 -17 q 129 185 188 89 q 71 406 71 281 q 147 703 71 571 q 360 913 222 836 q 675 989 497 989 q 906 944 806 989 q 1057 817 1006 900 l 894 683 q 660 797 817 797 q 471 747 553 797 q 344 611 389 697 q 299 419 299 525 q 370 241 299 307 q 571 175 442 175 q 829 288 725 175 l 963 151 q 551 -17 818 -17 z "},"Ć":{"ha":1018,"x_min":71,"x_max":1057,"o":"m 551 -17 q 297 36 406 -17 q 129 185 188 89 q 71 406 71 281 q 147 703 71 571 q 360 913 222 836 q 675 989 497 989 q 906 944 806 989 q 1057 817 1006 900 l 894 683 q 660 797 817 797 q 471 747 553 797 q 344 611 389 697 q 299 419 299 525 q 370 241 299 307 q 571 175 442 175 q 829 288 725 175 l 963 151 q 551 -17 818 -17 m 789 1251 l 1028 1251 l 756 1051 l 581 1051 l 789 1251 z "},"Č":{"ha":1018,"x_min":71,"x_max":1057,"o":"m 551 -17 q 297 36 406 -17 q 129 185 188 89 q 71 406 71 281 q 147 703 71 571 q 360 913 222 836 q 675 989 497 989 q 906 944 806 989 q 1057 817 1006 900 l 894 683 q 660 797 817 797 q 471 747 553 797 q 344 611 389 697 q 299 419 299 525 q 370 241 299 307 q 571 175 442 175 q 829 288 725 175 l 963 151 q 551 -17 818 -17 m 1019 1251 l 810 1051 l 618 1051 l 463 1251 l 617 1251 l 724 1147 l 858 1251 l 1019 1251 z "},"Ç":{"ha":1018,"x_min":71,"x_max":1057,"o":"m 551 -17 q 297 36 406 -17 q 129 185 188 89 q 71 406 71 281 q 147 703 71 571 q 360 913 222 836 q 675 989 497 989 q 906 944 806 989 q 1057 817 1006 900 l 894 683 q 660 797 817 797 q 471 747 553 797 q 344 611 389 697 q 299 419 299 525 q 370 241 299 307 q 571 175 442 175 q 829 288 725 175 l 963 151 q 551 -17 818 -17 m 392 -322 q 261 -293 315 -322 l 308 -200 q 401 -221 350 -221 q 458 -208 439 -221 q 478 -175 476 -196 q 418 -136 482 -136 l 369 -136 l 436 11 l 551 11 l 517 -69 q 588 -102 563 -75 q 614 -165 614 -129 q 553 -281 614 -239 q 392 -322 493 -322 z "},"Ḉ":{"ha":1018,"x_min":71,"x_max":1057,"o":"m 551 -17 q 297 36 406 -17 q 129 185 188 89 q 71 406 71 281 q 147 703 71 571 q 360 913 222 836 q 675 989 497 989 q 906 944 806 989 q 1057 817 1006 900 l 894 683 q 660 797 817 797 q 471 747 553 797 q 344 611 389 697 q 299 419 299 525 q 370 241 299 307 q 571 175 442 175 q 829 288 725 175 l 963 151 q 551 -17 818 -17 m 392 -322 q 261 -293 315 -322 l 308 -200 q 401 -221 350 -221 q 458 -208 439 -221 q 478 -175 476 -196 q 418 -136 482 -136 l 369 -136 l 436 11 l 551 11 l 517 -69 q 588 -102 563 -75 q 614 -165 614 -129 q 553 -281 614 -239 q 392 -322 493 -322 m 789 1251 l 1028 1251 l 756 1051 l 581 1051 l 789 1251 z "},"Ĉ":{"ha":1018,"x_min":71,"x_max":1057,"o":"m 551 -17 q 297 36 406 -17 q 129 185 188 89 q 71 406 71 281 q 147 703 71 571 q 360 913 222 836 q 675 989 497 989 q 906 944 806 989 q 1057 817 1006 900 l 894 683 q 660 797 817 797 q 471 747 553 797 q 344 611 389 697 q 299 419 299 525 q 370 241 299 307 q 571 175 442 175 q 829 288 725 175 l 963 151 q 551 -17 818 -17 m 835 1051 l 728 1156 l 593 1051 l 431 1051 l 642 1251 l 832 1251 l 989 1051 l 835 1051 z "},"Ċ":{"ha":1018,"x_min":71,"x_max":1057,"o":"m 551 -17 q 297 36 406 -17 q 129 185 188 89 q 71 406 71 281 q 147 703 71 571 q 360 913 222 836 q 675 989 497 989 q 906 944 806 989 q 1057 817 1006 900 l 894 683 q 660 797 817 797 q 471 747 553 797 q 344 611 389 697 q 299 419 299 525 q 370 241 299 307 q 571 175 442 175 q 829 288 725 175 l 963 151 q 551 -17 818 -17 m 726 1058 q 647 1088 678 1058 q 617 1161 617 1117 q 653 1256 617 1219 q 743 1293 689 1293 q 822 1264 792 1293 q 851 1189 851 1235 q 815 1095 851 1132 q 726 1058 779 1058 z "},"D":{"ha":1147,"x_min":40,"x_max":1121,"o":"m 235 972 l 642 972 q 898 923 790 972 q 1063 782 1006 874 q 1121 567 1121 690 q 1044 269 1121 397 q 831 70 968 140 q 515 0 694 0 l 40 0 l 235 972 m 522 185 q 720 233 636 185 q 849 365 804 281 q 893 554 893 449 q 822 726 893 664 q 617 788 751 788 l 424 788 l 303 185 l 522 185 z "},"Ǆ":{"ha":2013,"x_min":40,"x_max":2089,"o":"m 235 972 l 642 972 q 898 923 790 972 q 1063 782 1006 874 q 1121 567 1121 690 q 1044 269 1121 397 q 831 70 968 140 q 515 0 694 0 l 40 0 l 235 972 m 522 185 q 720 233 636 185 q 849 365 804 281 q 893 554 893 449 q 822 726 893 664 q 617 788 751 788 l 424 788 l 303 185 l 522 185 m 2061 836 l 1796 575 l 1931 575 l 1897 408 l 1628 408 l 1397 181 l 1950 181 l 1913 0 l 1063 0 l 1090 138 l 1368 411 l 1224 411 l 1257 579 l 1539 579 l 1756 792 l 1236 792 l 1272 972 l 2089 972 l 2061 836 m 2008 1251 l 1799 1051 l 1607 1051 l 1451 1251 l 1606 1251 l 1713 1147 l 1847 1251 l 2008 1251 z "},"Ð":{"ha":1165,"x_min":10,"x_max":1139,"o":"m 253 972 l 660 972 q 916 923 808 972 q 1081 782 1024 874 q 1139 567 1139 690 q 1063 269 1139 397 q 849 70 986 140 q 533 0 713 0 l 58 0 l 253 972 m 540 185 q 738 233 654 185 q 867 365 822 281 q 911 554 911 449 q 840 726 911 664 q 635 788 769 788 l 442 788 l 321 185 l 540 185 m 40 569 l 640 569 l 611 419 l 10 419 l 40 569 z "},"Ď":{"ha":1147,"x_min":40,"x_max":1121,"o":"m 235 972 l 642 972 q 898 923 790 972 q 1063 782 1006 874 q 1121 567 1121 690 q 1044 269 1121 397 q 831 70 968 140 q 515 0 694 0 l 40 0 l 235 972 m 522 185 q 720 233 636 185 q 849 365 804 281 q 893 554 893 449 q 822 726 893 664 q 617 788 751 788 l 424 788 l 303 185 l 522 185 m 956 1250 l 746 1050 l 554 1050 l 399 1250 l 553 1250 l 660 1146 l 794 1250 l 956 1250 z "},"Đ":{"ha":1165,"x_min":10,"x_max":1139,"o":"m 253 972 l 660 972 q 916 923 808 972 q 1081 782 1024 874 q 1139 567 1139 690 q 1063 269 1139 397 q 849 70 986 140 q 533 0 713 0 l 58 0 l 253 972 m 540 185 q 738 233 654 185 q 867 365 822 281 q 911 554 911 449 q 840 726 911 664 q 635 788 769 788 l 442 788 l 321 185 l 540 185 m 40 569 l 640 569 l 611 419 l 10 419 l 40 569 z "},"Ḍ":{"ha":1147,"x_min":40,"x_max":1121,"o":"m 235 972 l 642 972 q 898 923 790 972 q 1063 782 1006 874 q 1121 567 1121 690 q 1044 269 1121 397 q 831 70 968 140 q 515 0 694 0 l 40 0 l 235 972 m 522 185 q 720 233 636 185 q 849 365 804 281 q 893 554 893 449 q 822 726 893 664 q 617 788 751 788 l 424 788 l 303 185 l 522 185 m 392 -292 q 327 -268 351 -292 q 303 -206 303 -244 q 335 -132 303 -162 q 408 -101 367 -101 q 472 -125 446 -101 q 497 -185 497 -149 q 467 -262 497 -233 q 392 -292 438 -292 z "},"Ḏ":{"ha":1147,"x_min":40,"x_max":1121,"o":"m 235 972 l 642 972 q 898 923 790 972 q 1063 782 1006 874 q 1121 567 1121 690 q 1044 269 1121 397 q 831 70 968 140 q 515 0 694 0 l 40 0 l 235 972 m 522 185 q 720 233 636 185 q 849 365 804 281 q 893 554 893 449 q 822 726 893 664 q 617 788 751 788 l 424 788 l 303 185 l 522 185 m 156 -132 l 669 -132 l 647 -253 l 133 -253 l 156 -132 z "},"ǅ":{"ha":1915,"x_min":40,"x_max":1936,"o":"m 235 972 l 642 972 q 898 923 790 972 q 1063 782 1006 874 q 1121 567 1121 690 q 1044 269 1121 397 q 831 70 968 140 q 515 0 694 0 l 40 0 l 235 972 m 522 185 q 720 233 636 185 q 849 365 804 281 q 893 554 893 449 q 822 726 893 664 q 617 788 751 788 l 424 788 l 303 185 l 522 185 m 1906 617 l 1733 449 l 1838 449 l 1810 304 l 1585 304 l 1443 167 l 1828 167 l 1794 0 l 1128 0 l 1154 131 l 1333 306 l 1239 306 l 1268 450 l 1482 450 l 1617 581 l 1256 581 l 1289 747 l 1931 747 l 1906 617 m 1936 1043 l 1726 843 l 1535 843 l 1379 1043 l 1533 1043 l 1640 939 l 1775 1043 l 1936 1043 z "},"E":{"ha":926,"x_min":32,"x_max":972,"o":"m 618 807 q 447 769 507 807 q 386 669 386 732 q 419 603 386 626 q 519 581 453 581 l 779 581 l 743 403 l 451 403 q 314 370 365 403 q 263 279 263 338 q 482 165 263 165 q 660 188 575 165 q 806 250 746 211 l 864 82 q 678 10 789 36 q 450 -17 568 -17 q 144 53 256 -17 q 32 249 32 124 q 88 410 32 342 q 240 510 144 479 q 181 576 201 536 q 160 665 160 615 q 218 836 160 763 q 384 949 276 910 q 633 989 492 989 q 824 970 736 989 q 972 917 911 951 l 899 747 q 618 807 779 807 z "},"É":{"ha":926,"x_min":32,"x_max":972,"o":"m 618 807 q 447 769 507 807 q 386 669 386 732 q 419 603 386 626 q 519 581 453 581 l 779 581 l 743 403 l 451 403 q 314 370 365 403 q 263 279 263 338 q 482 165 263 165 q 660 188 575 165 q 806 250 746 211 l 864 82 q 678 10 789 36 q 450 -17 568 -17 q 144 53 256 -17 q 32 249 32 124 q 88 410 32 342 q 240 510 144 479 q 181 576 201 536 q 160 665 160 615 q 218 836 160 763 q 384 949 276 910 q 633 989 492 989 q 824 970 736 989 q 972 917 911 951 l 899 747 q 618 807 779 807 m 718 1251 l 957 1251 l 685 1051 l 510 1051 l 718 1251 z "},"Ĕ":{"ha":926,"x_min":32,"x_max":972,"o":"m 618 807 q 447 769 507 807 q 386 669 386 732 q 419 603 386 626 q 519 581 453 581 l 779 581 l 743 403 l 451 403 q 314 370 365 403 q 263 279 263 338 q 482 165 263 165 q 660 188 575 165 q 806 250 746 211 l 864 82 q 678 10 789 36 q 450 -17 568 -17 q 144 53 256 -17 q 32 249 32 124 q 88 410 32 342 q 240 510 144 479 q 181 576 201 536 q 160 665 160 615 q 218 836 160 763 q 384 949 276 910 q 633 989 492 989 q 824 970 736 989 q 972 917 911 951 l 899 747 q 618 807 779 807 m 651 1040 q 486 1092 551 1040 q 421 1231 421 1144 q 422 1251 421 1244 l 554 1251 q 583 1180 553 1207 q 664 1153 613 1153 q 750 1180 715 1153 q 793 1251 785 1207 l 933 1251 q 839 1097 915 1154 q 651 1040 763 1040 z "},"Ě":{"ha":926,"x_min":32,"x_max":972,"o":"m 618 807 q 447 769 507 807 q 386 669 386 732 q 419 603 386 626 q 519 581 453 581 l 779 581 l 743 403 l 451 403 q 314 370 365 403 q 263 279 263 338 q 482 165 263 165 q 660 188 575 165 q 806 250 746 211 l 864 82 q 678 10 789 36 q 450 -17 568 -17 q 144 53 256 -17 q 32 249 32 124 q 88 410 32 342 q 240 510 144 479 q 181 576 201 536 q 160 665 160 615 q 218 836 160 763 q 384 949 276 910 q 633 989 492 989 q 824 970 736 989 q 972 917 911 951 l 899 747 q 618 807 779 807 m 949 1251 l 739 1051 l 547 1051 l 392 1251 l 546 1251 l 653 1147 l 788 1251 l 949 1251 z "},"Ḝ":{"ha":926,"x_min":32,"x_max":972,"o":"m 618 807 q 447 769 507 807 q 386 669 386 732 q 419 603 386 626 q 519 581 453 581 l 779 581 l 743 403 l 451 403 q 314 370 365 403 q 263 279 263 338 q 482 165 263 165 q 660 188 575 165 q 806 250 746 211 l 864 82 q 678 10 789 36 q 450 -17 568 -17 q 144 53 256 -17 q 32 249 32 124 q 88 410 32 342 q 240 510 144 479 q 181 576 201 536 q 160 665 160 615 q 218 836 160 763 q 384 949 276 910 q 633 989 492 989 q 824 970 736 989 q 972 917 911 951 l 899 747 q 618 807 779 807 m 329 -322 q 199 -293 253 -322 l 246 -200 q 339 -221 288 -221 q 395 -208 376 -221 q 415 -175 414 -196 q 356 -136 419 -136 l 307 -136 l 374 11 l 489 11 l 454 -69 q 526 -102 500 -75 q 551 -165 551 -129 q 491 -281 551 -239 q 329 -322 431 -322 m 651 1040 q 486 1092 551 1040 q 421 1231 421 1144 q 422 1251 421 1244 l 554 1251 q 583 1180 553 1207 q 664 1153 613 1153 q 750 1180 715 1153 q 793 1251 785 1207 l 933 1251 q 839 1097 915 1154 q 651 1040 763 1040 z "},"Ê":{"ha":926,"x_min":32,"x_max":972,"o":"m 618 807 q 447 769 507 807 q 386 669 386 732 q 419 603 386 626 q 519 581 453 581 l 779 581 l 743 403 l 451 403 q 314 370 365 403 q 263 279 263 338 q 482 165 263 165 q 660 188 575 165 q 806 250 746 211 l 864 82 q 678 10 789 36 q 450 -17 568 -17 q 144 53 256 -17 q 32 249 32 124 q 88 410 32 342 q 240 510 144 479 q 181 576 201 536 q 160 665 160 615 q 218 836 160 763 q 384 949 276 910 q 633 989 492 989 q 824 970 736 989 q 972 917 911 951 l 899 747 q 618 807 779 807 m 764 1051 l 657 1156 l 522 1051 l 360 1051 l 571 1251 l 761 1251 l 918 1051 l 764 1051 z "},"Ế":{"ha":926,"x_min":32,"x_max":1200,"o":"m 618 807 q 447 769 507 807 q 386 669 386 732 q 419 603 386 626 q 519 581 453 581 l 779 581 l 743 403 l 451 403 q 314 370 365 403 q 263 279 263 338 q 482 165 263 165 q 660 188 575 165 q 806 250 746 211 l 864 82 q 678 10 789 36 q 450 -17 568 -17 q 144 53 256 -17 q 32 249 32 124 q 88 410 32 342 q 240 510 144 479 q 181 576 201 536 q 160 665 160 615 q 218 836 160 763 q 384 949 276 910 q 633 989 492 989 q 824 970 736 989 q 972 917 911 951 l 899 747 q 618 807 779 807 m 761 1051 l 654 1131 l 522 1051 l 360 1051 l 568 1210 l 756 1210 l 918 1051 l 761 1051 m 974 1353 l 1200 1353 l 964 1185 l 801 1185 l 974 1353 z "},"Ệ":{"ha":926,"x_min":32,"x_max":972,"o":"m 618 807 q 447 769 507 807 q 386 669 386 732 q 419 603 386 626 q 519 581 453 581 l 779 581 l 743 403 l 451 403 q 314 370 365 403 q 263 279 263 338 q 482 165 263 165 q 660 188 575 165 q 806 250 746 211 l 864 82 q 678 10 789 36 q 450 -17 568 -17 q 144 53 256 -17 q 32 249 32 124 q 88 410 32 342 q 240 510 144 479 q 181 576 201 536 q 160 665 160 615 q 218 836 160 763 q 384 949 276 910 q 633 989 492 989 q 824 970 736 989 q 972 917 911 951 l 899 747 q 618 807 779 807 m 381 -292 q 316 -268 340 -292 q 292 -206 292 -244 q 324 -132 292 -162 q 397 -101 356 -101 q 460 -125 435 -101 q 486 -185 486 -149 q 456 -262 486 -233 q 381 -292 426 -292 m 764 1051 l 657 1156 l 522 1051 l 360 1051 l 571 1251 l 761 1251 l 918 1051 l 764 1051 z "},"Ề":{"ha":926,"x_min":32,"x_max":1044,"o":"m 618 807 q 447 769 507 807 q 386 669 386 732 q 419 603 386 626 q 519 581 453 581 l 779 581 l 743 403 l 451 403 q 314 370 365 403 q 263 279 263 338 q 482 165 263 165 q 660 188 575 165 q 806 250 746 211 l 864 82 q 678 10 789 36 q 450 -17 568 -17 q 144 53 256 -17 q 32 249 32 124 q 88 410 32 342 q 240 510 144 479 q 181 576 201 536 q 160 665 160 615 q 218 836 160 763 q 384 949 276 910 q 633 989 492 989 q 824 970 736 989 q 972 917 911 951 l 899 747 q 618 807 779 807 m 761 1051 l 654 1131 l 522 1051 l 360 1051 l 568 1210 l 756 1210 l 918 1051 l 761 1051 m 703 1353 l 925 1353 l 1044 1185 l 888 1185 l 703 1353 z "},"Ể":{"ha":926,"x_min":32,"x_max":1006,"o":"m 618 807 q 447 769 507 807 q 386 669 386 732 q 419 603 386 626 q 519 581 453 581 l 779 581 l 743 403 l 451 403 q 314 370 365 403 q 263 279 263 338 q 482 165 263 165 q 660 188 575 165 q 806 250 746 211 l 864 82 q 678 10 789 36 q 450 -17 568 -17 q 144 53 256 -17 q 32 249 32 124 q 88 410 32 342 q 240 510 144 479 q 181 576 201 536 q 160 665 160 615 q 218 836 160 763 q 384 949 276 910 q 633 989 492 989 q 824 970 736 989 q 972 917 911 951 l 899 747 q 618 807 779 807 m 761 1051 l 654 1131 l 522 1051 l 360 1051 l 568 1210 l 756 1210 l 918 1051 l 761 1051 m 844 1210 q 904 1275 904 1236 q 894 1299 904 1290 q 864 1308 883 1308 q 799 1292 832 1308 l 772 1360 q 889 1389 826 1389 q 974 1363 942 1389 q 1006 1293 1006 1336 q 974 1213 1006 1247 q 892 1158 943 1178 l 844 1210 z "},"Ễ":{"ha":926,"x_min":32,"x_max":972,"o":"m 618 807 q 447 769 507 807 q 386 669 386 732 q 419 603 386 626 q 519 581 453 581 l 779 581 l 743 403 l 451 403 q 314 370 365 403 q 263 279 263 338 q 482 165 263 165 q 660 188 575 165 q 806 250 746 211 l 864 82 q 678 10 789 36 q 450 -17 568 -17 q 144 53 256 -17 q 32 249 32 124 q 88 410 32 342 q 240 510 144 479 q 181 576 201 536 q 160 665 160 615 q 218 836 160 763 q 384 949 276 910 q 633 989 492 989 q 824 970 736 989 q 972 917 911 951 l 899 747 q 618 807 779 807 m 761 1051 l 654 1131 l 522 1051 l 360 1051 l 568 1210 l 756 1210 l 918 1051 l 761 1051 m 788 1258 q 724 1270 751 1258 q 667 1303 697 1282 q 606 1331 629 1331 q 560 1313 578 1331 q 536 1267 542 1296 l 424 1267 q 484 1395 436 1350 q 606 1440 532 1440 q 669 1428 642 1440 q 725 1396 696 1417 q 760 1375 746 1382 q 789 1368 774 1368 q 835 1385 817 1368 q 861 1431 854 1403 l 969 1431 q 910 1304 957 1350 q 788 1258 863 1258 z "},"Ȅ":{"ha":926,"x_min":32,"x_max":972,"o":"m 618 807 q 447 769 507 807 q 386 669 386 732 q 419 603 386 626 q 519 581 453 581 l 779 581 l 743 403 l 451 403 q 314 370 365 403 q 263 279 263 338 q 482 165 263 165 q 660 188 575 165 q 806 250 746 211 l 864 82 q 678 10 789 36 q 450 -17 568 -17 q 144 53 256 -17 q 32 249 32 124 q 88 410 32 342 q 240 510 144 479 q 181 576 201 536 q 160 665 160 615 q 218 836 160 763 q 384 949 276 910 q 633 989 492 989 q 824 970 736 989 q 972 917 911 951 l 899 747 q 618 807 779 807 m 318 1251 l 513 1251 l 574 1051 l 424 1051 l 318 1251 m 599 1251 l 793 1251 l 854 1051 l 704 1051 l 599 1251 z "},"Ë":{"ha":926,"x_min":32,"x_max":972,"o":"m 618 807 q 447 769 507 807 q 386 669 386 732 q 419 603 386 626 q 519 581 453 581 l 779 581 l 743 403 l 451 403 q 314 370 365 403 q 263 279 263 338 q 482 165 263 165 q 660 188 575 165 q 806 250 746 211 l 864 82 q 678 10 789 36 q 450 -17 568 -17 q 144 53 256 -17 q 32 249 32 124 q 88 410 32 342 q 240 510 144 479 q 181 576 201 536 q 160 665 160 615 q 218 836 160 763 q 384 949 276 910 q 633 989 492 989 q 824 970 736 989 q 972 917 911 951 l 899 747 q 618 807 779 807 m 511 1058 q 447 1082 472 1058 q 421 1144 421 1106 q 451 1220 421 1190 q 524 1250 482 1250 q 589 1226 563 1250 q 615 1164 615 1203 q 584 1088 615 1118 q 511 1058 553 1058 m 793 1058 q 728 1082 754 1058 q 703 1144 703 1106 q 733 1221 703 1192 q 806 1250 763 1250 q 870 1226 844 1250 q 896 1164 896 1203 q 865 1088 896 1118 q 793 1058 835 1058 z "},"Ė":{"ha":926,"x_min":32,"x_max":972,"o":"m 618 807 q 447 769 507 807 q 386 669 386 732 q 419 603 386 626 q 519 581 453 581 l 779 581 l 743 403 l 451 403 q 314 370 365 403 q 263 279 263 338 q 482 165 263 165 q 660 188 575 165 q 806 250 746 211 l 864 82 q 678 10 789 36 q 450 -17 568 -17 q 144 53 256 -17 q 32 249 32 124 q 88 410 32 342 q 240 510 144 479 q 181 576 201 536 q 160 665 160 615 q 218 836 160 763 q 384 949 276 910 q 633 989 492 989 q 824 970 736 989 q 972 917 911 951 l 899 747 q 618 807 779 807 m 656 1058 q 576 1088 607 1058 q 546 1161 546 1117 q 582 1256 546 1219 q 672 1293 618 1293 q 751 1264 721 1293 q 781 1189 781 1235 q 744 1095 781 1132 q 656 1058 708 1058 z "},"Ẹ":{"ha":926,"x_min":32,"x_max":972,"o":"m 618 807 q 447 769 507 807 q 386 669 386 732 q 419 603 386 626 q 519 581 453 581 l 779 581 l 743 403 l 451 403 q 314 370 365 403 q 263 279 263 338 q 482 165 263 165 q 660 188 575 165 q 806 250 746 211 l 864 82 q 678 10 789 36 q 450 -17 568 -17 q 144 53 256 -17 q 32 249 32 124 q 88 410 32 342 q 240 510 144 479 q 181 576 201 536 q 160 665 160 615 q 218 836 160 763 q 384 949 276 910 q 633 989 492 989 q 824 970 736 989 q 972 917 911 951 l 899 747 q 618 807 779 807 m 381 -292 q 316 -268 340 -292 q 292 -206 292 -244 q 324 -132 292 -162 q 397 -101 356 -101 q 460 -125 435 -101 q 486 -185 486 -149 q 456 -262 486 -233 q 381 -292 426 -292 z "},"È":{"ha":926,"x_min":32,"x_max":972,"o":"m 618 807 q 447 769 507 807 q 386 669 386 732 q 419 603 386 626 q 519 581 453 581 l 779 581 l 743 403 l 451 403 q 314 370 365 403 q 263 279 263 338 q 482 165 263 165 q 660 188 575 165 q 806 250 746 211 l 864 82 q 678 10 789 36 q 450 -17 568 -17 q 144 53 256 -17 q 32 249 32 124 q 88 410 32 342 q 240 510 144 479 q 181 576 201 536 q 160 665 160 615 q 218 836 160 763 q 384 949 276 910 q 633 989 492 989 q 824 970 736 989 q 972 917 911 951 l 899 747 q 618 807 779 807 m 385 1251 l 617 1251 l 764 1051 l 596 1051 l 385 1251 z "},"Ẻ":{"ha":926,"x_min":32,"x_max":972,"o":"m 618 807 q 447 769 507 807 q 386 669 386 732 q 419 603 386 626 q 519 581 453 581 l 779 581 l 743 403 l 451 403 q 314 370 365 403 q 263 279 263 338 q 482 165 263 165 q 660 188 575 165 q 806 250 746 211 l 864 82 q 678 10 789 36 q 450 -17 568 -17 q 144 53 256 -17 q 32 249 32 124 q 88 410 32 342 q 240 510 144 479 q 181 576 201 536 q 160 665 160 615 q 218 836 160 763 q 384 949 276 910 q 633 989 492 989 q 824 970 736 989 q 972 917 911 951 l 899 747 q 618 807 779 807 m 629 1110 q 713 1203 713 1144 q 697 1240 713 1226 q 654 1254 681 1254 q 571 1226 613 1254 l 533 1315 q 690 1361 597 1361 q 800 1326 760 1361 q 840 1232 840 1292 q 686 1036 840 1104 l 629 1110 z "},"Ȇ":{"ha":926,"x_min":32,"x_max":972,"o":"m 618 807 q 447 769 507 807 q 386 669 386 732 q 419 603 386 626 q 519 581 453 581 l 779 581 l 743 403 l 451 403 q 314 370 365 403 q 263 279 263 338 q 482 165 263 165 q 660 188 575 165 q 806 250 746 211 l 864 82 q 678 10 789 36 q 450 -17 568 -17 q 144 53 256 -17 q 32 249 32 124 q 88 410 32 342 q 240 510 144 479 q 181 576 201 536 q 160 665 160 615 q 218 836 160 763 q 384 949 276 910 q 633 989 492 989 q 824 970 736 989 q 972 917 911 951 l 899 747 q 618 807 779 807 m 382 1051 q 477 1206 400 1149 q 665 1264 554 1264 q 838 1206 772 1264 q 894 1051 903 1147 l 761 1051 q 734 1124 764 1097 q 653 1151 704 1151 q 567 1124 601 1151 q 522 1051 532 1097 l 382 1051 z "},"Ē":{"ha":926,"x_min":32,"x_max":972,"o":"m 618 807 q 447 769 507 807 q 386 669 386 732 q 419 603 386 626 q 519 581 453 581 l 779 581 l 743 403 l 451 403 q 314 370 365 403 q 263 279 263 338 q 482 165 263 165 q 660 188 575 165 q 806 250 746 211 l 864 82 q 678 10 789 36 q 450 -17 568 -17 q 144 53 256 -17 q 32 249 32 124 q 88 410 32 342 q 240 510 144 479 q 181 576 201 536 q 160 665 160 615 q 218 836 160 763 q 384 949 276 910 q 633 989 492 989 q 824 970 736 989 q 972 917 911 951 l 899 747 q 618 807 779 807 m 414 1213 l 926 1213 l 903 1090 l 390 1090 l 414 1213 z "},"Ḗ":{"ha":926,"x_min":32,"x_max":972,"o":"m 618 807 q 447 769 507 807 q 386 669 386 732 q 419 603 386 626 q 519 581 453 581 l 779 581 l 743 403 l 451 403 q 314 370 365 403 q 263 279 263 338 q 482 165 263 165 q 660 188 575 165 q 806 250 746 211 l 864 82 q 678 10 789 36 q 450 -17 568 -17 q 144 53 256 -17 q 32 249 32 124 q 88 410 32 342 q 240 510 144 479 q 181 576 201 536 q 160 665 160 615 q 218 836 160 763 q 384 949 276 910 q 633 989 492 989 q 824 970 736 989 q 972 917 911 951 l 899 747 q 618 807 779 807 m 408 1189 l 922 1189 l 900 1074 l 386 1074 l 408 1189 m 732 1443 l 958 1443 l 722 1275 l 560 1275 l 732 1443 z "},"Ḕ":{"ha":926,"x_min":32,"x_max":972,"o":"m 618 807 q 447 769 507 807 q 386 669 386 732 q 419 603 386 626 q 519 581 453 581 l 779 581 l 743 403 l 451 403 q 314 370 365 403 q 263 279 263 338 q 482 165 263 165 q 660 188 575 165 q 806 250 746 211 l 864 82 q 678 10 789 36 q 450 -17 568 -17 q 144 53 256 -17 q 32 249 32 124 q 88 410 32 342 q 240 510 144 479 q 181 576 201 536 q 160 665 160 615 q 218 836 160 763 q 384 949 276 910 q 633 989 492 989 q 824 970 736 989 q 972 917 911 951 l 899 747 q 618 807 779 807 m 408 1189 l 922 1189 l 900 1074 l 386 1074 l 408 1189 m 461 1443 l 683 1443 l 803 1275 l 646 1275 l 461 1443 z "},"Ę":{"ha":926,"x_min":32,"x_max":972,"o":"m 618 807 q 447 769 507 807 q 386 669 386 732 q 419 603 386 626 q 519 581 453 581 l 779 581 l 743 403 l 451 403 q 314 370 365 403 q 263 279 263 338 q 482 165 263 165 q 660 188 575 165 q 806 250 746 211 l 864 82 q 652 -51 713 4 q 592 -154 592 -107 q 610 -197 592 -182 q 658 -212 628 -212 q 747 -192 706 -212 l 763 -290 q 622 -322 696 -322 q 496 -285 543 -322 q 449 -185 449 -249 q 551 -11 449 -86 q 450 -17 506 -17 q 144 53 256 -17 q 32 249 32 124 q 88 410 32 342 q 240 510 144 479 q 181 576 201 536 q 160 665 160 615 q 218 836 160 763 q 384 949 276 910 q 633 989 492 989 q 824 970 736 989 q 972 917 911 951 l 899 747 q 618 807 779 807 z "},"Ẽ":{"ha":926,"x_min":32,"x_max":972,"o":"m 618 807 q 447 769 507 807 q 386 669 386 732 q 419 603 386 626 q 519 581 453 581 l 779 581 l 743 403 l 451 403 q 314 370 365 403 q 263 279 263 338 q 482 165 263 165 q 660 188 575 165 q 806 250 746 211 l 864 82 q 678 10 789 36 q 450 -17 568 -17 q 144 53 256 -17 q 32 249 32 124 q 88 410 32 342 q 240 510 144 479 q 181 576 201 536 q 160 665 160 615 q 218 836 160 763 q 384 949 276 910 q 633 989 492 989 q 824 970 736 989 q 972 917 911 951 l 899 747 q 618 807 779 807 m 756 1047 q 691 1061 718 1047 q 632 1100 664 1075 q 592 1127 606 1119 q 561 1135 578 1135 q 514 1114 533 1135 q 488 1057 494 1093 l 378 1057 q 442 1208 393 1156 q 563 1260 490 1260 q 626 1246 599 1260 q 685 1207 653 1232 q 724 1179 710 1188 q 756 1171 739 1171 q 803 1191 785 1171 q 829 1246 822 1211 l 939 1246 q 876 1099 924 1151 q 756 1047 828 1047 z "},"Ʒ":{"ha":856,"x_min":-19,"x_max":875,"o":"m 847 826 l 575 572 q 732 485 676 549 q 788 326 788 421 q 730 150 788 228 q 569 28 672 72 q 336 -17 467 -17 q 136 13 229 -17 q -19 96 43 42 l 89 261 q 206 196 138 219 q 351 172 275 172 q 506 209 451 172 q 560 313 560 246 q 520 391 560 365 q 400 417 481 417 l 297 417 l 326 565 l 568 792 l 158 792 l 194 972 l 875 972 l 847 826 z "},"Ǯ":{"ha":856,"x_min":-19,"x_max":875,"o":"m 847 826 l 575 572 q 732 485 676 549 q 788 326 788 421 q 730 150 788 228 q 569 28 672 72 q 336 -17 467 -17 q 136 13 229 -17 q -19 96 43 42 l 89 261 q 206 196 138 219 q 351 172 275 172 q 506 209 451 172 q 560 313 560 246 q 520 391 560 365 q 400 417 481 417 l 297 417 l 326 565 l 568 792 l 158 792 l 194 972 l 875 972 l 847 826 m 846 1251 l 636 1051 l 444 1051 l 289 1251 l 443 1251 l 550 1147 l 685 1251 l 846 1251 z "},"F":{"ha":854,"x_min":32,"x_max":944,"o":"m 647 797 q 379 606 417 797 l 365 535 l 763 535 l 726 353 l 329 353 l 258 0 l 32 0 l 153 600 q 658 989 229 989 q 816 970 739 989 q 944 918 893 951 l 846 744 q 647 797 772 797 z "},"G":{"ha":1071,"x_min":71,"x_max":1088,"o":"m 799 501 l 1004 501 l 901 0 l 735 0 l 744 53 q 506 -17 647 -17 q 282 35 381 -17 q 127 181 183 86 q 71 403 71 276 q 147 703 71 569 q 363 913 224 836 q 682 989 501 989 q 921 945 817 989 q 1088 819 1025 901 l 926 689 q 816 772 878 746 q 671 797 754 797 q 475 748 560 797 q 344 613 390 699 q 299 419 299 526 q 365 239 299 306 q 553 172 432 172 q 746 238 661 172 l 799 501 z "},"Ğ":{"ha":1071,"x_min":71,"x_max":1088,"o":"m 799 501 l 1004 501 l 901 0 l 735 0 l 744 53 q 506 -17 647 -17 q 282 35 381 -17 q 127 181 183 86 q 71 403 71 276 q 147 703 71 569 q 363 913 224 836 q 682 989 501 989 q 921 945 817 989 q 1088 819 1025 901 l 926 689 q 816 772 878 746 q 671 797 754 797 q 475 748 560 797 q 344 613 390 699 q 299 419 299 526 q 365 239 299 306 q 553 172 432 172 q 746 238 661 172 l 799 501 m 725 1042 q 560 1094 625 1042 q 494 1232 494 1146 q 496 1253 494 1246 l 628 1253 q 656 1181 626 1208 q 738 1154 686 1154 q 824 1181 789 1154 q 867 1253 858 1208 l 1007 1253 q 913 1099 989 1156 q 725 1042 836 1042 z "},"Ǧ":{"ha":1071,"x_min":71,"x_max":1088,"o":"m 799 501 l 1004 501 l 901 0 l 735 0 l 744 53 q 506 -17 647 -17 q 282 35 381 -17 q 127 181 183 86 q 71 403 71 276 q 147 703 71 569 q 363 913 224 836 q 682 989 501 989 q 921 945 817 989 q 1088 819 1025 901 l 926 689 q 816 772 878 746 q 671 797 754 797 q 475 748 560 797 q 344 613 390 699 q 299 419 299 526 q 365 239 299 306 q 553 172 432 172 q 746 238 661 172 l 799 501 m 1022 1253 l 813 1053 l 621 1053 l 465 1253 l 619 1253 l 726 1149 l 861 1253 l 1022 1253 z "},"Ĝ":{"ha":1071,"x_min":71,"x_max":1088,"o":"m 799 501 l 1004 501 l 901 0 l 735 0 l 744 53 q 506 -17 647 -17 q 282 35 381 -17 q 127 181 183 86 q 71 403 71 276 q 147 703 71 569 q 363 913 224 836 q 682 989 501 989 q 921 945 817 989 q 1088 819 1025 901 l 926 689 q 816 772 878 746 q 671 797 754 797 q 475 748 560 797 q 344 613 390 699 q 299 419 299 526 q 365 239 299 306 q 553 172 432 172 q 746 238 661 172 l 799 501 m 838 1053 l 731 1157 l 596 1053 l 433 1053 l 644 1253 l 835 1253 l 992 1053 l 838 1053 z "},"Ģ":{"ha":1071,"x_min":71,"x_max":1088,"o":"m 799 501 l 1004 501 l 901 0 l 735 0 l 744 53 q 506 -17 647 -17 q 282 35 381 -17 q 127 181 183 86 q 71 403 71 276 q 147 703 71 569 q 363 913 224 836 q 682 989 501 989 q 921 945 817 989 q 1088 819 1025 901 l 926 689 q 816 772 878 746 q 671 797 754 797 q 475 748 560 797 q 344 613 390 699 q 299 419 299 526 q 365 239 299 306 q 553 172 432 172 q 746 238 661 172 l 799 501 m 458 -99 q 527 -119 503 -99 q 551 -172 551 -140 q 542 -215 551 -194 q 508 -271 533 -235 l 440 -367 l 342 -367 l 399 -254 q 357 -193 357 -237 q 383 -125 357 -151 q 458 -99 410 -99 z "},"Ġ":{"ha":1071,"x_min":71,"x_max":1088,"o":"m 799 501 l 1004 501 l 901 0 l 735 0 l 744 53 q 506 -17 647 -17 q 282 35 381 -17 q 127 181 183 86 q 71 403 71 276 q 147 703 71 569 q 363 913 224 836 q 682 989 501 989 q 921 945 817 989 q 1088 819 1025 901 l 926 689 q 816 772 878 746 q 671 797 754 797 q 475 748 560 797 q 344 613 390 699 q 299 419 299 526 q 365 239 299 306 q 553 172 432 172 q 746 238 661 172 l 799 501 m 729 1060 q 650 1089 681 1060 q 619 1163 619 1118 q 656 1258 619 1221 q 746 1294 692 1294 q 824 1265 794 1294 q 854 1190 854 1236 q 818 1097 854 1133 q 729 1060 782 1060 z "},"Ḡ":{"ha":1071,"x_min":71,"x_max":1088,"o":"m 799 501 l 1004 501 l 901 0 l 735 0 l 744 53 q 506 -17 647 -17 q 282 35 381 -17 q 127 181 183 86 q 71 403 71 276 q 147 703 71 569 q 363 913 224 836 q 682 989 501 989 q 921 945 817 989 q 1088 819 1025 901 l 926 689 q 816 772 878 746 q 671 797 754 797 q 475 748 560 797 q 344 613 390 699 q 299 419 299 526 q 365 239 299 306 q 553 172 432 172 q 746 238 661 172 l 799 501 m 488 1214 l 1000 1214 l 976 1092 l 464 1092 l 488 1214 z "},"Ǥ":{"ha":1133,"x_min":71,"x_max":1139,"o":"m 799 501 l 1004 501 l 901 0 l 735 0 l 744 53 q 506 -17 647 -17 q 282 35 381 -17 q 127 181 183 86 q 71 403 71 276 q 147 703 71 569 q 363 913 224 836 q 682 989 501 989 q 921 945 817 989 q 1088 819 1025 901 l 926 689 q 816 772 878 746 q 671 797 754 797 q 475 748 560 797 q 344 613 390 699 q 299 419 299 526 q 365 239 299 306 q 553 172 432 172 q 746 238 661 172 l 799 501 m 586 423 l 1139 423 l 1112 274 l 558 274 l 586 423 z "},"H":{"ha":1122,"x_min":40,"x_max":1126,"o":"m 1126 972 l 932 0 l 707 0 l 786 396 l 346 396 l 267 0 l 40 0 l 235 972 l 461 972 l 385 590 l 825 590 l 901 972 l 1126 972 z "},"Ħ":{"ha":1158,"x_min":58,"x_max":1254,"o":"m 1144 972 l 950 0 l 725 0 l 804 396 l 364 396 l 285 0 l 58 0 l 253 972 l 479 972 l 403 590 l 843 590 l 919 972 l 1144 972 m 96 858 l 1254 858 l 1225 708 l 68 708 l 96 858 z "},"Ḫ":{"ha":1122,"x_min":40,"x_max":1126,"o":"m 1126 972 l 932 0 l 707 0 l 786 396 l 346 396 l 267 0 l 40 0 l 235 972 l 461 972 l 385 590 l 825 590 l 901 972 l 1126 972 m 446 -301 q 275 -251 342 -301 q 208 -122 208 -200 q 210 -103 208 -110 l 342 -103 q 369 -171 340 -146 q 451 -196 399 -196 q 538 -171 503 -196 q 581 -103 572 -146 l 719 -103 q 627 -248 703 -194 q 446 -301 551 -301 z "},"Ȟ":{"ha":1122,"x_min":40,"x_max":1126,"o":"m 1126 972 l 932 0 l 707 0 l 786 396 l 346 396 l 267 0 l 40 0 l 235 972 l 461 972 l 385 590 l 825 590 l 901 972 l 1126 972 m 1006 1251 l 796 1051 l 604 1051 l 449 1251 l 603 1251 l 710 1147 l 844 1251 l 1006 1251 z "},"Ĥ":{"ha":1122,"x_min":40,"x_max":1126,"o":"m 1126 972 l 932 0 l 707 0 l 786 396 l 346 396 l 267 0 l 40 0 l 235 972 l 461 972 l 385 590 l 825 590 l 901 972 l 1126 972 m 821 1051 l 714 1156 l 579 1051 l 417 1051 l 628 1251 l 818 1251 l 975 1051 l 821 1051 z "},"Ḥ":{"ha":1122,"x_min":40,"x_max":1126,"o":"m 1126 972 l 932 0 l 707 0 l 786 396 l 346 396 l 267 0 l 40 0 l 235 972 l 461 972 l 385 590 l 825 590 l 901 972 l 1126 972 m 438 -292 q 373 -268 397 -292 q 349 -206 349 -244 q 381 -132 349 -162 q 454 -101 413 -101 q 517 -125 492 -101 q 543 -185 543 -149 q 513 -262 543 -233 q 438 -292 483 -292 z "},"I":{"ha":671,"x_min":-21,"x_max":738,"o":"m 532 793 l 410 179 l 578 179 l 543 0 l -21 0 l 14 179 l 183 179 l 306 793 l 139 793 l 174 972 l 738 972 l 703 793 l 532 793 z "},"Ĳ":{"ha":1006,"x_min":4,"x_max":1017,"o":"m 385 -151 q 4 -44 151 -151 l 114 126 q 397 38 240 38 q 569 97 507 38 q 657 290 631 156 l 792 972 l 1017 972 l 881 282 q 713 -44 836 63 q 385 -151 589 -151 m 226 972 l 451 972 l 319 308 l 93 308 l 226 972 z "},"Í":{"ha":671,"x_min":-21,"x_max":789,"o":"m 532 793 l 410 179 l 578 179 l 543 0 l -21 0 l 14 179 l 183 179 l 306 793 l 139 793 l 174 972 l 738 972 l 703 793 l 532 793 m 550 1251 l 789 1251 l 517 1051 l 342 1051 l 550 1251 z "},"Ĭ":{"ha":671,"x_min":-21,"x_max":765,"o":"m 532 793 l 410 179 l 578 179 l 543 0 l -21 0 l 14 179 l 183 179 l 306 793 l 139 793 l 174 972 l 738 972 l 703 793 l 532 793 m 483 1040 q 318 1092 383 1040 q 253 1231 253 1144 q 254 1251 253 1244 l 386 1251 q 415 1180 385 1207 q 496 1153 444 1153 q 582 1180 547 1153 q 625 1251 617 1207 l 765 1251 q 671 1097 747 1154 q 483 1040 594 1040 z "},"Î":{"ha":671,"x_min":-21,"x_max":750,"o":"m 532 793 l 410 179 l 578 179 l 543 0 l -21 0 l 14 179 l 183 179 l 306 793 l 139 793 l 174 972 l 738 972 l 703 793 l 532 793 m 596 1051 l 489 1156 l 354 1051 l 192 1051 l 403 1251 l 593 1251 l 750 1051 l 596 1051 z "},"Ȉ":{"ha":671,"x_min":-21,"x_max":738,"o":"m 532 793 l 410 179 l 578 179 l 543 0 l -21 0 l 14 179 l 183 179 l 306 793 l 139 793 l 174 972 l 738 972 l 703 793 l 532 793 m 150 1251 l 344 1251 l 406 1051 l 256 1051 l 150 1251 m 431 1251 l 625 1251 l 686 1051 l 536 1051 l 431 1251 z "},"Ï":{"ha":671,"x_min":-21,"x_max":738,"o":"m 532 793 l 410 179 l 578 179 l 543 0 l -21 0 l 14 179 l 183 179 l 306 793 l 139 793 l 174 972 l 738 972 l 703 793 l 532 793 m 343 1058 q 278 1082 304 1058 q 253 1144 253 1106 q 283 1220 253 1190 q 356 1250 314 1250 q 421 1226 394 1250 q 447 1164 447 1203 q 416 1088 447 1118 q 343 1058 385 1058 m 625 1058 q 560 1082 586 1058 q 535 1144 535 1106 q 565 1221 535 1192 q 638 1250 594 1250 q 702 1226 676 1250 q 728 1164 728 1203 q 697 1088 728 1118 q 625 1058 667 1058 z "},"Ḯ":{"ha":671,"x_min":-21,"x_max":790,"o":"m 532 793 l 410 179 l 578 179 l 543 0 l -21 0 l 14 179 l 183 179 l 306 793 l 139 793 l 174 972 l 738 972 l 703 793 l 532 793 m 349 1058 q 287 1081 311 1058 q 263 1140 263 1103 q 291 1213 263 1185 q 360 1242 319 1242 q 422 1218 397 1242 q 446 1157 446 1194 q 417 1086 446 1114 q 349 1058 389 1058 m 619 1058 q 558 1081 582 1058 q 533 1140 533 1103 q 563 1213 533 1183 q 632 1242 592 1242 q 694 1218 669 1242 q 718 1157 718 1194 q 689 1086 718 1114 q 619 1058 660 1058 m 564 1443 l 790 1443 l 554 1275 l 392 1275 l 564 1443 z "},"İ":{"ha":671,"x_min":-21,"x_max":738,"o":"m 532 793 l 410 179 l 578 179 l 543 0 l -21 0 l 14 179 l 183 179 l 306 793 l 139 793 l 174 972 l 738 972 l 703 793 l 532 793 m 488 1058 q 408 1088 439 1058 q 378 1161 378 1117 q 414 1256 378 1219 q 504 1293 450 1293 q 583 1264 553 1293 q 613 1189 613 1235 q 576 1095 613 1132 q 488 1058 540 1058 z "},"Ị":{"ha":671,"x_min":-21,"x_max":738,"o":"m 532 793 l 410 179 l 578 179 l 543 0 l -21 0 l 14 179 l 183 179 l 306 793 l 139 793 l 174 972 l 738 972 l 703 793 l 532 793 m 213 -292 q 148 -268 172 -292 q 124 -206 124 -244 q 156 -132 124 -162 q 229 -101 188 -101 q 292 -125 267 -101 q 318 -185 318 -149 q 288 -262 318 -233 q 213 -292 258 -292 z "},"Ì":{"ha":671,"x_min":-21,"x_max":738,"o":"m 532 793 l 410 179 l 578 179 l 543 0 l -21 0 l 14 179 l 183 179 l 306 793 l 139 793 l 174 972 l 738 972 l 703 793 l 532 793 m 217 1251 l 449 1251 l 596 1051 l 428 1051 l 217 1251 z "},"Ỉ":{"ha":671,"x_min":-21,"x_max":738,"o":"m 532 793 l 410 179 l 578 179 l 543 0 l -21 0 l 14 179 l 183 179 l 306 793 l 139 793 l 174 972 l 738 972 l 703 793 l 532 793 m 461 1110 q 544 1203 544 1144 q 528 1240 544 1226 q 486 1254 513 1254 q 403 1226 444 1254 l 365 1315 q 522 1361 429 1361 q 632 1326 592 1361 q 672 1232 672 1292 q 518 1036 672 1104 l 461 1110 z "},"Ȋ":{"ha":671,"x_min":-21,"x_max":738,"o":"m 532 793 l 410 179 l 578 179 l 543 0 l -21 0 l 14 179 l 183 179 l 306 793 l 139 793 l 174 972 l 738 972 l 703 793 l 532 793 m 214 1051 q 309 1206 232 1149 q 497 1264 386 1264 q 669 1206 604 1264 q 726 1051 735 1147 l 593 1051 q 566 1124 596 1097 q 485 1151 536 1151 q 399 1124 433 1151 q 354 1051 364 1097 l 214 1051 z "},"Ī":{"ha":671,"x_min":-21,"x_max":738,"o":"m 532 793 l 410 179 l 578 179 l 543 0 l -21 0 l 14 179 l 183 179 l 306 793 l 139 793 l 174 972 l 738 972 l 703 793 l 532 793 m 294 1213 l 711 1213 l 688 1090 l 271 1090 l 294 1213 z "},"Į":{"ha":671,"x_min":-21,"x_max":738,"o":"m 532 793 l 410 179 l 578 179 l 543 0 l -21 0 l 14 179 l 183 179 l 306 793 l 139 793 l 174 972 l 738 972 l 703 793 l 532 793 m 261 -322 q 150 -285 189 -322 q 111 -189 111 -249 q 167 -49 111 -111 q 317 58 222 14 l 374 0 q 254 -165 254 -85 q 267 -200 254 -187 q 300 -212 279 -212 q 349 -199 325 -212 l 361 -296 q 261 -322 321 -322 z "},"Ĩ":{"ha":671,"x_min":-21,"x_max":771,"o":"m 532 793 l 410 179 l 578 179 l 543 0 l -21 0 l 14 179 l 183 179 l 306 793 l 139 793 l 174 972 l 738 972 l 703 793 l 532 793 m 588 1047 q 523 1061 550 1047 q 464 1100 496 1075 q 424 1127 438 1119 q 393 1135 410 1135 q 346 1114 365 1135 q 319 1057 326 1093 l 210 1057 q 274 1208 225 1156 q 394 1260 322 1260 q 458 1246 431 1260 q 517 1207 485 1232 q 556 1179 542 1188 q 588 1171 571 1171 q 635 1191 617 1171 q 661 1246 654 1211 l 771 1246 q 708 1099 756 1151 q 588 1047 660 1047 z "},"J":{"ha":751,"x_min":-96,"x_max":765,"o":"m 221 -156 q 29 -118 110 -156 q -96 -10 -51 -81 l 53 132 q 224 29 117 29 q 329 66 289 29 q 385 181 369 103 l 506 792 l 165 792 l 201 972 l 765 972 l 608 192 q 478 -75 572 6 q 221 -156 383 -156 z "},"Ĵ":{"ha":751,"x_min":-96,"x_max":776,"o":"m 221 -156 q 29 -118 110 -156 q -96 -10 -51 -81 l 53 132 q 224 29 117 29 q 329 66 289 29 q 385 181 369 103 l 506 792 l 165 792 l 201 972 l 765 972 l 608 192 q 478 -75 572 6 q 221 -156 383 -156 m 622 1051 l 515 1156 l 381 1051 l 218 1051 l 429 1251 l 619 1251 l 776 1051 l 622 1051 z "},"K":{"ha":1028,"x_min":40,"x_max":1146,"o":"m 635 522 l 972 0 l 719 0 l 469 381 l 313 242 l 264 0 l 40 0 l 235 972 l 458 972 l 369 526 l 874 972 l 1146 972 l 635 522 z "},"Ǩ":{"ha":1028,"x_min":40,"x_max":1146,"o":"m 635 522 l 972 0 l 719 0 l 469 381 l 313 242 l 264 0 l 40 0 l 235 972 l 458 972 l 369 526 l 874 972 l 1146 972 l 635 522 m 971 1251 l 761 1051 l 569 1051 l 414 1251 l 568 1251 l 675 1147 l 810 1251 l 971 1251 z "},"Ķ":{"ha":1028,"x_min":40,"x_max":1146,"o":"m 635 522 l 972 0 l 719 0 l 469 381 l 313 242 l 264 0 l 40 0 l 235 972 l 458 972 l 369 526 l 874 972 l 1146 972 l 635 522 m 418 -101 q 487 -122 463 -101 q 511 -175 511 -143 q 502 -217 511 -197 q 468 -274 493 -237 l 400 -369 l 301 -369 l 358 -257 q 317 -196 317 -240 q 343 -128 317 -154 q 418 -101 369 -101 z "},"L":{"ha":839,"x_min":40,"x_max":790,"o":"m 235 972 l 461 972 l 303 183 l 790 183 l 753 0 l 40 0 l 235 972 z "},"Ǉ":{"ha":1632,"x_min":40,"x_max":1646,"o":"m 235 972 l 461 972 l 303 183 l 790 183 l 753 0 l 40 0 l 235 972 m 1101 -156 q 910 -118 990 -156 q 785 -10 829 -81 l 933 132 q 1104 29 997 29 q 1210 66 1169 29 q 1265 181 1250 103 l 1386 792 l 1046 792 l 1082 972 l 1646 972 l 1489 192 q 1358 -75 1453 6 q 1101 -156 1264 -156 z "},"Ĺ":{"ha":839,"x_min":40,"x_max":790,"o":"m 235 972 l 461 972 l 303 183 l 790 183 l 753 0 l 40 0 l 235 972 m 443 1251 l 682 1251 l 410 1051 l 235 1051 l 443 1251 z "},"Ľ":{"ha":839,"x_min":40,"x_max":893,"o":"m 235 972 l 461 972 l 303 183 l 790 183 l 753 0 l 40 0 l 235 972 m 731 1029 l 893 1029 l 808 750 l 675 750 l 731 1029 z "},"Ļ":{"ha":839,"x_min":40,"x_max":790,"o":"m 235 972 l 461 972 l 303 183 l 790 183 l 753 0 l 40 0 l 235 972 m 379 -101 q 448 -122 424 -101 q 472 -175 472 -143 q 463 -217 472 -197 q 429 -274 454 -237 l 361 -369 l 263 -369 l 319 -257 q 278 -196 278 -240 q 304 -128 278 -154 q 379 -101 331 -101 z "},"Ŀ":{"ha":839,"x_min":40,"x_max":808,"o":"m 235 972 l 461 972 l 303 183 l 790 183 l 753 0 l 40 0 l 235 972 m 683 457 q 603 488 635 457 q 571 568 571 519 q 608 662 571 625 q 697 699 644 699 q 777 667 746 699 q 808 586 808 636 q 772 493 808 529 q 683 457 735 457 z "},"Ḷ":{"ha":839,"x_min":40,"x_max":790,"o":"m 235 972 l 461 972 l 303 183 l 790 183 l 753 0 l 40 0 l 235 972 m 364 -292 q 299 -268 324 -292 q 275 -206 275 -244 q 307 -132 275 -162 q 381 -101 339 -101 q 444 -125 418 -101 q 469 -185 469 -149 q 440 -262 469 -233 q 364 -292 410 -292 z "},"ǈ":{"ha":1264,"x_min":40,"x_max":1311,"o":"m 235 972 l 461 972 l 303 183 l 790 183 l 753 0 l 40 0 l 235 972 m 768 -281 q 589 -239 660 -281 l 675 -82 q 765 -108 713 -108 q 835 -82 810 -108 q 872 1 861 -56 l 1022 747 l 1239 747 l 1090 7 q 768 -281 1033 -281 m 1167 851 q 1076 884 1111 851 q 1040 964 1040 917 q 1080 1056 1040 1019 q 1183 1093 1119 1093 q 1276 1062 1240 1093 q 1311 985 1311 1031 q 1271 888 1311 925 q 1167 851 1231 851 z "},"Ḻ":{"ha":839,"x_min":40,"x_max":790,"o":"m 235 972 l 461 972 l 303 183 l 790 183 l 753 0 l 40 0 l 235 972 m 128 -132 l 642 -132 l 619 -253 l 106 -253 l 128 -132 z "},"Ł":{"ha":857,"x_min":-18,"x_max":808,"o":"m 253 972 l 479 972 l 321 183 l 808 183 l 771 0 l 58 0 l 253 972 m -18 422 l 582 815 l 654 703 l 56 311 l -18 422 z "},"M":{"ha":1682,"x_min":40,"x_max":1631,"o":"m 1321 989 q 1548 915 1465 989 q 1631 701 1631 840 q 1619 597 1631 657 l 1500 0 l 1275 0 l 1392 590 q 1399 653 1399 628 q 1357 761 1399 725 q 1240 797 1315 797 q 1081 742 1147 797 q 993 576 1015 686 l 879 0 l 653 0 l 771 590 q 778 654 778 629 q 738 761 778 725 q 626 797 699 797 q 469 742 536 797 q 381 576 403 688 l 267 0 l 40 0 l 235 972 l 453 972 l 431 860 q 728 989 542 989 q 897 952 828 989 q 994 849 965 915 q 1321 989 1118 989 z "},"Ṃ":{"ha":1682,"x_min":40,"x_max":1631,"o":"m 1321 989 q 1548 915 1465 989 q 1631 701 1631 840 q 1619 597 1631 657 l 1500 0 l 1275 0 l 1392 590 q 1399 653 1399 628 q 1357 761 1399 725 q 1240 797 1315 797 q 1081 742 1147 797 q 993 576 1015 686 l 879 0 l 653 0 l 771 590 q 778 654 778 629 q 738 761 778 725 q 626 797 699 797 q 469 742 536 797 q 381 576 403 688 l 267 0 l 40 0 l 235 972 l 453 972 l 431 860 q 728 989 542 989 q 897 952 828 989 q 994 849 965 915 q 1321 989 1118 989 m 721 -292 q 656 -268 681 -292 q 632 -206 632 -244 q 664 -132 632 -162 q 738 -101 696 -101 q 801 -125 775 -101 q 826 -185 826 -149 q 797 -262 826 -233 q 721 -292 767 -292 z "},"N":{"ha":1106,"x_min":40,"x_max":1046,"o":"m 724 989 q 960 903 874 989 q 1046 664 1046 818 q 1033 544 1046 610 l 925 0 l 699 0 l 810 550 q 818 631 818 594 q 773 755 818 713 q 643 797 728 797 q 472 738 543 797 q 376 554 401 678 l 267 0 l 40 0 l 235 972 l 453 972 l 433 871 q 564 958 490 928 q 724 989 638 989 z "},"Ǌ":{"ha":1857,"x_min":40,"x_max":1871,"o":"m 724 989 q 960 903 874 989 q 1046 664 1046 818 q 1033 544 1046 610 l 925 0 l 699 0 l 810 550 q 818 631 818 594 q 773 755 818 713 q 643 797 728 797 q 472 738 543 797 q 376 554 401 678 l 267 0 l 40 0 l 235 972 l 453 972 l 433 871 q 564 958 490 928 q 724 989 638 989 m 1326 -156 q 1135 -118 1215 -156 q 1010 -10 1054 -81 l 1158 132 q 1329 29 1222 29 q 1435 66 1394 29 q 1490 181 1475 103 l 1611 792 l 1271 792 l 1307 972 l 1871 972 l 1714 192 q 1583 -75 1678 6 q 1326 -156 1489 -156 z "},"Ń":{"ha":1106,"x_min":40,"x_max":1046,"o":"m 724 989 q 960 903 874 989 q 1046 664 1046 818 q 1033 544 1046 610 l 925 0 l 699 0 l 810 550 q 818 631 818 594 q 773 755 818 713 q 643 797 728 797 q 472 738 543 797 q 376 554 401 678 l 267 0 l 40 0 l 235 972 l 453 972 l 433 871 q 564 958 490 928 q 724 989 638 989 m 771 1251 l 1010 1251 l 738 1051 l 563 1051 l 771 1251 z "},"Ň":{"ha":1106,"x_min":40,"x_max":1046,"o":"m 724 989 q 960 903 874 989 q 1046 664 1046 818 q 1033 544 1046 610 l 925 0 l 699 0 l 810 550 q 818 631 818 594 q 773 755 818 713 q 643 797 728 797 q 472 738 543 797 q 376 554 401 678 l 267 0 l 40 0 l 235 972 l 453 972 l 433 871 q 564 958 490 928 q 724 989 638 989 m 1001 1251 l 792 1051 l 600 1051 l 444 1251 l 599 1251 l 706 1147 l 840 1251 l 1001 1251 z "},"Ņ":{"ha":1106,"x_min":40,"x_max":1046,"o":"m 724 989 q 960 903 874 989 q 1046 664 1046 818 q 1033 544 1046 610 l 925 0 l 699 0 l 810 550 q 818 631 818 594 q 773 755 818 713 q 643 797 728 797 q 472 738 543 797 q 376 554 401 678 l 267 0 l 40 0 l 235 972 l 453 972 l 433 871 q 564 958 490 928 q 724 989 638 989 m 449 -101 q 517 -122 493 -101 q 542 -175 542 -143 q 533 -217 542 -197 q 499 -274 524 -237 l 431 -369 l 332 -369 l 389 -257 q 347 -196 347 -240 q 374 -128 347 -154 q 449 -101 400 -101 z "},"Ṅ":{"ha":1106,"x_min":40,"x_max":1046,"o":"m 724 989 q 960 903 874 989 q 1046 664 1046 818 q 1033 544 1046 610 l 925 0 l 699 0 l 810 550 q 818 631 818 594 q 773 755 818 713 q 643 797 728 797 q 472 738 543 797 q 376 554 401 678 l 267 0 l 40 0 l 235 972 l 453 972 l 433 871 q 564 958 490 928 q 724 989 638 989 m 708 1058 q 629 1088 660 1058 q 599 1161 599 1117 q 635 1256 599 1219 q 725 1293 671 1293 q 803 1264 774 1293 q 833 1189 833 1235 q 797 1095 833 1132 q 708 1058 761 1058 z "},"Ṇ":{"ha":1106,"x_min":40,"x_max":1046,"o":"m 724 989 q 960 903 874 989 q 1046 664 1046 818 q 1033 544 1046 610 l 925 0 l 699 0 l 810 550 q 818 631 818 594 q 773 755 818 713 q 643 797 728 797 q 472 738 543 797 q 376 554 401 678 l 267 0 l 40 0 l 235 972 l 453 972 l 433 871 q 564 958 490 928 q 724 989 638 989 m 433 -292 q 369 -268 393 -292 q 344 -206 344 -244 q 376 -132 344 -162 q 450 -101 408 -101 q 513 -125 488 -101 q 539 -185 539 -149 q 509 -262 539 -233 q 433 -292 479 -292 z "},"Ŋ":{"ha":1106,"x_min":40,"x_max":1046,"o":"m 724 989 q 960 903 874 989 q 1046 664 1046 818 q 1033 544 1046 610 l 943 93 q 804 -198 901 -115 q 546 -281 707 -281 q 394 -256 463 -281 q 282 -183 325 -231 l 407 -31 q 470 -78 432 -61 q 554 -96 508 -96 q 656 -58 618 -96 q 713 65 694 -21 l 810 550 q 818 631 818 594 q 773 755 818 713 q 643 797 728 797 q 472 738 543 797 q 376 554 401 678 l 267 0 l 40 0 l 235 972 l 453 972 l 433 871 q 564 958 490 928 q 724 989 638 989 z "},"ǋ":{"ha":1531,"x_min":40,"x_max":1578,"o":"m 724 989 q 960 903 874 989 q 1046 664 1046 818 q 1033 544 1046 610 l 925 0 l 699 0 l 810 550 q 818 631 818 594 q 773 755 818 713 q 643 797 728 797 q 472 738 543 797 q 376 554 401 678 l 267 0 l 40 0 l 235 972 l 453 972 l 433 871 q 564 958 490 928 q 724 989 638 989 m 1035 -281 q 856 -239 926 -281 l 942 -82 q 1032 -108 979 -108 q 1102 -82 1076 -108 q 1139 1 1128 -56 l 1289 747 l 1506 747 l 1357 7 q 1035 -281 1300 -281 m 1433 851 q 1342 884 1378 851 q 1307 964 1307 917 q 1347 1056 1307 1019 q 1450 1093 1386 1093 q 1542 1062 1507 1093 q 1578 985 1578 1031 q 1538 888 1578 925 q 1433 851 1497 851 z "},"Ṉ":{"ha":1106,"x_min":40,"x_max":1046,"o":"m 724 989 q 960 903 874 989 q 1046 664 1046 818 q 1033 544 1046 610 l 925 0 l 699 0 l 810 550 q 818 631 818 594 q 773 755 818 713 q 643 797 728 797 q 472 738 543 797 q 376 554 401 678 l 267 0 l 40 0 l 235 972 l 453 972 l 433 871 q 564 958 490 928 q 724 989 638 989 m 197 -132 l 711 -132 l 689 -253 l 175 -253 l 197 -132 z "},"Ñ":{"ha":1106,"x_min":40,"x_max":1046,"o":"m 724 989 q 960 903 874 989 q 1046 664 1046 818 q 1033 544 1046 610 l 925 0 l 699 0 l 810 550 q 818 631 818 594 q 773 755 818 713 q 643 797 728 797 q 472 738 543 797 q 376 554 401 678 l 267 0 l 40 0 l 235 972 l 453 972 l 433 871 q 564 958 490 928 q 724 989 638 989 m 808 1047 q 744 1061 771 1047 q 685 1100 717 1075 q 644 1127 658 1119 q 614 1135 631 1135 q 567 1114 586 1135 q 540 1057 547 1093 l 431 1057 q 494 1208 446 1156 q 615 1260 543 1260 q 678 1246 651 1260 q 738 1207 706 1232 q 777 1179 763 1188 q 808 1171 792 1171 q 856 1191 838 1171 q 882 1246 875 1211 l 992 1246 q 928 1099 976 1151 q 808 1047 881 1047 z "},"O":{"ha":1172,"x_min":71,"x_max":1146,"o":"m 544 -17 q 292 36 399 -17 q 128 185 185 89 q 71 406 71 281 q 147 703 71 571 q 359 913 222 836 q 672 989 496 989 q 925 936 818 989 q 1089 788 1032 883 q 1146 567 1146 692 q 1070 269 1146 401 q 858 60 994 136 q 544 -17 721 -17 m 564 175 q 751 226 671 175 q 875 364 832 278 q 918 554 918 450 q 849 731 918 665 q 653 797 779 797 q 465 746 546 797 q 342 608 385 694 q 299 418 299 522 q 368 241 299 307 q 564 175 438 175 z "},"Ó":{"ha":1172,"x_min":71,"x_max":1146,"o":"m 544 -17 q 292 36 399 -17 q 128 185 185 89 q 71 406 71 281 q 147 703 71 571 q 359 913 222 836 q 672 989 496 989 q 925 936 818 989 q 1089 788 1032 883 q 1146 567 1146 692 q 1070 269 1146 401 q 858 60 994 136 q 544 -17 721 -17 m 564 175 q 751 226 671 175 q 875 364 832 278 q 918 554 918 450 q 849 731 918 665 q 653 797 779 797 q 465 746 546 797 q 342 608 385 694 q 299 418 299 522 q 368 241 299 307 q 564 175 438 175 m 800 1251 l 1039 1251 l 767 1051 l 592 1051 l 800 1251 z "},"Ŏ":{"ha":1172,"x_min":71,"x_max":1146,"o":"m 544 -17 q 292 36 399 -17 q 128 185 185 89 q 71 406 71 281 q 147 703 71 571 q 359 913 222 836 q 672 989 496 989 q 925 936 818 989 q 1089 788 1032 883 q 1146 567 1146 692 q 1070 269 1146 401 q 858 60 994 136 q 544 -17 721 -17 m 564 175 q 751 226 671 175 q 875 364 832 278 q 918 554 918 450 q 849 731 918 665 q 653 797 779 797 q 465 746 546 797 q 342 608 385 694 q 299 418 299 522 q 368 241 299 307 q 564 175 438 175 m 733 1040 q 568 1092 633 1040 q 503 1231 503 1144 q 504 1251 503 1244 l 636 1251 q 665 1180 635 1207 q 746 1153 694 1153 q 832 1180 797 1153 q 875 1251 867 1207 l 1015 1251 q 921 1097 997 1154 q 733 1040 844 1040 z "},"Ô":{"ha":1172,"x_min":71,"x_max":1146,"o":"m 544 -17 q 292 36 399 -17 q 128 185 185 89 q 71 406 71 281 q 147 703 71 571 q 359 913 222 836 q 672 989 496 989 q 925 936 818 989 q 1089 788 1032 883 q 1146 567 1146 692 q 1070 269 1146 401 q 858 60 994 136 q 544 -17 721 -17 m 564 175 q 751 226 671 175 q 875 364 832 278 q 918 554 918 450 q 849 731 918 665 q 653 797 779 797 q 465 746 546 797 q 342 608 385 694 q 299 418 299 522 q 368 241 299 307 q 564 175 438 175 m 846 1051 l 739 1156 l 604 1051 l 442 1051 l 653 1251 l 843 1251 l 1000 1051 l 846 1051 z "},"Ố":{"ha":1172,"x_min":71,"x_max":1282,"o":"m 544 -17 q 292 36 399 -17 q 128 185 185 89 q 71 406 71 281 q 147 703 71 571 q 359 913 222 836 q 672 989 496 989 q 925 936 818 989 q 1089 788 1032 883 q 1146 567 1146 692 q 1070 269 1146 401 q 858 60 994 136 q 544 -17 721 -17 m 564 175 q 751 226 671 175 q 875 364 832 278 q 918 554 918 450 q 849 731 918 665 q 653 797 779 797 q 465 746 546 797 q 342 608 385 694 q 299 418 299 522 q 368 241 299 307 q 564 175 438 175 m 843 1051 l 736 1131 l 604 1051 l 442 1051 l 650 1210 l 838 1210 l 1000 1051 l 843 1051 m 1056 1353 l 1282 1353 l 1046 1185 l 883 1185 l 1056 1353 z "},"Ộ":{"ha":1172,"x_min":71,"x_max":1146,"o":"m 544 -17 q 292 36 399 -17 q 128 185 185 89 q 71 406 71 281 q 147 703 71 571 q 359 913 222 836 q 672 989 496 989 q 925 936 818 989 q 1089 788 1032 883 q 1146 567 1146 692 q 1070 269 1146 401 q 858 60 994 136 q 544 -17 721 -17 m 564 175 q 751 226 671 175 q 875 364 832 278 q 918 554 918 450 q 849 731 918 665 q 653 797 779 797 q 465 746 546 797 q 342 608 385 694 q 299 418 299 522 q 368 241 299 307 q 564 175 438 175 m 463 -292 q 398 -268 422 -292 q 374 -206 374 -244 q 406 -132 374 -162 q 479 -101 438 -101 q 542 -125 517 -101 q 568 -185 568 -149 q 538 -262 568 -233 q 463 -292 508 -292 m 846 1051 l 739 1156 l 604 1051 l 442 1051 l 653 1251 l 843 1251 l 1000 1051 l 846 1051 z "},"Ồ":{"ha":1172,"x_min":71,"x_max":1146,"o":"m 544 -17 q 292 36 399 -17 q 128 185 185 89 q 71 406 71 281 q 147 703 71 571 q 359 913 222 836 q 672 989 496 989 q 925 936 818 989 q 1089 788 1032 883 q 1146 567 1146 692 q 1070 269 1146 401 q 858 60 994 136 q 544 -17 721 -17 m 564 175 q 751 226 671 175 q 875 364 832 278 q 918 554 918 450 q 849 731 918 665 q 653 797 779 797 q 465 746 546 797 q 342 608 385 694 q 299 418 299 522 q 368 241 299 307 q 564 175 438 175 m 843 1051 l 736 1131 l 604 1051 l 442 1051 l 650 1210 l 838 1210 l 1000 1051 l 843 1051 m 785 1353 l 1007 1353 l 1126 1185 l 969 1185 l 785 1353 z "},"Ổ":{"ha":1172,"x_min":71,"x_max":1146,"o":"m 544 -17 q 292 36 399 -17 q 128 185 185 89 q 71 406 71 281 q 147 703 71 571 q 359 913 222 836 q 672 989 496 989 q 925 936 818 989 q 1089 788 1032 883 q 1146 567 1146 692 q 1070 269 1146 401 q 858 60 994 136 q 544 -17 721 -17 m 564 175 q 751 226 671 175 q 875 364 832 278 q 918 554 918 450 q 849 731 918 665 q 653 797 779 797 q 465 746 546 797 q 342 608 385 694 q 299 418 299 522 q 368 241 299 307 q 564 175 438 175 m 843 1051 l 736 1131 l 604 1051 l 442 1051 l 650 1210 l 838 1210 l 1000 1051 l 843 1051 m 926 1210 q 986 1275 986 1236 q 976 1299 986 1290 q 946 1308 965 1308 q 881 1292 914 1308 l 854 1360 q 971 1389 908 1389 q 1056 1363 1024 1389 q 1088 1293 1088 1336 q 1056 1213 1088 1247 q 974 1158 1025 1178 l 926 1210 z "},"Ỗ":{"ha":1172,"x_min":71,"x_max":1146,"o":"m 544 -17 q 292 36 399 -17 q 128 185 185 89 q 71 406 71 281 q 147 703 71 571 q 359 913 222 836 q 672 989 496 989 q 925 936 818 989 q 1089 788 1032 883 q 1146 567 1146 692 q 1070 269 1146 401 q 858 60 994 136 q 544 -17 721 -17 m 564 175 q 751 226 671 175 q 875 364 832 278 q 918 554 918 450 q 849 731 918 665 q 653 797 779 797 q 465 746 546 797 q 342 608 385 694 q 299 418 299 522 q 368 241 299 307 q 564 175 438 175 m 843 1051 l 736 1131 l 604 1051 l 442 1051 l 650 1210 l 838 1210 l 1000 1051 l 843 1051 m 869 1258 q 806 1270 833 1258 q 749 1303 779 1282 q 688 1331 711 1331 q 642 1313 660 1331 q 618 1267 624 1296 l 506 1267 q 566 1395 518 1350 q 688 1440 614 1440 q 751 1428 724 1440 q 807 1396 778 1417 q 842 1375 828 1382 q 871 1368 856 1368 q 917 1385 899 1368 q 943 1431 936 1403 l 1051 1431 q 992 1304 1039 1350 q 869 1258 944 1258 z "},"Ȍ":{"ha":1172,"x_min":71,"x_max":1146,"o":"m 544 -17 q 292 36 399 -17 q 128 185 185 89 q 71 406 71 281 q 147 703 71 571 q 359 913 222 836 q 672 989 496 989 q 925 936 818 989 q 1089 788 1032 883 q 1146 567 1146 692 q 1070 269 1146 401 q 858 60 994 136 q 544 -17 721 -17 m 564 175 q 751 226 671 175 q 875 364 832 278 q 918 554 918 450 q 849 731 918 665 q 653 797 779 797 q 465 746 546 797 q 342 608 385 694 q 299 418 299 522 q 368 241 299 307 q 564 175 438 175 m 400 1251 l 594 1251 l 656 1051 l 506 1051 l 400 1251 m 681 1251 l 875 1251 l 936 1051 l 786 1051 l 681 1251 z "},"Ö":{"ha":1172,"x_min":71,"x_max":1146,"o":"m 544 -17 q 292 36 399 -17 q 128 185 185 89 q 71 406 71 281 q 147 703 71 571 q 359 913 222 836 q 672 989 496 989 q 925 936 818 989 q 1089 788 1032 883 q 1146 567 1146 692 q 1070 269 1146 401 q 858 60 994 136 q 544 -17 721 -17 m 564 175 q 751 226 671 175 q 875 364 832 278 q 918 554 918 450 q 849 731 918 665 q 653 797 779 797 q 465 746 546 797 q 342 608 385 694 q 299 418 299 522 q 368 241 299 307 q 564 175 438 175 m 593 1058 q 528 1082 554 1058 q 503 1144 503 1106 q 533 1220 503 1190 q 606 1250 564 1250 q 671 1226 644 1250 q 697 1164 697 1203 q 666 1088 697 1118 q 593 1058 635 1058 m 875 1058 q 810 1082 836 1058 q 785 1144 785 1106 q 815 1221 785 1192 q 888 1250 844 1250 q 952 1226 926 1250 q 978 1164 978 1203 q 947 1088 978 1118 q 875 1058 917 1058 z "},"Ȫ":{"ha":1172,"x_min":71,"x_max":1146,"o":"m 544 -17 q 292 36 399 -17 q 128 185 185 89 q 71 406 71 281 q 147 703 71 571 q 359 913 222 836 q 672 989 496 989 q 925 936 818 989 q 1089 788 1032 883 q 1146 567 1146 692 q 1070 269 1146 401 q 858 60 994 136 q 544 -17 721 -17 m 564 175 q 751 226 671 175 q 875 364 832 278 q 918 554 918 450 q 849 731 918 665 q 653 797 779 797 q 465 746 546 797 q 342 608 385 694 q 299 418 299 522 q 368 241 299 307 q 564 175 438 175 m 599 1058 q 537 1081 561 1058 q 513 1140 513 1103 q 541 1213 513 1185 q 610 1242 569 1242 q 672 1218 647 1242 q 696 1157 696 1194 q 667 1086 696 1114 q 599 1058 639 1058 m 869 1058 q 808 1081 832 1058 q 783 1140 783 1103 q 813 1213 783 1183 q 882 1242 842 1242 q 944 1218 919 1242 q 968 1157 968 1194 q 939 1086 968 1114 q 869 1058 910 1058 m 535 1413 l 1049 1413 l 1026 1297 l 513 1297 l 535 1413 z "},"Ȱ":{"ha":1172,"x_min":71,"x_max":1146,"o":"m 544 -17 q 292 36 399 -17 q 128 185 185 89 q 71 406 71 281 q 147 703 71 571 q 359 913 222 836 q 672 989 496 989 q 925 936 818 989 q 1089 788 1032 883 q 1146 567 1146 692 q 1070 269 1146 401 q 858 60 994 136 q 544 -17 721 -17 m 564 175 q 751 226 671 175 q 875 364 832 278 q 918 554 918 450 q 849 731 918 665 q 653 797 779 797 q 465 746 546 797 q 342 608 385 694 q 299 418 299 522 q 368 241 299 307 q 564 175 438 175 m 733 1058 q 669 1082 694 1058 q 644 1146 644 1106 q 674 1221 644 1192 q 747 1250 704 1250 q 812 1226 786 1250 q 838 1161 838 1201 q 807 1088 838 1117 q 733 1058 776 1058 m 538 1422 l 1051 1422 l 1029 1307 l 515 1307 l 538 1422 z "},"Ọ":{"ha":1172,"x_min":71,"x_max":1146,"o":"m 544 -17 q 292 36 399 -17 q 128 185 185 89 q 71 406 71 281 q 147 703 71 571 q 359 913 222 836 q 672 989 496 989 q 925 936 818 989 q 1089 788 1032 883 q 1146 567 1146 692 q 1070 269 1146 401 q 858 60 994 136 q 544 -17 721 -17 m 564 175 q 751 226 671 175 q 875 364 832 278 q 918 554 918 450 q 849 731 918 665 q 653 797 779 797 q 465 746 546 797 q 342 608 385 694 q 299 418 299 522 q 368 241 299 307 q 564 175 438 175 m 463 -292 q 398 -268 422 -292 q 374 -206 374 -244 q 406 -132 374 -162 q 479 -101 438 -101 q 542 -125 517 -101 q 568 -185 568 -149 q 538 -262 568 -233 q 463 -292 508 -292 z "},"Ò":{"ha":1172,"x_min":71,"x_max":1146,"o":"m 544 -17 q 292 36 399 -17 q 128 185 185 89 q 71 406 71 281 q 147 703 71 571 q 359 913 222 836 q 672 989 496 989 q 925 936 818 989 q 1089 788 1032 883 q 1146 567 1146 692 q 1070 269 1146 401 q 858 60 994 136 q 544 -17 721 -17 m 564 175 q 751 226 671 175 q 875 364 832 278 q 918 554 918 450 q 849 731 918 665 q 653 797 779 797 q 465 746 546 797 q 342 608 385 694 q 299 418 299 522 q 368 241 299 307 q 564 175 438 175 m 467 1251 l 699 1251 l 846 1051 l 678 1051 l 467 1251 z "},"Ỏ":{"ha":1172,"x_min":71,"x_max":1146,"o":"m 544 -17 q 292 36 399 -17 q 128 185 185 89 q 71 406 71 281 q 147 703 71 571 q 359 913 222 836 q 672 989 496 989 q 925 936 818 989 q 1089 788 1032 883 q 1146 567 1146 692 q 1070 269 1146 401 q 858 60 994 136 q 544 -17 721 -17 m 564 175 q 751 226 671 175 q 875 364 832 278 q 918 554 918 450 q 849 731 918 665 q 653 797 779 797 q 465 746 546 797 q 342 608 385 694 q 299 418 299 522 q 368 241 299 307 q 564 175 438 175 m 711 1110 q 794 1203 794 1144 q 778 1240 794 1226 q 736 1254 763 1254 q 653 1226 694 1254 l 615 1315 q 772 1361 679 1361 q 882 1326 842 1361 q 922 1232 922 1292 q 768 1036 922 1104 l 711 1110 z "},"Ơ":{"ha":1172,"x_min":71,"x_max":1242,"o":"m 1242 1050 q 1192 903 1242 961 q 1060 829 1143 844 q 1146 567 1146 722 q 1070 269 1146 401 q 858 60 994 136 q 544 -17 721 -17 q 292 36 399 -17 q 128 185 185 89 q 71 406 71 281 q 147 703 71 571 q 359 913 222 836 q 672 989 496 989 q 767 984 721 989 q 851 974 813 979 q 975 963 935 963 q 1064 990 1032 963 q 1096 1060 1096 1017 q 1068 1143 1096 1108 l 1197 1190 q 1242 1050 1242 1129 m 564 175 q 751 226 671 175 q 875 364 832 278 q 918 554 918 450 q 849 731 918 665 q 653 797 779 797 q 465 746 546 797 q 342 608 385 694 q 299 418 299 522 q 368 241 299 307 q 564 175 438 175 z "},"Ớ":{"ha":1172,"x_min":71,"x_max":1242,"o":"m 1242 1050 q 1192 903 1242 961 q 1060 829 1143 844 q 1146 567 1146 722 q 1070 269 1146 401 q 858 60 994 136 q 544 -17 721 -17 q 292 36 399 -17 q 128 185 185 89 q 71 406 71 281 q 147 703 71 571 q 359 913 222 836 q 672 989 496 989 q 767 984 721 989 q 851 974 813 979 q 975 963 935 963 q 1064 990 1032 963 q 1096 1060 1096 1017 q 1068 1143 1096 1108 l 1197 1190 q 1242 1050 1242 1129 m 564 175 q 751 226 671 175 q 875 364 832 278 q 918 554 918 450 q 849 731 918 665 q 653 797 779 797 q 465 746 546 797 q 342 608 385 694 q 299 418 299 522 q 368 241 299 307 q 564 175 438 175 m 800 1251 l 1039 1251 l 767 1051 l 592 1051 l 800 1251 z "},"Ợ":{"ha":1172,"x_min":71,"x_max":1242,"o":"m 1242 1050 q 1192 903 1242 961 q 1060 829 1143 844 q 1146 567 1146 722 q 1070 269 1146 401 q 858 60 994 136 q 544 -17 721 -17 q 292 36 399 -17 q 128 185 185 89 q 71 406 71 281 q 147 703 71 571 q 359 913 222 836 q 672 989 496 989 q 767 984 721 989 q 851 974 813 979 q 975 963 935 963 q 1064 990 1032 963 q 1096 1060 1096 1017 q 1068 1143 1096 1108 l 1197 1190 q 1242 1050 1242 1129 m 564 175 q 751 226 671 175 q 875 364 832 278 q 918 554 918 450 q 849 731 918 665 q 653 797 779 797 q 465 746 546 797 q 342 608 385 694 q 299 418 299 522 q 368 241 299 307 q 564 175 438 175 m 463 -292 q 398 -268 422 -292 q 374 -206 374 -244 q 406 -132 374 -162 q 479 -101 438 -101 q 542 -125 517 -101 q 568 -185 568 -149 q 538 -262 568 -233 q 463 -292 508 -292 z "},"Ờ":{"ha":1172,"x_min":71,"x_max":1242,"o":"m 1242 1050 q 1192 903 1242 961 q 1060 829 1143 844 q 1146 567 1146 722 q 1070 269 1146 401 q 858 60 994 136 q 544 -17 721 -17 q 292 36 399 -17 q 128 185 185 89 q 71 406 71 281 q 147 703 71 571 q 359 913 222 836 q 672 989 496 989 q 767 984 721 989 q 851 974 813 979 q 975 963 935 963 q 1064 990 1032 963 q 1096 1060 1096 1017 q 1068 1143 1096 1108 l 1197 1190 q 1242 1050 1242 1129 m 564 175 q 751 226 671 175 q 875 364 832 278 q 918 554 918 450 q 849 731 918 665 q 653 797 779 797 q 465 746 546 797 q 342 608 385 694 q 299 418 299 522 q 368 241 299 307 q 564 175 438 175 m 467 1251 l 699 1251 l 846 1051 l 678 1051 l 467 1251 z "},"Ở":{"ha":1172,"x_min":71,"x_max":1242,"o":"m 1242 1050 q 1192 903 1242 961 q 1060 829 1143 844 q 1146 567 1146 722 q 1070 269 1146 401 q 858 60 994 136 q 544 -17 721 -17 q 292 36 399 -17 q 128 185 185 89 q 71 406 71 281 q 147 703 71 571 q 359 913 222 836 q 672 989 496 989 q 767 984 721 989 q 851 974 813 979 q 975 963 935 963 q 1064 990 1032 963 q 1096 1060 1096 1017 q 1068 1143 1096 1108 l 1197 1190 q 1242 1050 1242 1129 m 564 175 q 751 226 671 175 q 875 364 832 278 q 918 554 918 450 q 849 731 918 665 q 653 797 779 797 q 465 746 546 797 q 342 608 385 694 q 299 418 299 522 q 368 241 299 307 q 564 175 438 175 m 711 1110 q 794 1203 794 1144 q 778 1240 794 1226 q 736 1254 763 1254 q 653 1226 694 1254 l 615 1315 q 772 1361 679 1361 q 882 1326 842 1361 q 922 1232 922 1292 q 768 1036 922 1104 l 711 1110 z "},"Ỡ":{"ha":1172,"x_min":71,"x_max":1242,"o":"m 1242 1050 q 1192 903 1242 961 q 1060 829 1143 844 q 1146 567 1146 722 q 1070 269 1146 401 q 858 60 994 136 q 544 -17 721 -17 q 292 36 399 -17 q 128 185 185 89 q 71 406 71 281 q 147 703 71 571 q 359 913 222 836 q 672 989 496 989 q 767 984 721 989 q 851 974 813 979 q 975 963 935 963 q 1064 990 1032 963 q 1096 1060 1096 1017 q 1068 1143 1096 1108 l 1197 1190 q 1242 1050 1242 1129 m 564 175 q 751 226 671 175 q 875 364 832 278 q 918 554 918 450 q 849 731 918 665 q 653 797 779 797 q 465 746 546 797 q 342 608 385 694 q 299 418 299 522 q 368 241 299 307 q 564 175 438 175 m 838 1047 q 773 1061 800 1047 q 714 1100 746 1075 q 674 1127 688 1119 q 643 1135 660 1135 q 596 1114 615 1135 q 569 1057 576 1093 l 460 1057 q 524 1208 475 1156 q 644 1260 572 1260 q 708 1246 681 1260 q 767 1207 735 1232 q 806 1179 792 1188 q 838 1171 821 1171 q 885 1191 867 1171 q 911 1246 904 1211 l 1021 1246 q 958 1099 1006 1151 q 838 1047 910 1047 z "},"Ő":{"ha":1172,"x_min":71,"x_max":1146,"o":"m 544 -17 q 292 36 399 -17 q 128 185 185 89 q 71 406 71 281 q 147 703 71 571 q 359 913 222 836 q 672 989 496 989 q 925 936 818 989 q 1089 788 1032 883 q 1146 567 1146 692 q 1070 269 1146 401 q 858 60 994 136 q 544 -17 721 -17 m 564 175 q 751 226 671 175 q 875 364 832 278 q 918 554 918 450 q 849 731 918 665 q 653 797 779 797 q 465 746 546 797 q 342 608 385 694 q 299 418 299 522 q 368 241 299 307 q 564 175 438 175 m 621 1251 l 829 1251 l 663 1051 l 499 1051 l 621 1251 m 901 1251 l 1110 1251 l 942 1051 l 781 1051 l 901 1251 z "},"Ȏ":{"ha":1172,"x_min":71,"x_max":1146,"o":"m 544 -17 q 292 36 399 -17 q 128 185 185 89 q 71 406 71 281 q 147 703 71 571 q 359 913 222 836 q 672 989 496 989 q 925 936 818 989 q 1089 788 1032 883 q 1146 567 1146 692 q 1070 269 1146 401 q 858 60 994 136 q 544 -17 721 -17 m 564 175 q 751 226 671 175 q 875 364 832 278 q 918 554 918 450 q 849 731 918 665 q 653 797 779 797 q 465 746 546 797 q 342 608 385 694 q 299 418 299 522 q 368 241 299 307 q 564 175 438 175 m 464 1051 q 559 1206 482 1149 q 747 1264 636 1264 q 919 1206 854 1264 q 976 1051 985 1147 l 843 1051 q 816 1124 846 1097 q 735 1151 786 1151 q 649 1124 683 1151 q 604 1051 614 1097 l 464 1051 z "},"Ō":{"ha":1172,"x_min":71,"x_max":1146,"o":"m 544 -17 q 292 36 399 -17 q 128 185 185 89 q 71 406 71 281 q 147 703 71 571 q 359 913 222 836 q 672 989 496 989 q 925 936 818 989 q 1089 788 1032 883 q 1146 567 1146 692 q 1070 269 1146 401 q 858 60 994 136 q 544 -17 721 -17 m 564 175 q 751 226 671 175 q 875 364 832 278 q 918 554 918 450 q 849 731 918 665 q 653 797 779 797 q 465 746 546 797 q 342 608 385 694 q 299 418 299 522 q 368 241 299 307 q 564 175 438 175 m 496 1213 l 1008 1213 l 985 1090 l 472 1090 l 496 1213 z "},"Ṓ":{"ha":1172,"x_min":71,"x_max":1146,"o":"m 544 -17 q 292 36 399 -17 q 128 185 185 89 q 71 406 71 281 q 147 703 71 571 q 359 913 222 836 q 672 989 496 989 q 925 936 818 989 q 1089 788 1032 883 q 1146 567 1146 692 q 1070 269 1146 401 q 858 60 994 136 q 544 -17 721 -17 m 564 175 q 751 226 671 175 q 875 364 832 278 q 918 554 918 450 q 849 731 918 665 q 653 797 779 797 q 465 746 546 797 q 342 608 385 694 q 299 418 299 522 q 368 241 299 307 q 564 175 438 175 m 490 1189 l 1004 1189 l 982 1074 l 468 1074 l 490 1189 m 814 1443 l 1040 1443 l 804 1275 l 642 1275 l 814 1443 z "},"Ṑ":{"ha":1172,"x_min":71,"x_max":1146,"o":"m 544 -17 q 292 36 399 -17 q 128 185 185 89 q 71 406 71 281 q 147 703 71 571 q 359 913 222 836 q 672 989 496 989 q 925 936 818 989 q 1089 788 1032 883 q 1146 567 1146 692 q 1070 269 1146 401 q 858 60 994 136 q 544 -17 721 -17 m 564 175 q 751 226 671 175 q 875 364 832 278 q 918 554 918 450 q 849 731 918 665 q 653 797 779 797 q 465 746 546 797 q 342 608 385 694 q 299 418 299 522 q 368 241 299 307 q 564 175 438 175 m 490 1189 l 1004 1189 l 982 1074 l 468 1074 l 490 1189 m 543 1443 l 765 1443 l 885 1275 l 728 1275 l 543 1443 z "},"Ǫ":{"ha":1172,"x_min":71,"x_max":1146,"o":"m 672 989 q 925 936 818 989 q 1089 788 1032 883 q 1146 567 1146 692 q 1088 304 1146 424 q 925 105 1031 185 q 682 -3 819 25 q 508 -69 561 -28 q 456 -154 456 -110 q 474 -197 456 -182 q 524 -212 492 -212 q 611 -192 569 -212 l 628 -290 q 488 -322 561 -322 q 360 -285 408 -322 q 313 -185 313 -249 q 426 -7 313 -79 q 165 133 258 24 q 71 406 71 243 q 147 703 71 571 q 359 913 222 836 q 672 989 496 989 m 564 175 q 751 226 671 175 q 875 364 832 278 q 918 554 918 450 q 849 731 918 665 q 653 797 779 797 q 465 746 546 797 q 342 608 385 694 q 299 418 299 522 q 368 241 299 307 q 564 175 438 175 z "},"Ø":{"ha":1172,"x_min":1,"x_max":1214,"o":"m 544 -17 q 292 36 399 -17 q 128 185 185 89 q 71 406 71 281 q 147 703 71 571 q 359 913 222 836 q 672 989 496 989 q 925 936 818 989 q 1089 788 1032 883 q 1146 567 1146 692 q 1070 269 1146 401 q 858 60 994 136 q 544 -17 721 -17 m 564 175 q 751 226 671 175 q 875 364 832 278 q 918 554 918 450 q 849 731 918 665 q 653 797 779 797 q 465 746 546 797 q 342 608 385 694 q 299 418 299 522 q 368 241 299 307 q 564 175 438 175 m 1064 1069 l 1214 1069 l 153 -97 l 1 -97 l 1064 1069 z "},"Ǿ":{"ha":1172,"x_min":1,"x_max":1214,"o":"m 544 -17 q 292 36 399 -17 q 128 185 185 89 q 71 406 71 281 q 147 703 71 571 q 359 913 222 836 q 672 989 496 989 q 925 936 818 989 q 1089 788 1032 883 q 1146 567 1146 692 q 1070 269 1146 401 q 858 60 994 136 q 544 -17 721 -17 m 564 175 q 751 226 671 175 q 875 364 832 278 q 918 554 918 450 q 849 731 918 665 q 653 797 779 797 q 465 746 546 797 q 342 608 385 694 q 299 418 299 522 q 368 241 299 307 q 564 175 438 175 m 1064 1069 l 1214 1069 l 153 -97 l 1 -97 l 1064 1069 m 800 1251 l 1039 1251 l 767 1051 l 592 1051 l 800 1251 z "},"Õ":{"ha":1172,"x_min":71,"x_max":1146,"o":"m 544 -17 q 292 36 399 -17 q 128 185 185 89 q 71 406 71 281 q 147 703 71 571 q 359 913 222 836 q 672 989 496 989 q 925 936 818 989 q 1089 788 1032 883 q 1146 567 1146 692 q 1070 269 1146 401 q 858 60 994 136 q 544 -17 721 -17 m 564 175 q 751 226 671 175 q 875 364 832 278 q 918 554 918 450 q 849 731 918 665 q 653 797 779 797 q 465 746 546 797 q 342 608 385 694 q 299 418 299 522 q 368 241 299 307 q 564 175 438 175 m 838 1047 q 773 1061 800 1047 q 714 1100 746 1075 q 674 1127 688 1119 q 643 1135 660 1135 q 596 1114 615 1135 q 569 1057 576 1093 l 460 1057 q 524 1208 475 1156 q 644 1260 572 1260 q 708 1246 681 1260 q 767 1207 735 1232 q 806 1179 792 1188 q 838 1171 821 1171 q 885 1191 867 1171 q 911 1246 904 1211 l 1021 1246 q 958 1099 1006 1151 q 838 1047 910 1047 z "},"Ṍ":{"ha":1172,"x_min":71,"x_max":1146,"o":"m 544 -17 q 292 36 399 -17 q 128 185 185 89 q 71 406 71 281 q 147 703 71 571 q 359 913 222 836 q 672 989 496 989 q 925 936 818 989 q 1089 788 1032 883 q 1146 567 1146 692 q 1070 269 1146 401 q 858 60 994 136 q 544 -17 721 -17 m 564 175 q 751 226 671 175 q 875 364 832 278 q 918 554 918 450 q 849 731 918 665 q 653 797 779 797 q 465 746 546 797 q 342 608 385 694 q 299 418 299 522 q 368 241 299 307 q 564 175 438 175 m 829 1049 q 766 1060 793 1049 q 708 1093 739 1072 q 647 1121 671 1121 q 601 1103 619 1121 q 578 1057 583 1086 l 465 1057 q 526 1185 478 1140 q 647 1231 574 1231 q 710 1219 683 1231 q 767 1186 738 1207 q 801 1165 788 1172 q 831 1158 815 1158 q 877 1176 858 1158 q 903 1221 896 1193 l 1011 1221 q 951 1094 999 1140 q 829 1049 904 1049 m 814 1443 l 1040 1443 l 804 1275 l 642 1275 l 814 1443 z "},"Ṏ":{"ha":1172,"x_min":71,"x_max":1146,"o":"m 544 -17 q 292 36 399 -17 q 128 185 185 89 q 71 406 71 281 q 147 703 71 571 q 359 913 222 836 q 672 989 496 989 q 925 936 818 989 q 1089 788 1032 883 q 1146 567 1146 692 q 1070 269 1146 401 q 858 60 994 136 q 544 -17 721 -17 m 564 175 q 751 226 671 175 q 875 364 832 278 q 918 554 918 450 q 849 731 918 665 q 653 797 779 797 q 465 746 546 797 q 342 608 385 694 q 299 418 299 522 q 368 241 299 307 q 564 175 438 175 m 829 1049 q 766 1060 793 1049 q 708 1093 739 1072 q 647 1121 671 1121 q 601 1103 619 1121 q 578 1057 583 1086 l 465 1057 q 526 1185 478 1140 q 647 1231 574 1231 q 710 1219 683 1231 q 767 1186 738 1207 q 801 1165 788 1172 q 831 1158 815 1158 q 877 1176 858 1158 q 903 1221 896 1193 l 1011 1221 q 951 1094 999 1140 q 829 1049 904 1049 m 643 1282 q 581 1304 606 1282 q 557 1364 557 1326 q 585 1437 557 1408 q 654 1465 614 1465 q 716 1442 692 1465 q 740 1381 740 1418 q 712 1310 740 1338 q 643 1282 683 1282 m 914 1282 q 852 1304 876 1282 q 828 1364 828 1326 q 857 1436 828 1407 q 926 1465 886 1465 q 988 1442 964 1465 q 1013 1381 1013 1418 q 983 1310 1013 1338 q 914 1282 954 1282 z "},"Ȭ":{"ha":1172,"x_min":71,"x_max":1146,"o":"m 544 -17 q 292 36 399 -17 q 128 185 185 89 q 71 406 71 281 q 147 703 71 571 q 359 913 222 836 q 672 989 496 989 q 925 936 818 989 q 1089 788 1032 883 q 1146 567 1146 692 q 1070 269 1146 401 q 858 60 994 136 q 544 -17 721 -17 m 564 175 q 751 226 671 175 q 875 364 832 278 q 918 554 918 450 q 849 731 918 665 q 653 797 779 797 q 465 746 546 797 q 342 608 385 694 q 299 418 299 522 q 368 241 299 307 q 564 175 438 175 m 829 1049 q 766 1060 793 1049 q 708 1093 739 1072 q 647 1121 671 1121 q 601 1103 619 1121 q 578 1057 583 1086 l 465 1057 q 526 1185 478 1140 q 647 1231 574 1231 q 710 1219 683 1231 q 767 1186 738 1207 q 801 1165 788 1172 q 831 1158 815 1158 q 877 1176 858 1158 q 903 1221 896 1193 l 1011 1221 q 951 1094 999 1140 q 829 1049 904 1049 m 535 1413 l 1049 1413 l 1026 1297 l 513 1297 l 535 1413 z "},"Œ":{"ha":1578,"x_min":71,"x_max":1615,"o":"m 1068 792 l 1026 581 l 1478 581 l 1443 406 l 990 406 l 946 181 l 1476 181 l 1439 0 l 550 0 q 294 49 403 0 q 128 190 186 99 q 71 406 71 282 q 147 703 71 575 q 361 902 224 832 q 676 972 499 972 l 1615 972 l 1579 792 l 1068 792 m 724 185 l 843 788 l 669 788 q 472 740 556 788 q 343 608 388 692 q 299 418 299 524 q 369 247 299 308 q 575 185 440 185 l 724 185 z "},"P":{"ha":1017,"x_min":40,"x_max":1008,"o":"m 628 972 q 909 892 810 972 q 1008 669 1008 813 q 951 456 1008 547 q 787 317 893 365 q 536 268 681 268 l 319 268 l 267 0 l 40 0 l 235 972 l 628 972 m 546 451 q 719 503 658 451 q 781 650 781 554 q 734 754 781 719 q 600 789 688 789 l 424 789 l 356 451 l 546 451 z "},"Þ":{"ha":1017,"x_min":40,"x_max":988,"o":"m 611 865 q 889 786 790 865 q 988 563 988 707 q 930 350 988 440 q 766 210 872 260 q 515 161 660 161 l 299 161 l 267 0 l 40 0 l 235 972 l 461 972 l 440 865 l 611 865 m 525 344 q 699 395 638 344 q 760 542 760 446 q 713 647 760 611 q 579 682 667 682 l 403 682 l 336 344 l 525 344 z "},"Q":{"ha":1172,"x_min":71,"x_max":1146,"o":"m 1146 567 q 1081 288 1146 414 q 897 83 1015 163 q 622 -12 778 4 l 586 -187 l 361 -187 l 399 -1 q 158 143 244 35 q 71 406 71 251 q 147 703 71 571 q 359 913 222 836 q 672 989 496 989 q 925 936 818 989 q 1089 788 1032 883 q 1146 567 1146 692 m 650 185 q 846 317 774 214 q 918 554 918 419 q 849 731 918 665 q 653 797 779 797 q 465 746 546 797 q 342 608 385 694 q 299 418 299 522 q 336 280 299 339 q 444 194 374 221 l 483 390 l 692 390 l 650 185 z "},"R":{"ha":1021,"x_min":40,"x_max":1011,"o":"m 1011 671 q 938 438 1011 535 q 733 300 864 340 l 903 0 l 665 0 l 513 272 l 321 272 l 267 0 l 40 0 l 235 972 l 631 972 q 911 893 811 972 q 1011 671 1011 814 m 547 451 q 722 503 660 451 q 783 650 783 554 q 736 754 783 719 q 601 789 689 789 l 424 789 l 356 451 l 547 451 z "},"Ŕ":{"ha":1021,"x_min":40,"x_max":1011,"o":"m 1011 671 q 938 438 1011 535 q 733 300 864 340 l 903 0 l 665 0 l 513 272 l 321 272 l 267 0 l 40 0 l 235 972 l 631 972 q 911 893 811 972 q 1011 671 1011 814 m 547 451 q 722 503 660 451 q 783 650 783 554 q 736 754 783 719 q 601 789 689 789 l 424 789 l 356 451 l 547 451 m 733 1251 l 972 1251 l 700 1051 l 525 1051 l 733 1251 z "},"Ř":{"ha":1021,"x_min":40,"x_max":1011,"o":"m 1011 671 q 938 438 1011 535 q 733 300 864 340 l 903 0 l 665 0 l 513 272 l 321 272 l 267 0 l 40 0 l 235 972 l 631 972 q 911 893 811 972 q 1011 671 1011 814 m 547 451 q 722 503 660 451 q 783 650 783 554 q 736 754 783 719 q 601 789 689 789 l 424 789 l 356 451 l 547 451 m 964 1251 l 754 1051 l 563 1051 l 407 1251 l 561 1251 l 668 1147 l 803 1251 l 964 1251 z "},"Ŗ":{"ha":1021,"x_min":40,"x_max":1011,"o":"m 1011 671 q 938 438 1011 535 q 733 300 864 340 l 903 0 l 665 0 l 513 272 l 321 272 l 267 0 l 40 0 l 235 972 l 631 972 q 911 893 811 972 q 1011 671 1011 814 m 547 451 q 722 503 660 451 q 783 650 783 554 q 736 754 783 719 q 601 789 689 789 l 424 789 l 356 451 l 547 451 m 411 -101 q 480 -122 456 -101 q 504 -175 504 -143 q 495 -217 504 -197 q 461 -274 486 -237 l 393 -369 l 294 -369 l 351 -257 q 310 -196 310 -240 q 336 -128 310 -154 q 411 -101 363 -101 z "},"Ȑ":{"ha":1021,"x_min":40,"x_max":1011,"o":"m 1011 671 q 938 438 1011 535 q 733 300 864 340 l 903 0 l 665 0 l 513 272 l 321 272 l 267 0 l 40 0 l 235 972 l 631 972 q 911 893 811 972 q 1011 671 1011 814 m 547 451 q 722 503 660 451 q 783 650 783 554 q 736 754 783 719 q 601 789 689 789 l 424 789 l 356 451 l 547 451 m 333 1251 l 528 1251 l 589 1051 l 439 1051 l 333 1251 m 614 1251 l 808 1251 l 869 1051 l 719 1051 l 614 1251 z "},"Ṛ":{"ha":1021,"x_min":40,"x_max":1011,"o":"m 1011 671 q 938 438 1011 535 q 733 300 864 340 l 903 0 l 665 0 l 513 272 l 321 272 l 267 0 l 40 0 l 235 972 l 631 972 q 911 893 811 972 q 1011 671 1011 814 m 547 451 q 722 503 660 451 q 783 650 783 554 q 736 754 783 719 q 601 789 689 789 l 424 789 l 356 451 l 547 451 m 396 -292 q 331 -268 356 -292 q 307 -206 307 -244 q 339 -132 307 -162 q 413 -101 371 -101 q 476 -125 450 -101 q 501 -185 501 -149 q 472 -262 501 -233 q 396 -292 442 -292 z "},"Ȓ":{"ha":1021,"x_min":40,"x_max":1011,"o":"m 1011 671 q 938 438 1011 535 q 733 300 864 340 l 903 0 l 665 0 l 513 272 l 321 272 l 267 0 l 40 0 l 235 972 l 631 972 q 911 893 811 972 q 1011 671 1011 814 m 547 451 q 722 503 660 451 q 783 650 783 554 q 736 754 783 719 q 601 789 689 789 l 424 789 l 356 451 l 547 451 m 397 1051 q 492 1206 415 1149 q 681 1264 569 1264 q 853 1206 788 1264 q 910 1051 918 1147 l 776 1051 q 749 1124 779 1097 q 668 1151 719 1151 q 582 1124 617 1151 q 538 1051 547 1097 l 397 1051 z "},"Ṟ":{"ha":1021,"x_min":40,"x_max":1011,"o":"m 1011 671 q 938 438 1011 535 q 733 300 864 340 l 903 0 l 665 0 l 513 272 l 321 272 l 267 0 l 40 0 l 235 972 l 631 972 q 911 893 811 972 q 1011 671 1011 814 m 547 451 q 722 503 660 451 q 783 650 783 554 q 736 754 783 719 q 601 789 689 789 l 424 789 l 356 451 l 547 451 m 160 -132 l 674 -132 l 651 -253 l 138 -253 l 160 -132 z "},"S":{"ha":886,"x_min":-11,"x_max":901,"o":"m 379 -17 q 158 14 264 -17 q -11 92 53 44 l 81 265 q 231 190 147 217 q 401 164 314 164 q 549 194 494 164 q 603 278 603 225 q 560 344 603 321 q 422 393 517 367 q 268 447 328 421 q 165 524 208 472 q 121 660 121 575 q 176 833 121 758 q 331 949 231 908 q 565 989 432 989 q 751 967 664 989 q 901 906 839 946 l 817 733 q 694 790 763 771 q 553 808 626 808 q 401 775 457 808 q 346 689 346 742 q 369 635 346 657 q 429 601 393 614 q 531 569 465 588 q 683 519 624 544 q 785 444 743 493 q 828 314 828 394 q 772 140 828 214 q 615 24 717 65 q 379 -17 514 -17 z "},"Ś":{"ha":886,"x_min":-11,"x_max":903,"o":"m 379 -17 q 158 14 264 -17 q -11 92 53 44 l 81 265 q 231 190 147 217 q 401 164 314 164 q 549 194 494 164 q 603 278 603 225 q 560 344 603 321 q 422 393 517 367 q 268 447 328 421 q 165 524 208 472 q 121 660 121 575 q 176 833 121 758 q 331 949 231 908 q 565 989 432 989 q 751 967 664 989 q 901 906 839 946 l 817 733 q 694 790 763 771 q 553 808 626 808 q 401 775 457 808 q 346 689 346 742 q 369 635 346 657 q 429 601 393 614 q 531 569 465 588 q 683 519 624 544 q 785 444 743 493 q 828 314 828 394 q 772 140 828 214 q 615 24 717 65 q 379 -17 514 -17 m 664 1251 l 903 1251 l 631 1051 l 456 1051 l 664 1251 z "},"Ṥ":{"ha":886,"x_min":-11,"x_max":901,"o":"m 379 -17 q 158 14 264 -17 q -11 92 53 44 l 81 265 q 231 190 147 217 q 401 164 314 164 q 549 194 494 164 q 603 278 603 225 q 560 344 603 321 q 422 393 517 367 q 268 447 328 421 q 165 524 208 472 q 121 660 121 575 q 176 833 121 758 q 331 949 231 908 q 565 989 432 989 q 751 967 664 989 q 901 906 839 946 l 817 733 q 694 790 763 771 q 553 808 626 808 q 401 775 457 808 q 346 689 346 742 q 369 635 346 657 q 429 601 393 614 q 531 569 465 588 q 683 519 624 544 q 785 444 743 493 q 828 314 828 394 q 772 140 828 214 q 615 24 717 65 q 379 -17 514 -17 m 633 1219 l 860 1219 l 624 1051 l 461 1051 l 633 1219 m 642 1282 q 578 1306 603 1282 q 553 1369 553 1329 q 583 1444 553 1415 q 656 1474 613 1474 q 720 1449 694 1474 q 746 1385 746 1425 q 715 1311 746 1340 q 642 1282 685 1282 z "},"Ꞌ":{"ha":413,"x_min":101,"x_max":436,"o":"m 214 972 l 436 972 l 297 413 l 101 413 l 214 972 z "},"Š":{"ha":886,"x_min":-11,"x_max":901,"o":"m 379 -17 q 158 14 264 -17 q -11 92 53 44 l 81 265 q 231 190 147 217 q 401 164 314 164 q 549 194 494 164 q 603 278 603 225 q 560 344 603 321 q 422 393 517 367 q 268 447 328 421 q 165 524 208 472 q 121 660 121 575 q 176 833 121 758 q 331 949 231 908 q 565 989 432 989 q 751 967 664 989 q 901 906 839 946 l 817 733 q 694 790 763 771 q 553 808 626 808 q 401 775 457 808 q 346 689 346 742 q 369 635 346 657 q 429 601 393 614 q 531 569 465 588 q 683 519 624 544 q 785 444 743 493 q 828 314 828 394 q 772 140 828 214 q 615 24 717 65 q 379 -17 514 -17 m 894 1251 l 685 1051 l 493 1051 l 338 1251 l 492 1251 l 599 1147 l 733 1251 l 894 1251 z "},"Ṧ":{"ha":886,"x_min":-11,"x_max":901,"o":"m 379 -17 q 158 14 264 -17 q -11 92 53 44 l 81 265 q 231 190 147 217 q 401 164 314 164 q 549 194 494 164 q 603 278 603 225 q 560 344 603 321 q 422 393 517 367 q 268 447 328 421 q 165 524 208 472 q 121 660 121 575 q 176 833 121 758 q 331 949 231 908 q 565 989 432 989 q 751 967 664 989 q 901 906 839 946 l 817 733 q 694 790 763 771 q 553 808 626 808 q 401 775 457 808 q 346 689 346 742 q 369 635 346 657 q 429 601 393 614 q 531 569 465 588 q 683 519 624 544 q 785 444 743 493 q 828 314 828 394 q 772 140 828 214 q 615 24 717 65 q 379 -17 514 -17 m 889 1210 l 682 1051 l 493 1051 l 332 1210 l 488 1210 l 596 1132 l 726 1210 l 889 1210 m 635 1250 q 571 1274 596 1250 q 546 1338 546 1297 q 576 1413 546 1383 q 649 1442 606 1442 q 713 1417 688 1442 q 739 1353 739 1393 q 708 1279 739 1308 q 635 1250 678 1250 z "},"Ş":{"ha":886,"x_min":-11,"x_max":901,"o":"m 379 -17 q 158 14 264 -17 q -11 92 53 44 l 81 265 q 231 190 147 217 q 401 164 314 164 q 549 194 494 164 q 603 278 603 225 q 560 344 603 321 q 422 393 517 367 q 268 447 328 421 q 165 524 208 472 q 121 660 121 575 q 176 833 121 758 q 331 949 231 908 q 565 989 432 989 q 751 967 664 989 q 901 906 839 946 l 817 733 q 694 790 763 771 q 553 808 626 808 q 401 775 457 808 q 346 689 346 742 q 369 635 346 657 q 429 601 393 614 q 531 569 465 588 q 683 519 624 544 q 785 444 743 493 q 828 314 828 394 q 772 140 828 214 q 615 24 717 65 q 379 -17 514 -17 m 275 -322 q 144 -293 199 -322 l 192 -200 q 285 -221 233 -221 q 341 -208 322 -221 q 361 -175 360 -196 q 301 -136 365 -136 l 253 -136 l 319 11 l 435 11 l 400 -69 q 472 -102 446 -75 q 497 -165 497 -129 q 437 -281 497 -239 q 275 -322 376 -322 z "},"Ŝ":{"ha":886,"x_min":-11,"x_max":901,"o":"m 379 -17 q 158 14 264 -17 q -11 92 53 44 l 81 265 q 231 190 147 217 q 401 164 314 164 q 549 194 494 164 q 603 278 603 225 q 560 344 603 321 q 422 393 517 367 q 268 447 328 421 q 165 524 208 472 q 121 660 121 575 q 176 833 121 758 q 331 949 231 908 q 565 989 432 989 q 751 967 664 989 q 901 906 839 946 l 817 733 q 694 790 763 771 q 553 808 626 808 q 401 775 457 808 q 346 689 346 742 q 369 635 346 657 q 429 601 393 614 q 531 569 465 588 q 683 519 624 544 q 785 444 743 493 q 828 314 828 394 q 772 140 828 214 q 615 24 717 65 q 379 -17 514 -17 m 710 1051 l 603 1156 l 468 1051 l 306 1051 l 517 1251 l 707 1251 l 864 1051 l 710 1051 z "},"Ș":{"ha":886,"x_min":-11,"x_max":901,"o":"m 379 -17 q 158 14 264 -17 q -11 92 53 44 l 81 265 q 231 190 147 217 q 401 164 314 164 q 549 194 494 164 q 603 278 603 225 q 560 344 603 321 q 422 393 517 367 q 268 447 328 421 q 165 524 208 472 q 121 660 121 575 q 176 833 121 758 q 331 949 231 908 q 565 989 432 989 q 751 967 664 989 q 901 906 839 946 l 817 733 q 694 790 763 771 q 553 808 626 808 q 401 775 457 808 q 346 689 346 742 q 369 635 346 657 q 429 601 393 614 q 531 569 465 588 q 683 519 624 544 q 785 444 743 493 q 828 314 828 394 q 772 140 828 214 q 615 24 717 65 q 379 -17 514 -17 m 342 -101 q 410 -122 386 -101 q 435 -175 435 -143 q 426 -217 435 -197 q 392 -274 417 -237 l 324 -369 l 225 -369 l 282 -257 q 240 -196 240 -240 q 267 -128 240 -154 q 342 -101 293 -101 z "},"Ṡ":{"ha":886,"x_min":-11,"x_max":901,"o":"m 379 -17 q 158 14 264 -17 q -11 92 53 44 l 81 265 q 231 190 147 217 q 401 164 314 164 q 549 194 494 164 q 603 278 603 225 q 560 344 603 321 q 422 393 517 367 q 268 447 328 421 q 165 524 208 472 q 121 660 121 575 q 176 833 121 758 q 331 949 231 908 q 565 989 432 989 q 751 967 664 989 q 901 906 839 946 l 817 733 q 694 790 763 771 q 553 808 626 808 q 401 775 457 808 q 346 689 346 742 q 369 635 346 657 q 429 601 393 614 q 531 569 465 588 q 683 519 624 544 q 785 444 743 493 q 828 314 828 394 q 772 140 828 214 q 615 24 717 65 q 379 -17 514 -17 m 601 1058 q 522 1088 553 1058 q 492 1161 492 1117 q 528 1256 492 1219 q 618 1293 564 1293 q 697 1264 667 1293 q 726 1189 726 1235 q 690 1095 726 1132 q 601 1058 654 1058 z "},"Ṣ":{"ha":886,"x_min":-11,"x_max":901,"o":"m 379 -17 q 158 14 264 -17 q -11 92 53 44 l 81 265 q 231 190 147 217 q 401 164 314 164 q 549 194 494 164 q 603 278 603 225 q 560 344 603 321 q 422 393 517 367 q 268 447 328 421 q 165 524 208 472 q 121 660 121 575 q 176 833 121 758 q 331 949 231 908 q 565 989 432 989 q 751 967 664 989 q 901 906 839 946 l 817 733 q 694 790 763 771 q 553 808 626 808 q 401 775 457 808 q 346 689 346 742 q 369 635 346 657 q 429 601 393 614 q 531 569 465 588 q 683 519 624 544 q 785 444 743 493 q 828 314 828 394 q 772 140 828 214 q 615 24 717 65 q 379 -17 514 -17 m 326 -292 q 262 -268 286 -292 q 238 -206 238 -244 q 269 -132 238 -162 q 343 -101 301 -101 q 406 -125 381 -101 q 432 -185 432 -149 q 402 -262 432 -233 q 326 -292 372 -292 z "},"Ṩ":{"ha":886,"x_min":-11,"x_max":901,"o":"m 379 -17 q 158 14 264 -17 q -11 92 53 44 l 81 265 q 231 190 147 217 q 401 164 314 164 q 549 194 494 164 q 603 278 603 225 q 560 344 603 321 q 422 393 517 367 q 268 447 328 421 q 165 524 208 472 q 121 660 121 575 q 176 833 121 758 q 331 949 231 908 q 565 989 432 989 q 751 967 664 989 q 901 906 839 946 l 817 733 q 694 790 763 771 q 553 808 626 808 q 401 775 457 808 q 346 689 346 742 q 369 635 346 657 q 429 601 393 614 q 531 569 465 588 q 683 519 624 544 q 785 444 743 493 q 828 314 828 394 q 772 140 828 214 q 615 24 717 65 q 379 -17 514 -17 m 326 -292 q 262 -268 286 -292 q 238 -206 238 -244 q 269 -132 238 -162 q 343 -101 301 -101 q 406 -125 381 -101 q 432 -185 432 -149 q 402 -262 432 -233 q 326 -292 372 -292 m 601 1058 q 522 1088 553 1058 q 492 1161 492 1117 q 528 1256 492 1219 q 618 1293 564 1293 q 697 1264 667 1293 q 726 1189 726 1235 q 690 1095 726 1132 q 601 1058 654 1058 z "},"ẞ":{"ha":1082,"x_min":32,"x_max":1032,"o":"m 810 569 q 956 479 901 544 q 1010 321 1010 414 q 961 146 1010 222 q 824 26 913 69 q 617 -17 735 -17 q 497 -6 557 -17 q 396 21 436 4 l 453 193 q 611 164 525 164 q 736 203 689 164 q 783 311 783 243 q 745 395 783 365 q 638 425 707 425 q 542 411 583 425 l 521 510 l 807 785 q 668 808 744 808 q 368 554 418 808 l 258 0 l 32 0 l 146 565 q 322 883 189 778 q 686 989 456 989 q 876 963 782 989 q 1032 893 971 938 l 1006 757 l 810 569 z "},"Ə":{"ha":1135,"x_min":67,"x_max":1107,"o":"m 631 989 q 884 935 776 989 q 1049 785 992 882 q 1107 561 1107 689 q 1034 263 1107 394 q 831 58 961 132 q 533 -17 700 -17 q 217 77 343 -17 q 67 339 92 171 l 868 640 q 780 756 844 715 q 614 797 715 797 q 455 770 531 797 q 319 690 379 743 l 213 846 q 402 952 293 915 q 631 989 511 989 m 546 163 q 704 203 635 163 q 817 316 774 244 q 875 478 861 388 l 322 269 q 409 190 351 218 q 546 163 467 163 z "},"T":{"ha":886,"x_min":76,"x_max":993,"o":"m 894 700 q 639 790 772 771 l 481 0 l 254 0 l 414 794 q 135 704 256 778 l 76 874 q 290 959 167 929 q 540 989 414 989 q 787 958 671 989 q 993 868 903 926 l 894 700 z "},"Ŧ":{"ha":886,"x_min":76,"x_max":993,"o":"m 894 700 q 639 790 772 771 l 481 0 l 254 0 l 414 794 q 135 704 256 778 l 76 874 q 290 959 167 929 q 540 989 414 989 q 787 958 671 989 q 993 868 903 926 l 894 700 m 169 514 l 769 514 l 740 364 l 139 364 l 169 514 z "},"Ť":{"ha":886,"x_min":76,"x_max":993,"o":"m 894 700 q 639 790 772 771 l 481 0 l 254 0 l 414 794 q 135 704 256 778 l 76 874 q 290 959 167 929 q 540 989 414 989 q 787 958 671 989 q 993 868 903 926 l 894 700 m 892 1251 l 682 1051 l 490 1051 l 335 1251 l 489 1251 l 596 1147 l 731 1251 l 892 1251 z "},"Ţ":{"ha":886,"x_min":76,"x_max":993,"o":"m 894 700 q 639 790 772 771 l 481 0 l 254 0 l 414 794 q 135 704 256 778 l 76 874 q 290 959 167 929 q 540 989 414 989 q 787 958 671 989 q 993 868 903 926 l 894 700 m 267 -322 q 136 -293 190 -322 l 183 -200 q 276 -221 225 -221 q 333 -208 314 -221 q 353 -175 351 -196 q 293 -136 357 -136 l 244 -136 l 311 11 l 426 11 l 392 -69 q 463 -102 438 -75 q 489 -165 489 -129 q 428 -281 489 -239 q 267 -322 368 -322 z "},"Ț":{"ha":886,"x_min":76,"x_max":993,"o":"m 894 700 q 639 790 772 771 l 481 0 l 254 0 l 414 794 q 135 704 256 778 l 76 874 q 290 959 167 929 q 540 989 414 989 q 787 958 671 989 q 993 868 903 926 l 894 700 m 333 -101 q 402 -122 378 -101 q 426 -175 426 -143 q 417 -217 426 -197 q 383 -274 408 -237 l 315 -369 l 217 -369 l 274 -257 q 232 -196 232 -240 q 258 -128 232 -154 q 333 -101 285 -101 z "},"Ṭ":{"ha":886,"x_min":76,"x_max":993,"o":"m 894 700 q 639 790 772 771 l 481 0 l 254 0 l 414 794 q 135 704 256 778 l 76 874 q 290 959 167 929 q 540 989 414 989 q 787 958 671 989 q 993 868 903 926 l 894 700 m 318 -292 q 253 -268 278 -292 q 229 -206 229 -244 q 261 -132 229 -162 q 335 -101 293 -101 q 398 -125 372 -101 q 424 -185 424 -149 q 394 -262 424 -233 q 318 -292 364 -292 z "},"Ṯ":{"ha":886,"x_min":60,"x_max":993,"o":"m 894 700 q 639 790 772 771 l 481 0 l 254 0 l 414 794 q 135 704 256 778 l 76 874 q 290 959 167 929 q 540 989 414 989 q 787 958 671 989 q 993 868 903 926 l 894 700 m 82 -132 l 596 -132 l 574 -253 l 60 -253 l 82 -132 z "},"U":{"ha":1103,"x_min":106,"x_max":1107,"o":"m 1107 972 l 913 0 l 694 0 l 715 103 q 586 14 658 44 q 429 -17 514 -17 q 192 68 279 -17 q 106 306 106 153 q 118 428 106 364 l 226 972 l 453 972 l 342 422 q 333 342 333 379 q 378 217 333 258 q 507 175 422 175 q 676 235 607 175 q 771 418 746 294 l 882 972 l 1107 972 z "},"Ú":{"ha":1103,"x_min":106,"x_max":1107,"o":"m 1107 972 l 913 0 l 694 0 l 715 103 q 586 14 658 44 q 429 -17 514 -17 q 192 68 279 -17 q 106 306 106 153 q 118 428 106 364 l 226 972 l 453 972 l 342 422 q 333 342 333 379 q 378 217 333 258 q 507 175 422 175 q 676 235 607 175 q 771 418 746 294 l 882 972 l 1107 972 m 763 1251 l 1001 1251 l 729 1051 l 554 1051 l 763 1251 z "},"Ŭ":{"ha":1103,"x_min":106,"x_max":1107,"o":"m 1107 972 l 913 0 l 694 0 l 715 103 q 586 14 658 44 q 429 -17 514 -17 q 192 68 279 -17 q 106 306 106 153 q 118 428 106 364 l 226 972 l 453 972 l 342 422 q 333 342 333 379 q 378 217 333 258 q 507 175 422 175 q 676 235 607 175 q 771 418 746 294 l 882 972 l 1107 972 m 696 1040 q 531 1092 596 1040 q 465 1231 465 1144 q 467 1251 465 1244 l 599 1251 q 627 1180 597 1207 q 708 1153 657 1153 q 794 1180 760 1153 q 838 1251 829 1207 l 978 1251 q 883 1097 960 1154 q 696 1040 807 1040 z "},"Ǔ":{"ha":1103,"x_min":106,"x_max":1107,"o":"m 1107 972 l 913 0 l 694 0 l 715 103 q 586 14 658 44 q 429 -17 514 -17 q 192 68 279 -17 q 106 306 106 153 q 118 428 106 364 l 226 972 l 453 972 l 342 422 q 333 342 333 379 q 378 217 333 258 q 507 175 422 175 q 676 235 607 175 q 771 418 746 294 l 882 972 l 1107 972 m 993 1251 l 783 1051 l 592 1051 l 436 1251 l 590 1251 l 697 1147 l 832 1251 l 993 1251 z "},"Û":{"ha":1103,"x_min":106,"x_max":1107,"o":"m 1107 972 l 913 0 l 694 0 l 715 103 q 586 14 658 44 q 429 -17 514 -17 q 192 68 279 -17 q 106 306 106 153 q 118 428 106 364 l 226 972 l 453 972 l 342 422 q 333 342 333 379 q 378 217 333 258 q 507 175 422 175 q 676 235 607 175 q 771 418 746 294 l 882 972 l 1107 972 m 808 1051 l 701 1156 l 567 1051 l 404 1051 l 615 1251 l 806 1251 l 963 1051 l 808 1051 z "},"Ȕ":{"ha":1103,"x_min":106,"x_max":1107,"o":"m 1107 972 l 913 0 l 694 0 l 715 103 q 586 14 658 44 q 429 -17 514 -17 q 192 68 279 -17 q 106 306 106 153 q 118 428 106 364 l 226 972 l 453 972 l 342 422 q 333 342 333 379 q 378 217 333 258 q 507 175 422 175 q 676 235 607 175 q 771 418 746 294 l 882 972 l 1107 972 m 363 1251 l 557 1251 l 618 1051 l 468 1051 l 363 1251 m 643 1251 l 838 1251 l 899 1051 l 749 1051 l 643 1251 z "},"Ü":{"ha":1103,"x_min":106,"x_max":1107,"o":"m 1107 972 l 913 0 l 694 0 l 715 103 q 586 14 658 44 q 429 -17 514 -17 q 192 68 279 -17 q 106 306 106 153 q 118 428 106 364 l 226 972 l 453 972 l 342 422 q 333 342 333 379 q 378 217 333 258 q 507 175 422 175 q 676 235 607 175 q 771 418 746 294 l 882 972 l 1107 972 m 556 1058 q 491 1082 517 1058 q 465 1144 465 1106 q 496 1220 465 1190 q 568 1250 526 1250 q 633 1226 607 1250 q 660 1164 660 1203 q 628 1088 660 1118 q 556 1058 597 1058 m 838 1058 q 773 1082 799 1058 q 747 1144 747 1106 q 777 1221 747 1192 q 850 1250 807 1250 q 915 1226 889 1250 q 940 1164 940 1203 q 910 1088 940 1118 q 838 1058 879 1058 z "},"Ụ":{"ha":1103,"x_min":106,"x_max":1107,"o":"m 1107 972 l 913 0 l 694 0 l 715 103 q 586 14 658 44 q 429 -17 514 -17 q 192 68 279 -17 q 106 306 106 153 q 118 428 106 364 l 226 972 l 453 972 l 342 422 q 333 342 333 379 q 378 217 333 258 q 507 175 422 175 q 676 235 607 175 q 771 418 746 294 l 882 972 l 1107 972 m 425 -292 q 360 -268 385 -292 q 336 -206 336 -244 q 368 -132 336 -162 q 442 -101 400 -101 q 505 -125 479 -101 q 531 -185 531 -149 q 501 -262 531 -233 q 425 -292 471 -292 z "},"Ù":{"ha":1103,"x_min":106,"x_max":1107,"o":"m 1107 972 l 913 0 l 694 0 l 715 103 q 586 14 658 44 q 429 -17 514 -17 q 192 68 279 -17 q 106 306 106 153 q 118 428 106 364 l 226 972 l 453 972 l 342 422 q 333 342 333 379 q 378 217 333 258 q 507 175 422 175 q 676 235 607 175 q 771 418 746 294 l 882 972 l 1107 972 m 429 1251 l 661 1251 l 808 1051 l 640 1051 l 429 1251 z "},"Ủ":{"ha":1103,"x_min":106,"x_max":1107,"o":"m 1107 972 l 913 0 l 694 0 l 715 103 q 586 14 658 44 q 429 -17 514 -17 q 192 68 279 -17 q 106 306 106 153 q 118 428 106 364 l 226 972 l 453 972 l 342 422 q 333 342 333 379 q 378 217 333 258 q 507 175 422 175 q 676 235 607 175 q 771 418 746 294 l 882 972 l 1107 972 m 674 1110 q 757 1203 757 1144 q 741 1240 757 1226 q 699 1254 725 1254 q 615 1226 657 1254 l 578 1315 q 735 1361 642 1361 q 844 1326 804 1361 q 885 1232 885 1292 q 731 1036 885 1104 l 674 1110 z "},"Ư":{"ha":1103,"x_min":106,"x_max":1243,"o":"m 1107 972 l 913 0 l 694 0 l 715 103 q 586 14 658 44 q 429 -17 514 -17 q 192 68 279 -17 q 106 306 106 153 q 118 428 106 364 l 226 972 l 453 972 l 342 422 q 333 342 333 379 q 378 217 333 258 q 507 175 422 175 q 676 235 607 175 q 771 418 746 294 l 882 972 l 1107 972 m 976 972 l 1015 972 q 1076 997 1053 972 q 1099 1060 1099 1021 q 1071 1143 1099 1108 l 1199 1190 q 1243 1051 1243 1129 q 1179 888 1243 949 q 1010 828 1115 828 l 976 828 l 976 972 z "},"Ứ":{"ha":1103,"x_min":106,"x_max":1243,"o":"m 1107 972 l 913 0 l 694 0 l 715 103 q 586 14 658 44 q 429 -17 514 -17 q 192 68 279 -17 q 106 306 106 153 q 118 428 106 364 l 226 972 l 453 972 l 342 422 q 333 342 333 379 q 378 217 333 258 q 507 175 422 175 q 676 235 607 175 q 771 418 746 294 l 882 972 l 1107 972 m 976 972 l 1015 972 q 1076 997 1053 972 q 1099 1060 1099 1021 q 1071 1143 1099 1108 l 1199 1190 q 1243 1051 1243 1129 q 1179 888 1243 949 q 1010 828 1115 828 l 976 828 l 976 972 m 763 1251 l 1001 1251 l 729 1051 l 554 1051 l 763 1251 z "},"Ự":{"ha":1103,"x_min":106,"x_max":1243,"o":"m 1107 972 l 913 0 l 694 0 l 715 103 q 586 14 658 44 q 429 -17 514 -17 q 192 68 279 -17 q 106 306 106 153 q 118 428 106 364 l 226 972 l 453 972 l 342 422 q 333 342 333 379 q 378 217 333 258 q 507 175 422 175 q 676 235 607 175 q 771 418 746 294 l 882 972 l 1107 972 m 976 972 l 1015 972 q 1076 997 1053 972 q 1099 1060 1099 1021 q 1071 1143 1099 1108 l 1199 1190 q 1243 1051 1243 1129 q 1179 888 1243 949 q 1010 828 1115 828 l 976 828 l 976 972 m 425 -292 q 360 -268 385 -292 q 336 -206 336 -244 q 368 -132 336 -162 q 442 -101 400 -101 q 505 -125 479 -101 q 531 -185 531 -149 q 501 -262 531 -233 q 425 -292 471 -292 z "},"Ừ":{"ha":1103,"x_min":106,"x_max":1243,"o":"m 1107 972 l 913 0 l 694 0 l 715 103 q 586 14 658 44 q 429 -17 514 -17 q 192 68 279 -17 q 106 306 106 153 q 118 428 106 364 l 226 972 l 453 972 l 342 422 q 333 342 333 379 q 378 217 333 258 q 507 175 422 175 q 676 235 607 175 q 771 418 746 294 l 882 972 l 1107 972 m 976 972 l 1015 972 q 1076 997 1053 972 q 1099 1060 1099 1021 q 1071 1143 1099 1108 l 1199 1190 q 1243 1051 1243 1129 q 1179 888 1243 949 q 1010 828 1115 828 l 976 828 l 976 972 m 429 1251 l 661 1251 l 808 1051 l 640 1051 l 429 1251 z "},"Ử":{"ha":1103,"x_min":106,"x_max":1243,"o":"m 1107 972 l 913 0 l 694 0 l 715 103 q 586 14 658 44 q 429 -17 514 -17 q 192 68 279 -17 q 106 306 106 153 q 118 428 106 364 l 226 972 l 453 972 l 342 422 q 333 342 333 379 q 378 217 333 258 q 507 175 422 175 q 676 235 607 175 q 771 418 746 294 l 882 972 l 1107 972 m 976 972 l 1015 972 q 1076 997 1053 972 q 1099 1060 1099 1021 q 1071 1143 1099 1108 l 1199 1190 q 1243 1051 1243 1129 q 1179 888 1243 949 q 1010 828 1115 828 l 976 828 l 976 972 m 674 1110 q 757 1203 757 1144 q 741 1240 757 1226 q 699 1254 725 1254 q 615 1226 657 1254 l 578 1315 q 735 1361 642 1361 q 844 1326 804 1361 q 885 1232 885 1292 q 731 1036 885 1104 l 674 1110 z "},"Ữ":{"ha":1103,"x_min":106,"x_max":1243,"o":"m 1107 972 l 913 0 l 694 0 l 715 103 q 586 14 658 44 q 429 -17 514 -17 q 192 68 279 -17 q 106 306 106 153 q 118 428 106 364 l 226 972 l 453 972 l 342 422 q 333 342 333 379 q 378 217 333 258 q 507 175 422 175 q 676 235 607 175 q 771 418 746 294 l 882 972 l 1107 972 m 976 972 l 1015 972 q 1076 997 1053 972 q 1099 1060 1099 1021 q 1071 1143 1099 1108 l 1199 1190 q 1243 1051 1243 1129 q 1179 888 1243 949 q 1010 828 1115 828 l 976 828 l 976 972 m 800 1047 q 735 1061 763 1047 q 676 1100 708 1075 q 636 1127 650 1119 q 606 1135 622 1135 q 558 1114 578 1135 q 532 1057 539 1093 l 422 1057 q 486 1208 438 1156 q 607 1260 535 1260 q 670 1246 643 1260 q 729 1207 697 1232 q 769 1179 754 1188 q 800 1171 783 1171 q 848 1191 829 1171 q 874 1246 867 1211 l 983 1246 q 920 1099 968 1151 q 800 1047 872 1047 z "},"Ű":{"ha":1103,"x_min":106,"x_max":1107,"o":"m 1107 972 l 913 0 l 694 0 l 715 103 q 586 14 658 44 q 429 -17 514 -17 q 192 68 279 -17 q 106 306 106 153 q 118 428 106 364 l 226 972 l 453 972 l 342 422 q 333 342 333 379 q 378 217 333 258 q 507 175 422 175 q 676 235 607 175 q 771 418 746 294 l 882 972 l 1107 972 m 583 1251 l 792 1251 l 625 1051 l 461 1051 l 583 1251 m 864 1251 l 1072 1251 l 904 1051 l 743 1051 l 864 1251 z "},"Ȗ":{"ha":1103,"x_min":106,"x_max":1107,"o":"m 1107 972 l 913 0 l 694 0 l 715 103 q 586 14 658 44 q 429 -17 514 -17 q 192 68 279 -17 q 106 306 106 153 q 118 428 106 364 l 226 972 l 453 972 l 342 422 q 333 342 333 379 q 378 217 333 258 q 507 175 422 175 q 676 235 607 175 q 771 418 746 294 l 882 972 l 1107 972 m 426 1051 q 522 1206 444 1149 q 710 1264 599 1264 q 882 1206 817 1264 q 939 1051 947 1147 l 806 1051 q 778 1124 808 1097 q 697 1151 749 1151 q 611 1124 646 1151 q 567 1051 576 1097 l 426 1051 z "},"Ū":{"ha":1103,"x_min":106,"x_max":1107,"o":"m 1107 972 l 913 0 l 694 0 l 715 103 q 586 14 658 44 q 429 -17 514 -17 q 192 68 279 -17 q 106 306 106 153 q 118 428 106 364 l 226 972 l 453 972 l 342 422 q 333 342 333 379 q 378 217 333 258 q 507 175 422 175 q 676 235 607 175 q 771 418 746 294 l 882 972 l 1107 972 m 458 1213 l 971 1213 l 947 1090 l 435 1090 l 458 1213 z "},"Ṻ":{"ha":1103,"x_min":106,"x_max":1107,"o":"m 1107 972 l 913 0 l 694 0 l 715 103 q 586 14 658 44 q 429 -17 514 -17 q 192 68 279 -17 q 106 306 106 153 q 118 428 106 364 l 226 972 l 453 972 l 342 422 q 333 342 333 379 q 378 217 333 258 q 507 175 422 175 q 676 235 607 175 q 771 418 746 294 l 882 972 l 1107 972 m 453 1190 l 967 1190 l 944 1075 l 431 1075 l 453 1190 m 606 1283 q 544 1306 568 1283 q 519 1365 519 1328 q 548 1438 519 1410 q 617 1467 576 1467 q 678 1443 654 1467 q 703 1382 703 1419 q 674 1311 703 1339 q 606 1283 646 1283 m 876 1283 q 815 1306 839 1283 q 790 1365 790 1328 q 819 1438 790 1408 q 889 1467 849 1467 q 951 1443 926 1467 q 975 1382 975 1419 q 946 1311 975 1339 q 876 1283 917 1283 z "},"Ų":{"ha":1103,"x_min":106,"x_max":1107,"o":"m 1107 972 l 913 0 l 694 0 l 715 103 q 586 14 658 44 q 429 -17 514 -17 q 192 68 279 -17 q 106 306 106 153 q 118 428 106 364 l 226 972 l 453 972 l 342 422 q 333 342 333 379 q 378 217 333 258 q 507 175 422 175 q 676 235 607 175 q 771 418 746 294 l 882 972 l 1107 972 m 751 -322 q 625 -285 672 -322 q 578 -185 578 -249 q 644 -44 578 -106 q 833 60 711 17 l 913 0 q 721 -154 721 -68 q 739 -197 721 -182 q 788 -212 757 -212 q 876 -192 835 -212 l 892 -290 q 751 -322 825 -322 z "},"Ů":{"ha":1103,"x_min":106,"x_max":1107,"o":"m 1107 972 l 913 0 l 694 0 l 715 103 q 586 14 658 44 q 429 -17 514 -17 q 192 68 279 -17 q 106 306 106 153 q 118 428 106 364 l 226 972 l 453 972 l 342 422 q 333 342 333 379 q 378 217 333 258 q 507 175 422 175 q 676 235 607 175 q 771 418 746 294 l 882 972 l 1107 972 m 714 1047 q 592 1096 642 1047 q 542 1215 542 1144 q 592 1334 542 1285 q 714 1383 642 1383 q 838 1335 788 1383 q 888 1215 888 1286 q 838 1096 888 1144 q 714 1047 788 1047 m 714 1131 q 774 1155 750 1131 q 799 1215 799 1179 q 774 1276 799 1251 q 714 1300 750 1300 q 655 1276 679 1300 q 631 1215 631 1251 q 654 1155 631 1179 q 714 1131 678 1131 z "},"Ũ":{"ha":1103,"x_min":106,"x_max":1107,"o":"m 1107 972 l 913 0 l 694 0 l 715 103 q 586 14 658 44 q 429 -17 514 -17 q 192 68 279 -17 q 106 306 106 153 q 118 428 106 364 l 226 972 l 453 972 l 342 422 q 333 342 333 379 q 378 217 333 258 q 507 175 422 175 q 676 235 607 175 q 771 418 746 294 l 882 972 l 1107 972 m 800 1047 q 735 1061 763 1047 q 676 1100 708 1075 q 636 1127 650 1119 q 606 1135 622 1135 q 558 1114 578 1135 q 532 1057 539 1093 l 422 1057 q 486 1208 438 1156 q 607 1260 535 1260 q 670 1246 643 1260 q 729 1207 697 1232 q 769 1179 754 1188 q 800 1171 783 1171 q 848 1191 829 1171 q 874 1246 867 1211 l 983 1246 q 920 1099 968 1151 q 800 1047 872 1047 z "},"Ṹ":{"ha":1103,"x_min":106,"x_max":1107,"o":"m 1107 972 l 913 0 l 694 0 l 715 103 q 586 14 658 44 q 429 -17 514 -17 q 192 68 279 -17 q 106 306 106 153 q 118 428 106 364 l 226 972 l 453 972 l 342 422 q 333 342 333 379 q 378 217 333 258 q 507 175 422 175 q 676 235 607 175 q 771 418 746 294 l 882 972 l 1107 972 m 792 1049 q 728 1060 756 1049 q 671 1093 701 1072 q 610 1121 633 1121 q 564 1103 582 1121 q 540 1057 546 1086 l 428 1057 q 488 1185 440 1140 q 610 1231 536 1231 q 673 1219 646 1231 q 729 1186 700 1207 q 764 1165 750 1172 q 793 1158 778 1158 q 840 1176 821 1158 q 865 1221 858 1193 l 974 1221 q 914 1094 961 1140 q 792 1049 867 1049 m 776 1443 l 1003 1443 l 767 1275 l 604 1275 l 776 1443 z "},"V":{"ha":1036,"x_min":107,"x_max":1169,"o":"m 1169 972 l 554 0 l 333 0 l 107 972 l 339 972 l 496 279 l 936 972 l 1169 972 z "},"W":{"ha":1678,"x_min":101,"x_max":1690,"o":"m 1690 972 l 1568 397 q 1403 82 1524 181 q 1068 -17 1283 -17 q 904 12 975 -17 q 792 96 833 40 q 650 12 731 40 q 475 -17 569 -17 q 203 67 304 -17 q 101 301 101 151 q 113 404 101 356 l 233 972 l 457 972 l 331 374 q 324 314 324 336 q 367 210 324 244 q 492 175 411 175 q 645 229 586 175 q 729 397 704 283 l 851 972 l 1074 972 l 947 382 q 940 318 940 353 q 981 211 940 247 q 1101 175 1022 175 q 1263 228 1204 175 q 1346 393 1322 281 l 1468 972 l 1690 972 z "},"Ẃ":{"ha":1678,"x_min":101,"x_max":1690,"o":"m 1690 972 l 1568 397 q 1403 82 1524 181 q 1068 -17 1283 -17 q 904 12 975 -17 q 792 96 833 40 q 650 12 731 40 q 475 -17 569 -17 q 203 67 304 -17 q 101 301 101 151 q 113 404 101 356 l 233 972 l 457 972 l 331 374 q 324 314 324 336 q 367 210 324 244 q 492 175 411 175 q 645 229 586 175 q 729 397 704 283 l 851 972 l 1074 972 l 947 382 q 940 318 940 353 q 981 211 940 247 q 1101 175 1022 175 q 1263 228 1204 175 q 1346 393 1322 281 l 1468 972 l 1690 972 m 1057 1251 l 1296 1251 l 1024 1051 l 849 1051 l 1057 1251 z "},"Ŵ":{"ha":1678,"x_min":101,"x_max":1690,"o":"m 1690 972 l 1568 397 q 1403 82 1524 181 q 1068 -17 1283 -17 q 904 12 975 -17 q 792 96 833 40 q 650 12 731 40 q 475 -17 569 -17 q 203 67 304 -17 q 101 301 101 151 q 113 404 101 356 l 233 972 l 457 972 l 331 374 q 324 314 324 336 q 367 210 324 244 q 492 175 411 175 q 645 229 586 175 q 729 397 704 283 l 851 972 l 1074 972 l 947 382 q 940 318 940 353 q 981 211 940 247 q 1101 175 1022 175 q 1263 228 1204 175 q 1346 393 1322 281 l 1468 972 l 1690 972 m 1103 1051 l 996 1156 l 861 1051 l 699 1051 l 910 1251 l 1100 1251 l 1257 1051 l 1103 1051 z "},"Ẅ":{"ha":1678,"x_min":101,"x_max":1690,"o":"m 1690 972 l 1568 397 q 1403 82 1524 181 q 1068 -17 1283 -17 q 904 12 975 -17 q 792 96 833 40 q 650 12 731 40 q 475 -17 569 -17 q 203 67 304 -17 q 101 301 101 151 q 113 404 101 356 l 233 972 l 457 972 l 331 374 q 324 314 324 336 q 367 210 324 244 q 492 175 411 175 q 645 229 586 175 q 729 397 704 283 l 851 972 l 1074 972 l 947 382 q 940 318 940 353 q 981 211 940 247 q 1101 175 1022 175 q 1263 228 1204 175 q 1346 393 1322 281 l 1468 972 l 1690 972 m 850 1058 q 785 1082 811 1058 q 760 1144 760 1106 q 790 1220 760 1190 q 863 1250 821 1250 q 928 1226 901 1250 q 954 1164 954 1203 q 923 1088 954 1118 q 850 1058 892 1058 m 1132 1058 q 1067 1082 1093 1058 q 1042 1144 1042 1106 q 1072 1221 1042 1192 q 1144 1250 1101 1250 q 1209 1226 1183 1250 q 1235 1164 1235 1203 q 1204 1088 1235 1118 q 1132 1058 1174 1058 z "},"Ẁ":{"ha":1678,"x_min":101,"x_max":1690,"o":"m 1690 972 l 1568 397 q 1403 82 1524 181 q 1068 -17 1283 -17 q 904 12 975 -17 q 792 96 833 40 q 650 12 731 40 q 475 -17 569 -17 q 203 67 304 -17 q 101 301 101 151 q 113 404 101 356 l 233 972 l 457 972 l 331 374 q 324 314 324 336 q 367 210 324 244 q 492 175 411 175 q 645 229 586 175 q 729 397 704 283 l 851 972 l 1074 972 l 947 382 q 940 318 940 353 q 981 211 940 247 q 1101 175 1022 175 q 1263 228 1204 175 q 1346 393 1322 281 l 1468 972 l 1690 972 m 724 1251 l 956 1251 l 1103 1051 l 935 1051 l 724 1251 z "},"X":{"ha":992,"x_min":-69,"x_max":1086,"o":"m 643 490 l 910 0 l 667 0 l 494 331 l 200 0 l -69 0 l 396 504 l 144 972 l 385 972 l 547 660 l 831 972 l 1086 972 l 643 490 z "},"Y":{"ha":1090,"x_min":49,"x_max":1104,"o":"m 1104 972 l 965 283 q 792 -42 922 65 q 450 -150 661 -150 q 49 -18 194 -150 l 161 150 q 460 40 285 40 q 647 101 578 40 q 742 293 715 161 l 751 340 q 627 260 697 288 q 475 232 557 232 q 236 317 324 232 q 149 556 149 401 q 161 678 149 614 l 219 972 l 446 972 l 385 672 q 376 593 376 629 q 422 466 376 508 q 553 424 467 424 q 723 483 653 424 q 817 667 793 543 l 878 972 l 1104 972 z "},"Ý":{"ha":1090,"x_min":49,"x_max":1104,"o":"m 1104 972 l 965 283 q 792 -42 922 65 q 450 -150 661 -150 q 49 -18 194 -150 l 161 150 q 460 40 285 40 q 647 101 578 40 q 742 293 715 161 l 751 340 q 627 260 697 288 q 475 232 557 232 q 236 317 324 232 q 149 556 149 401 q 161 678 149 614 l 219 972 l 446 972 l 385 672 q 376 593 376 629 q 422 466 376 508 q 553 424 467 424 q 723 483 653 424 q 817 667 793 543 l 878 972 l 1104 972 m 756 1251 l 994 1251 l 722 1051 l 547 1051 l 756 1251 z "},"Ŷ":{"ha":1090,"x_min":49,"x_max":1104,"o":"m 1104 972 l 965 283 q 792 -42 922 65 q 450 -150 661 -150 q 49 -18 194 -150 l 161 150 q 460 40 285 40 q 647 101 578 40 q 742 293 715 161 l 751 340 q 627 260 697 288 q 475 232 557 232 q 236 317 324 232 q 149 556 149 401 q 161 678 149 614 l 219 972 l 446 972 l 385 672 q 376 593 376 629 q 422 466 376 508 q 553 424 467 424 q 723 483 653 424 q 817 667 793 543 l 878 972 l 1104 972 m 801 1051 l 694 1156 l 560 1051 l 397 1051 l 608 1251 l 799 1251 l 956 1051 l 801 1051 z "},"Ÿ":{"ha":1090,"x_min":49,"x_max":1104,"o":"m 1104 972 l 965 283 q 792 -42 922 65 q 450 -150 661 -150 q 49 -18 194 -150 l 161 150 q 460 40 285 40 q 647 101 578 40 q 742 293 715 161 l 751 340 q 627 260 697 288 q 475 232 557 232 q 236 317 324 232 q 149 556 149 401 q 161 678 149 614 l 219 972 l 446 972 l 385 672 q 376 593 376 629 q 422 466 376 508 q 553 424 467 424 q 723 483 653 424 q 817 667 793 543 l 878 972 l 1104 972 m 549 1058 q 484 1082 510 1058 q 458 1144 458 1106 q 489 1220 458 1190 q 561 1250 519 1250 q 626 1226 600 1250 q 653 1164 653 1203 q 622 1088 653 1118 q 549 1058 590 1058 m 831 1058 q 766 1082 792 1058 q 740 1144 740 1106 q 770 1221 740 1192 q 843 1250 800 1250 q 908 1226 882 1250 q 933 1164 933 1203 q 903 1088 933 1118 q 831 1058 872 1058 z "},"Ẏ":{"ha":1090,"x_min":49,"x_max":1104,"o":"m 1104 972 l 965 283 q 792 -42 922 65 q 450 -150 661 -150 q 49 -18 194 -150 l 161 150 q 460 40 285 40 q 647 101 578 40 q 742 293 715 161 l 751 340 q 627 260 697 288 q 475 232 557 232 q 236 317 324 232 q 149 556 149 401 q 161 678 149 614 l 219 972 l 446 972 l 385 672 q 376 593 376 629 q 422 466 376 508 q 553 424 467 424 q 723 483 653 424 q 817 667 793 543 l 878 972 l 1104 972 m 693 1058 q 614 1088 644 1058 q 583 1161 583 1117 q 619 1256 583 1219 q 710 1293 656 1293 q 788 1264 758 1293 q 818 1189 818 1235 q 782 1095 818 1132 q 693 1058 746 1058 z "},"Ỵ":{"ha":1090,"x_min":49,"x_max":1104,"o":"m 1104 972 l 965 283 q 792 -42 922 65 q 450 -150 661 -150 q 49 -18 194 -150 l 161 150 q 460 40 285 40 q 647 101 578 40 q 742 293 715 161 l 751 340 q 627 260 697 288 q 475 232 557 232 q 236 317 324 232 q 149 556 149 401 q 161 678 149 614 l 219 972 l 446 972 l 385 672 q 376 593 376 629 q 422 466 376 508 q 553 424 467 424 q 723 483 653 424 q 817 667 793 543 l 878 972 l 1104 972 m 838 -292 q 773 -268 797 -292 q 749 -206 749 -244 q 781 -132 749 -162 q 854 -101 813 -101 q 917 -125 892 -101 q 943 -185 943 -149 q 913 -262 943 -233 q 838 -292 883 -292 z "},"Ỳ":{"ha":1090,"x_min":49,"x_max":1104,"o":"m 1104 972 l 965 283 q 792 -42 922 65 q 450 -150 661 -150 q 49 -18 194 -150 l 161 150 q 460 40 285 40 q 647 101 578 40 q 742 293 715 161 l 751 340 q 627 260 697 288 q 475 232 557 232 q 236 317 324 232 q 149 556 149 401 q 161 678 149 614 l 219 972 l 446 972 l 385 672 q 376 593 376 629 q 422 466 376 508 q 553 424 467 424 q 723 483 653 424 q 817 667 793 543 l 878 972 l 1104 972 m 422 1251 l 654 1251 l 801 1051 l 633 1051 l 422 1251 z "},"Ỷ":{"ha":1090,"x_min":49,"x_max":1104,"o":"m 1104 972 l 965 283 q 792 -42 922 65 q 450 -150 661 -150 q 49 -18 194 -150 l 161 150 q 460 40 285 40 q 647 101 578 40 q 742 293 715 161 l 751 340 q 627 260 697 288 q 475 232 557 232 q 236 317 324 232 q 149 556 149 401 q 161 678 149 614 l 219 972 l 446 972 l 385 672 q 376 593 376 629 q 422 466 376 508 q 553 424 467 424 q 723 483 653 424 q 817 667 793 543 l 878 972 l 1104 972 m 667 1110 q 750 1203 750 1144 q 734 1240 750 1226 q 692 1254 718 1254 q 608 1226 650 1254 l 571 1315 q 728 1361 635 1361 q 838 1326 797 1361 q 878 1232 878 1292 q 724 1036 878 1104 l 667 1110 z "},"Ȳ":{"ha":1090,"x_min":49,"x_max":1104,"o":"m 1104 972 l 965 283 q 792 -42 922 65 q 450 -150 661 -150 q 49 -18 194 -150 l 161 150 q 460 40 285 40 q 647 101 578 40 q 742 293 715 161 l 751 340 q 627 260 697 288 q 475 232 557 232 q 236 317 324 232 q 149 556 149 401 q 161 678 149 614 l 219 972 l 446 972 l 385 672 q 376 593 376 629 q 422 466 376 508 q 553 424 467 424 q 723 483 653 424 q 817 667 793 543 l 878 972 l 1104 972 m 451 1213 l 964 1213 l 940 1090 l 428 1090 l 451 1213 z "},"Ỹ":{"ha":1090,"x_min":49,"x_max":1104,"o":"m 1104 972 l 965 283 q 792 -42 922 65 q 450 -150 661 -150 q 49 -18 194 -150 l 161 150 q 460 40 285 40 q 647 101 578 40 q 742 293 715 161 l 751 340 q 627 260 697 288 q 475 232 557 232 q 236 317 324 232 q 149 556 149 401 q 161 678 149 614 l 219 972 l 446 972 l 385 672 q 376 593 376 629 q 422 466 376 508 q 553 424 467 424 q 723 483 653 424 q 817 667 793 543 l 878 972 l 1104 972 m 793 1047 q 728 1061 756 1047 q 669 1100 701 1075 q 629 1127 643 1119 q 599 1135 615 1135 q 551 1114 571 1135 q 525 1057 532 1093 l 415 1057 q 479 1208 431 1156 q 600 1260 528 1260 q 663 1246 636 1260 q 722 1207 690 1232 q 762 1179 747 1188 q 793 1171 776 1171 q 841 1191 822 1171 q 867 1246 860 1211 l 976 1246 q 913 1099 961 1151 q 793 1047 865 1047 z "},"Z":{"ha":946,"x_min":-17,"x_max":1010,"o":"m 982 836 l 717 575 l 851 575 l 818 408 l 549 408 l 318 181 l 871 181 l 833 0 l -17 0 l 11 138 l 289 411 l 144 411 l 178 579 l 460 579 l 676 792 l 157 792 l 193 972 l 1010 972 l 982 836 z "},"Ź":{"ha":946,"x_min":-17,"x_max":1010,"o":"m 982 836 l 717 575 l 851 575 l 818 408 l 549 408 l 318 181 l 871 181 l 833 0 l -17 0 l 11 138 l 289 411 l 144 411 l 178 579 l 460 579 l 676 792 l 157 792 l 193 972 l 1010 972 l 982 836 m 699 1251 l 938 1251 l 665 1051 l 490 1051 l 699 1251 z "},"Ž":{"ha":946,"x_min":-17,"x_max":1010,"o":"m 982 836 l 717 575 l 851 575 l 818 408 l 549 408 l 318 181 l 871 181 l 833 0 l -17 0 l 11 138 l 289 411 l 144 411 l 178 579 l 460 579 l 676 792 l 157 792 l 193 972 l 1010 972 l 982 836 m 929 1251 l 719 1051 l 528 1051 l 372 1251 l 526 1251 l 633 1147 l 768 1251 l 929 1251 z "},"Ż":{"ha":946,"x_min":-17,"x_max":1010,"o":"m 982 836 l 717 575 l 851 575 l 818 408 l 549 408 l 318 181 l 871 181 l 833 0 l -17 0 l 11 138 l 289 411 l 144 411 l 178 579 l 460 579 l 676 792 l 157 792 l 193 972 l 1010 972 l 982 836 m 636 1058 q 557 1088 588 1058 q 526 1161 526 1117 q 563 1256 526 1219 q 653 1293 599 1293 q 731 1264 701 1293 q 761 1189 761 1235 q 725 1095 761 1132 q 636 1058 689 1058 z "},"Ẓ":{"ha":946,"x_min":-17,"x_max":1010,"o":"m 982 836 l 717 575 l 851 575 l 818 408 l 549 408 l 318 181 l 871 181 l 833 0 l -17 0 l 11 138 l 289 411 l 144 411 l 178 579 l 460 579 l 676 792 l 157 792 l 193 972 l 1010 972 l 982 836 m 367 -292 q 302 -268 326 -292 q 278 -206 278 -244 q 310 -132 278 -162 q 383 -101 342 -101 q 447 -125 421 -101 q 472 -185 472 -149 q 442 -262 472 -233 q 367 -292 413 -292 z "},"a":{"ha":1031,"x_min":42,"x_max":972,"o":"m 910 161 q 972 172 947 161 l 950 7 q 832 -11 894 -11 q 699 21 751 -11 q 628 110 647 53 q 364 -11 529 -11 q 203 29 276 -11 q 85 145 129 69 q 42 324 42 221 q 97 547 42 447 q 246 702 151 646 q 454 758 340 758 q 697 646 626 758 l 717 747 l 933 747 l 836 263 q 833 232 833 251 q 853 178 833 196 q 910 161 874 161 m 431 168 q 544 199 494 168 q 622 286 594 231 q 650 414 650 342 q 605 535 650 490 q 479 579 560 579 q 365 548 415 579 q 288 461 315 517 q 260 333 260 406 q 305 213 260 257 q 431 168 350 168 z "},"á":{"ha":1031,"x_min":42,"x_max":972,"o":"m 910 161 q 972 172 947 161 l 950 7 q 832 -11 894 -11 q 699 21 751 -11 q 628 110 647 53 q 364 -11 529 -11 q 203 29 276 -11 q 85 145 129 69 q 42 324 42 221 q 97 547 42 447 q 246 702 151 646 q 454 758 340 758 q 697 646 626 758 l 717 747 l 933 747 l 836 263 q 833 232 833 251 q 853 178 833 196 q 910 161 874 161 m 431 168 q 544 199 494 168 q 622 286 594 231 q 650 414 650 342 q 605 535 650 490 q 479 579 560 579 q 365 548 415 579 q 288 461 315 517 q 260 333 260 406 q 305 213 260 257 q 431 168 350 168 m 650 1043 l 889 1043 l 617 843 l 442 843 l 650 1043 z "},"ă":{"ha":1031,"x_min":42,"x_max":972,"o":"m 910 161 q 972 172 947 161 l 950 7 q 832 -11 894 -11 q 699 21 751 -11 q 628 110 647 53 q 364 -11 529 -11 q 203 29 276 -11 q 85 145 129 69 q 42 324 42 221 q 97 547 42 447 q 246 702 151 646 q 454 758 340 758 q 697 646 626 758 l 717 747 l 933 747 l 836 263 q 833 232 833 251 q 853 178 833 196 q 910 161 874 161 m 431 168 q 544 199 494 168 q 622 286 594 231 q 650 414 650 342 q 605 535 650 490 q 479 579 560 579 q 365 548 415 579 q 288 461 315 517 q 260 333 260 406 q 305 213 260 257 q 431 168 350 168 m 583 832 q 418 884 483 832 q 353 1022 353 936 q 354 1043 353 1036 l 486 1043 q 515 972 485 999 q 596 944 544 944 q 682 972 647 944 q 725 1043 717 999 l 865 1043 q 771 889 847 946 q 583 832 694 832 z "},"ắ":{"ha":1031,"x_min":42,"x_max":972,"o":"m 910 161 q 972 172 947 161 l 950 7 q 832 -11 894 -11 q 699 21 751 -11 q 628 110 647 53 q 364 -11 529 -11 q 203 29 276 -11 q 85 145 129 69 q 42 324 42 221 q 97 547 42 447 q 246 702 151 646 q 454 758 340 758 q 697 646 626 758 l 717 747 l 933 747 l 836 263 q 833 232 833 251 q 853 178 833 196 q 910 161 874 161 m 431 168 q 544 199 494 168 q 622 286 594 231 q 650 414 650 342 q 605 535 650 490 q 479 579 560 579 q 365 548 415 579 q 288 461 315 517 q 260 333 260 406 q 305 213 260 257 q 431 168 350 168 m 586 832 q 410 878 476 832 q 346 1001 344 924 l 472 1001 q 508 953 475 971 q 593 935 540 935 q 681 952 647 935 q 724 1001 714 969 l 858 1001 q 767 878 842 924 q 586 832 693 832 m 658 1211 l 885 1211 l 649 1043 l 486 1043 l 658 1211 z "},"ặ":{"ha":1031,"x_min":42,"x_max":972,"o":"m 910 161 q 972 172 947 161 l 950 7 q 832 -11 894 -11 q 699 21 751 -11 q 628 110 647 53 q 364 -11 529 -11 q 203 29 276 -11 q 85 145 129 69 q 42 324 42 221 q 97 547 42 447 q 246 702 151 646 q 454 758 340 758 q 697 646 626 758 l 717 747 l 933 747 l 836 263 q 833 232 833 251 q 853 178 833 196 q 910 161 874 161 m 431 168 q 544 199 494 168 q 622 286 594 231 q 650 414 650 342 q 605 535 650 490 q 479 579 560 579 q 365 548 415 579 q 288 461 315 517 q 260 333 260 406 q 305 213 260 257 q 431 168 350 168 m 363 -292 q 298 -268 322 -292 q 274 -206 274 -244 q 306 -132 274 -162 q 379 -101 338 -101 q 442 -125 417 -101 q 468 -185 468 -149 q 438 -262 468 -233 q 363 -292 408 -292 m 583 832 q 418 884 483 832 q 353 1022 353 936 q 354 1043 353 1036 l 486 1043 q 515 972 485 999 q 596 944 544 944 q 682 972 647 944 q 725 1043 717 999 l 865 1043 q 771 889 847 946 q 583 832 694 832 z "},"ằ":{"ha":1031,"x_min":42,"x_max":972,"o":"m 910 161 q 972 172 947 161 l 950 7 q 832 -11 894 -11 q 699 21 751 -11 q 628 110 647 53 q 364 -11 529 -11 q 203 29 276 -11 q 85 145 129 69 q 42 324 42 221 q 97 547 42 447 q 246 702 151 646 q 454 758 340 758 q 697 646 626 758 l 717 747 l 933 747 l 836 263 q 833 232 833 251 q 853 178 833 196 q 910 161 874 161 m 431 168 q 544 199 494 168 q 622 286 594 231 q 650 414 650 342 q 605 535 650 490 q 479 579 560 579 q 365 548 415 579 q 288 461 315 517 q 260 333 260 406 q 305 213 260 257 q 431 168 350 168 m 586 832 q 410 878 476 832 q 346 1001 344 924 l 472 1001 q 508 953 475 971 q 593 935 540 935 q 681 952 647 935 q 724 1001 714 969 l 858 1001 q 767 878 842 924 q 586 832 693 832 m 388 1211 l 610 1211 l 729 1043 l 572 1043 l 388 1211 z "},"ẳ":{"ha":1031,"x_min":42,"x_max":972,"o":"m 910 161 q 972 172 947 161 l 950 7 q 832 -11 894 -11 q 699 21 751 -11 q 628 110 647 53 q 364 -11 529 -11 q 203 29 276 -11 q 85 145 129 69 q 42 324 42 221 q 97 547 42 447 q 246 702 151 646 q 454 758 340 758 q 697 646 626 758 l 717 747 l 933 747 l 836 263 q 833 232 833 251 q 853 178 833 196 q 910 161 874 161 m 431 168 q 544 199 494 168 q 622 286 594 231 q 650 414 650 342 q 605 535 650 490 q 479 579 560 579 q 365 548 415 579 q 288 461 315 517 q 260 333 260 406 q 305 213 260 257 q 431 168 350 168 m 586 832 q 410 878 476 832 q 346 1001 344 924 l 472 1001 q 508 953 475 971 q 593 935 540 935 q 681 952 647 935 q 724 1001 714 969 l 858 1001 q 767 878 842 924 q 586 832 693 832 m 564 1056 q 624 1121 624 1082 q 613 1145 624 1136 q 583 1154 603 1154 q 518 1138 551 1154 l 492 1206 q 608 1235 546 1235 q 693 1208 661 1235 q 725 1139 725 1182 q 694 1058 725 1093 q 611 1004 663 1024 l 564 1056 z "},"ẵ":{"ha":1031,"x_min":42,"x_max":972,"o":"m 910 161 q 972 172 947 161 l 950 7 q 832 -11 894 -11 q 699 21 751 -11 q 628 110 647 53 q 364 -11 529 -11 q 203 29 276 -11 q 85 145 129 69 q 42 324 42 221 q 97 547 42 447 q 246 702 151 646 q 454 758 340 758 q 697 646 626 758 l 717 747 l 933 747 l 836 263 q 833 232 833 251 q 853 178 833 196 q 910 161 874 161 m 431 168 q 544 199 494 168 q 622 286 594 231 q 650 414 650 342 q 605 535 650 490 q 479 579 560 579 q 365 548 415 579 q 288 461 315 517 q 260 333 260 406 q 305 213 260 257 q 431 168 350 168 m 586 832 q 410 878 476 832 q 346 1001 344 924 l 472 1001 q 508 953 475 971 q 593 935 540 935 q 681 952 647 935 q 724 1001 714 969 l 858 1001 q 767 878 842 924 q 586 832 693 832 m 718 1040 q 655 1052 682 1040 q 597 1085 628 1064 q 536 1113 560 1113 q 490 1095 508 1113 q 467 1049 472 1078 l 354 1049 q 415 1177 367 1132 q 536 1222 463 1222 q 599 1210 572 1222 q 656 1178 626 1199 q 690 1157 676 1164 q 719 1150 704 1150 q 766 1167 747 1150 q 792 1213 785 1185 l 900 1213 q 840 1086 888 1132 q 718 1040 793 1040 z "},"ǎ":{"ha":1031,"x_min":42,"x_max":972,"o":"m 910 161 q 972 172 947 161 l 950 7 q 832 -11 894 -11 q 699 21 751 -11 q 628 110 647 53 q 364 -11 529 -11 q 203 29 276 -11 q 85 145 129 69 q 42 324 42 221 q 97 547 42 447 q 246 702 151 646 q 454 758 340 758 q 697 646 626 758 l 717 747 l 933 747 l 836 263 q 833 232 833 251 q 853 178 833 196 q 910 161 874 161 m 431 168 q 544 199 494 168 q 622 286 594 231 q 650 414 650 342 q 605 535 650 490 q 479 579 560 579 q 365 548 415 579 q 288 461 315 517 q 260 333 260 406 q 305 213 260 257 q 431 168 350 168 m 881 1043 l 671 843 l 479 843 l 324 1043 l 478 1043 l 585 939 l 719 1043 l 881 1043 z "},"â":{"ha":1031,"x_min":42,"x_max":972,"o":"m 910 161 q 972 172 947 161 l 950 7 q 832 -11 894 -11 q 699 21 751 -11 q 628 110 647 53 q 364 -11 529 -11 q 203 29 276 -11 q 85 145 129 69 q 42 324 42 221 q 97 547 42 447 q 246 702 151 646 q 454 758 340 758 q 697 646 626 758 l 717 747 l 933 747 l 836 263 q 833 232 833 251 q 853 178 833 196 q 910 161 874 161 m 431 168 q 544 199 494 168 q 622 286 594 231 q 650 414 650 342 q 605 535 650 490 q 479 579 560 579 q 365 548 415 579 q 288 461 315 517 q 260 333 260 406 q 305 213 260 257 q 431 168 350 168 m 696 843 l 589 947 l 454 843 l 292 843 l 503 1043 l 693 1043 l 850 843 l 696 843 z "},"ấ":{"ha":1031,"x_min":42,"x_max":1132,"o":"m 910 161 q 972 172 947 161 l 950 7 q 832 -11 894 -11 q 699 21 751 -11 q 628 110 647 53 q 364 -11 529 -11 q 203 29 276 -11 q 85 145 129 69 q 42 324 42 221 q 97 547 42 447 q 246 702 151 646 q 454 758 340 758 q 697 646 626 758 l 717 747 l 933 747 l 836 263 q 833 232 833 251 q 853 178 833 196 q 910 161 874 161 m 431 168 q 544 199 494 168 q 622 286 594 231 q 650 414 650 342 q 605 535 650 490 q 479 579 560 579 q 365 548 415 579 q 288 461 315 517 q 260 333 260 406 q 305 213 260 257 q 431 168 350 168 m 693 843 l 586 922 l 454 843 l 292 843 l 500 1001 l 688 1001 l 850 843 l 693 843 m 906 1144 l 1132 1144 l 896 976 l 733 976 l 906 1144 z "},"ậ":{"ha":1031,"x_min":42,"x_max":972,"o":"m 910 161 q 972 172 947 161 l 950 7 q 832 -11 894 -11 q 699 21 751 -11 q 628 110 647 53 q 364 -11 529 -11 q 203 29 276 -11 q 85 145 129 69 q 42 324 42 221 q 97 547 42 447 q 246 702 151 646 q 454 758 340 758 q 697 646 626 758 l 717 747 l 933 747 l 836 263 q 833 232 833 251 q 853 178 833 196 q 910 161 874 161 m 431 168 q 544 199 494 168 q 622 286 594 231 q 650 414 650 342 q 605 535 650 490 q 479 579 560 579 q 365 548 415 579 q 288 461 315 517 q 260 333 260 406 q 305 213 260 257 q 431 168 350 168 m 363 -292 q 298 -268 322 -292 q 274 -206 274 -244 q 306 -132 274 -162 q 379 -101 338 -101 q 442 -125 417 -101 q 468 -185 468 -149 q 438 -262 468 -233 q 363 -292 408 -292 m 696 843 l 589 947 l 454 843 l 292 843 l 503 1043 l 693 1043 l 850 843 l 696 843 z "},"ầ":{"ha":1031,"x_min":42,"x_max":976,"o":"m 910 161 q 972 172 947 161 l 950 7 q 832 -11 894 -11 q 699 21 751 -11 q 628 110 647 53 q 364 -11 529 -11 q 203 29 276 -11 q 85 145 129 69 q 42 324 42 221 q 97 547 42 447 q 246 702 151 646 q 454 758 340 758 q 697 646 626 758 l 717 747 l 933 747 l 836 263 q 833 232 833 251 q 853 178 833 196 q 910 161 874 161 m 431 168 q 544 199 494 168 q 622 286 594 231 q 650 414 650 342 q 605 535 650 490 q 479 579 560 579 q 365 548 415 579 q 288 461 315 517 q 260 333 260 406 q 305 213 260 257 q 431 168 350 168 m 693 843 l 586 922 l 454 843 l 292 843 l 500 1001 l 688 1001 l 850 843 l 693 843 m 635 1144 l 857 1144 l 976 976 l 819 976 l 635 1144 z "},"ẩ":{"ha":1031,"x_min":42,"x_max":972,"o":"m 910 161 q 972 172 947 161 l 950 7 q 832 -11 894 -11 q 699 21 751 -11 q 628 110 647 53 q 364 -11 529 -11 q 203 29 276 -11 q 85 145 129 69 q 42 324 42 221 q 97 547 42 447 q 246 702 151 646 q 454 758 340 758 q 697 646 626 758 l 717 747 l 933 747 l 836 263 q 833 232 833 251 q 853 178 833 196 q 910 161 874 161 m 431 168 q 544 199 494 168 q 622 286 594 231 q 650 414 650 342 q 605 535 650 490 q 479 579 560 579 q 365 548 415 579 q 288 461 315 517 q 260 333 260 406 q 305 213 260 257 q 431 168 350 168 m 693 843 l 586 922 l 454 843 l 292 843 l 500 1001 l 688 1001 l 850 843 l 693 843 m 776 1001 q 836 1067 836 1028 q 826 1091 836 1082 q 796 1100 815 1100 q 731 1083 764 1100 l 704 1151 q 821 1181 758 1181 q 906 1154 874 1181 q 938 1085 938 1128 q 906 1004 938 1039 q 824 950 875 969 l 776 1001 z "},"ẫ":{"ha":1031,"x_min":42,"x_max":972,"o":"m 910 161 q 972 172 947 161 l 950 7 q 832 -11 894 -11 q 699 21 751 -11 q 628 110 647 53 q 364 -11 529 -11 q 203 29 276 -11 q 85 145 129 69 q 42 324 42 221 q 97 547 42 447 q 246 702 151 646 q 454 758 340 758 q 697 646 626 758 l 717 747 l 933 747 l 836 263 q 833 232 833 251 q 853 178 833 196 q 910 161 874 161 m 431 168 q 544 199 494 168 q 622 286 594 231 q 650 414 650 342 q 605 535 650 490 q 479 579 560 579 q 365 548 415 579 q 288 461 315 517 q 260 333 260 406 q 305 213 260 257 q 431 168 350 168 m 693 843 l 586 922 l 454 843 l 292 843 l 500 1001 l 688 1001 l 850 843 l 693 843 m 719 1050 q 656 1062 683 1050 q 599 1094 629 1074 q 538 1122 561 1122 q 492 1105 510 1122 q 468 1058 474 1088 l 356 1058 q 416 1187 368 1142 q 538 1232 464 1232 q 601 1220 574 1232 q 657 1188 628 1208 q 692 1167 678 1174 q 721 1160 706 1160 q 767 1177 749 1160 q 793 1222 786 1194 l 901 1222 q 842 1096 889 1142 q 719 1050 794 1050 z "},"ȁ":{"ha":1031,"x_min":42,"x_max":972,"o":"m 910 161 q 972 172 947 161 l 950 7 q 832 -11 894 -11 q 699 21 751 -11 q 628 110 647 53 q 364 -11 529 -11 q 203 29 276 -11 q 85 145 129 69 q 42 324 42 221 q 97 547 42 447 q 246 702 151 646 q 454 758 340 758 q 697 646 626 758 l 717 747 l 933 747 l 836 263 q 833 232 833 251 q 853 178 833 196 q 910 161 874 161 m 431 168 q 544 199 494 168 q 622 286 594 231 q 650 414 650 342 q 605 535 650 490 q 479 579 560 579 q 365 548 415 579 q 288 461 315 517 q 260 333 260 406 q 305 213 260 257 q 431 168 350 168 m 250 1043 l 444 1043 l 506 843 l 356 843 l 250 1043 m 531 1043 l 725 1043 l 786 843 l 636 843 l 531 1043 z "},"ä":{"ha":1031,"x_min":42,"x_max":972,"o":"m 910 161 q 972 172 947 161 l 950 7 q 832 -11 894 -11 q 699 21 751 -11 q 628 110 647 53 q 364 -11 529 -11 q 203 29 276 -11 q 85 145 129 69 q 42 324 42 221 q 97 547 42 447 q 246 702 151 646 q 454 758 340 758 q 697 646 626 758 l 717 747 l 933 747 l 836 263 q 833 232 833 251 q 853 178 833 196 q 910 161 874 161 m 431 168 q 544 199 494 168 q 622 286 594 231 q 650 414 650 342 q 605 535 650 490 q 479 579 560 579 q 365 548 415 579 q 288 461 315 517 q 260 333 260 406 q 305 213 260 257 q 431 168 350 168 m 443 850 q 378 874 404 850 q 353 936 353 897 q 383 1012 353 982 q 456 1042 414 1042 q 521 1018 494 1042 q 547 956 547 994 q 516 880 547 910 q 443 850 485 850 m 725 850 q 660 874 686 850 q 635 936 635 897 q 665 1013 635 983 q 738 1042 694 1042 q 802 1018 776 1042 q 828 956 828 994 q 797 880 828 910 q 725 850 767 850 z "},"ạ":{"ha":1031,"x_min":42,"x_max":972,"o":"m 910 161 q 972 172 947 161 l 950 7 q 832 -11 894 -11 q 699 21 751 -11 q 628 110 647 53 q 364 -11 529 -11 q 203 29 276 -11 q 85 145 129 69 q 42 324 42 221 q 97 547 42 447 q 246 702 151 646 q 454 758 340 758 q 697 646 626 758 l 717 747 l 933 747 l 836 263 q 833 232 833 251 q 853 178 833 196 q 910 161 874 161 m 431 168 q 544 199 494 168 q 622 286 594 231 q 650 414 650 342 q 605 535 650 490 q 479 579 560 579 q 365 548 415 579 q 288 461 315 517 q 260 333 260 406 q 305 213 260 257 q 431 168 350 168 m 363 -292 q 298 -268 322 -292 q 274 -206 274 -244 q 306 -132 274 -162 q 379 -101 338 -101 q 442 -125 417 -101 q 468 -185 468 -149 q 438 -262 468 -233 q 363 -292 408 -292 z "},"à":{"ha":1031,"x_min":42,"x_max":972,"o":"m 910 161 q 972 172 947 161 l 950 7 q 832 -11 894 -11 q 699 21 751 -11 q 628 110 647 53 q 364 -11 529 -11 q 203 29 276 -11 q 85 145 129 69 q 42 324 42 221 q 97 547 42 447 q 246 702 151 646 q 454 758 340 758 q 697 646 626 758 l 717 747 l 933 747 l 836 263 q 833 232 833 251 q 853 178 833 196 q 910 161 874 161 m 431 168 q 544 199 494 168 q 622 286 594 231 q 650 414 650 342 q 605 535 650 490 q 479 579 560 579 q 365 548 415 579 q 288 461 315 517 q 260 333 260 406 q 305 213 260 257 q 431 168 350 168 m 317 1043 l 549 1043 l 696 843 l 528 843 l 317 1043 z "},"ả":{"ha":1031,"x_min":42,"x_max":972,"o":"m 910 161 q 972 172 947 161 l 950 7 q 832 -11 894 -11 q 699 21 751 -11 q 628 110 647 53 q 364 -11 529 -11 q 203 29 276 -11 q 85 145 129 69 q 42 324 42 221 q 97 547 42 447 q 246 702 151 646 q 454 758 340 758 q 697 646 626 758 l 717 747 l 933 747 l 836 263 q 833 232 833 251 q 853 178 833 196 q 910 161 874 161 m 431 168 q 544 199 494 168 q 622 286 594 231 q 650 414 650 342 q 605 535 650 490 q 479 579 560 579 q 365 548 415 579 q 288 461 315 517 q 260 333 260 406 q 305 213 260 257 q 431 168 350 168 m 561 901 q 644 994 644 936 q 628 1032 644 1018 q 586 1046 613 1046 q 503 1018 544 1046 l 465 1107 q 622 1153 529 1153 q 732 1118 692 1153 q 772 1024 772 1083 q 618 828 772 896 l 561 901 z "},"ȃ":{"ha":1031,"x_min":42,"x_max":972,"o":"m 910 161 q 972 172 947 161 l 950 7 q 832 -11 894 -11 q 699 21 751 -11 q 628 110 647 53 q 364 -11 529 -11 q 203 29 276 -11 q 85 145 129 69 q 42 324 42 221 q 97 547 42 447 q 246 702 151 646 q 454 758 340 758 q 697 646 626 758 l 717 747 l 933 747 l 836 263 q 833 232 833 251 q 853 178 833 196 q 910 161 874 161 m 431 168 q 544 199 494 168 q 622 286 594 231 q 650 414 650 342 q 605 535 650 490 q 479 579 560 579 q 365 548 415 579 q 288 461 315 517 q 260 333 260 406 q 305 213 260 257 q 431 168 350 168 m 314 843 q 409 998 332 940 q 597 1056 486 1056 q 769 997 704 1056 q 826 843 835 939 l 693 843 q 666 916 696 889 q 585 943 636 943 q 499 916 533 943 q 454 843 464 889 l 314 843 z "},"ā":{"ha":1031,"x_min":42,"x_max":972,"o":"m 910 161 q 972 172 947 161 l 950 7 q 832 -11 894 -11 q 699 21 751 -11 q 628 110 647 53 q 364 -11 529 -11 q 203 29 276 -11 q 85 145 129 69 q 42 324 42 221 q 97 547 42 447 q 246 702 151 646 q 454 758 340 758 q 697 646 626 758 l 717 747 l 933 747 l 836 263 q 833 232 833 251 q 853 178 833 196 q 910 161 874 161 m 431 168 q 544 199 494 168 q 622 286 594 231 q 650 414 650 342 q 605 535 650 490 q 479 579 560 579 q 365 548 415 579 q 288 461 315 517 q 260 333 260 406 q 305 213 260 257 q 431 168 350 168 m 346 1004 l 858 1004 l 835 882 l 322 882 l 346 1004 z "},"ą":{"ha":1031,"x_min":42,"x_max":972,"o":"m 910 161 q 972 172 947 161 l 950 7 l 907 -4 q 758 -70 810 -29 q 707 -154 707 -111 q 726 -197 707 -182 q 775 -212 744 -212 q 864 -192 822 -212 l 879 -290 q 739 -322 813 -322 q 613 -285 660 -322 q 565 -185 565 -249 q 714 14 565 -67 q 628 110 650 46 q 364 -11 529 -11 q 203 29 276 -11 q 85 145 129 69 q 42 324 42 221 q 97 547 42 447 q 246 702 151 646 q 454 758 340 758 q 697 646 626 758 l 717 747 l 933 747 l 836 263 q 833 232 833 251 q 853 178 833 196 q 910 161 874 161 m 431 168 q 544 199 494 168 q 622 286 594 231 q 650 414 650 342 q 605 535 650 490 q 479 579 560 579 q 365 548 415 579 q 288 461 315 517 q 260 333 260 406 q 305 213 260 257 q 431 168 350 168 z "},"å":{"ha":1031,"x_min":42,"x_max":972,"o":"m 910 161 q 972 172 947 161 l 950 7 q 832 -11 894 -11 q 699 21 751 -11 q 628 110 647 53 q 364 -11 529 -11 q 203 29 276 -11 q 85 145 129 69 q 42 324 42 221 q 97 547 42 447 q 246 702 151 646 q 454 758 340 758 q 697 646 626 758 l 717 747 l 933 747 l 836 263 q 833 232 833 251 q 853 178 833 196 q 910 161 874 161 m 431 168 q 544 199 494 168 q 622 286 594 231 q 650 414 650 342 q 605 535 650 490 q 479 579 560 579 q 365 548 415 579 q 288 461 315 517 q 260 333 260 406 q 305 213 260 257 q 431 168 350 168 m 599 822 q 476 871 526 822 q 426 990 426 919 q 476 1109 426 1060 q 599 1158 526 1158 q 722 1110 672 1158 q 772 990 772 1061 q 722 871 772 919 q 599 822 672 822 m 599 906 q 659 930 635 906 q 683 990 683 954 q 659 1051 683 1026 q 599 1075 635 1075 q 540 1051 564 1075 q 515 990 515 1026 q 539 930 515 954 q 599 906 563 906 z "},"ǻ":{"ha":1031,"x_min":42,"x_max":972,"o":"m 910 161 q 972 172 947 161 l 950 7 q 832 -11 894 -11 q 699 21 751 -11 q 628 110 647 53 q 364 -11 529 -11 q 203 29 276 -11 q 85 145 129 69 q 42 324 42 221 q 97 547 42 447 q 246 702 151 646 q 454 758 340 758 q 697 646 626 758 l 717 747 l 933 747 l 836 263 q 833 232 833 251 q 853 178 833 196 q 910 161 874 161 m 431 168 q 544 199 494 168 q 622 286 594 231 q 650 414 650 342 q 605 535 650 490 q 479 579 560 579 q 365 548 415 579 q 288 461 315 517 q 260 333 260 406 q 305 213 260 257 q 431 168 350 168 m 749 1078 q 772 990 772 1038 q 722 871 772 919 q 599 822 672 822 q 476 871 526 822 q 426 990 426 919 q 476 1109 426 1060 q 599 1158 526 1158 q 671 1143 636 1158 l 792 1269 l 899 1186 l 749 1078 m 599 906 q 659 930 635 906 q 683 990 683 954 q 659 1051 683 1026 q 599 1075 635 1075 q 540 1051 564 1075 q 515 990 515 1026 q 539 930 515 954 q 599 906 563 906 z "},"ã":{"ha":1031,"x_min":42,"x_max":972,"o":"m 910 161 q 972 172 947 161 l 950 7 q 832 -11 894 -11 q 699 21 751 -11 q 628 110 647 53 q 364 -11 529 -11 q 203 29 276 -11 q 85 145 129 69 q 42 324 42 221 q 97 547 42 447 q 246 702 151 646 q 454 758 340 758 q 697 646 626 758 l 717 747 l 933 747 l 836 263 q 833 232 833 251 q 853 178 833 196 q 910 161 874 161 m 431 168 q 544 199 494 168 q 622 286 594 231 q 650 414 650 342 q 605 535 650 490 q 479 579 560 579 q 365 548 415 579 q 288 461 315 517 q 260 333 260 406 q 305 213 260 257 q 431 168 350 168 m 688 839 q 623 853 650 839 q 564 892 596 867 q 524 919 538 911 q 493 926 510 926 q 446 906 465 926 q 419 849 426 885 l 310 849 q 374 999 325 947 q 494 1051 422 1051 q 558 1038 531 1051 q 617 999 585 1024 q 656 971 642 979 q 688 963 671 963 q 735 983 717 963 q 761 1038 754 1003 l 871 1038 q 808 891 856 943 q 688 839 760 839 z "},"æ":{"ha":1372,"x_min":19,"x_max":1338,"o":"m 985 758 q 1240 672 1143 758 q 1338 424 1338 585 q 1336 379 1338 394 l 758 274 q 820 190 772 217 q 951 163 868 163 q 1144 232 1069 163 l 1238 89 q 928 -11 1110 -11 q 749 22 829 -11 q 621 119 669 54 q 489 19 565 49 q 315 -11 413 -11 q 99 48 178 -11 q 19 203 19 107 q 108 377 19 314 q 361 440 196 440 l 553 440 q 556 472 556 463 q 516 556 556 526 q 400 585 476 585 q 285 569 343 585 q 185 525 226 553 l 126 679 q 274 738 189 717 q 439 758 358 758 q 708 657 635 758 q 837 732 765 706 q 985 758 908 758 m 974 596 q 830 542 886 596 q 757 401 774 489 l 1136 471 q 1084 563 1128 529 q 974 596 1040 596 m 349 133 q 460 169 415 133 q 519 279 506 206 l 526 314 l 365 314 q 267 288 301 314 q 232 218 232 263 q 261 156 232 178 q 349 133 290 133 z "},"ǽ":{"ha":1372,"x_min":19,"x_max":1338,"o":"m 985 758 q 1240 672 1143 758 q 1338 424 1338 585 q 1336 379 1338 394 l 758 274 q 820 190 772 217 q 951 163 868 163 q 1144 232 1069 163 l 1238 89 q 928 -11 1110 -11 q 749 22 829 -11 q 621 119 669 54 q 489 19 565 49 q 315 -11 413 -11 q 99 48 178 -11 q 19 203 19 107 q 108 377 19 314 q 361 440 196 440 l 553 440 q 556 472 556 463 q 516 556 556 526 q 400 585 476 585 q 285 569 343 585 q 185 525 226 553 l 126 679 q 274 738 189 717 q 439 758 358 758 q 708 657 635 758 q 837 732 765 706 q 985 758 908 758 m 974 596 q 830 542 886 596 q 757 401 774 489 l 1136 471 q 1084 563 1128 529 q 974 596 1040 596 m 349 133 q 460 169 415 133 q 519 279 506 206 l 526 314 l 365 314 q 267 288 301 314 q 232 218 232 263 q 261 156 232 178 q 349 133 290 133 m 839 1042 l 1078 1042 l 806 842 l 631 842 l 839 1042 z "},"b":{"ha":958,"x_min":26,"x_max":918,"o":"m 594 758 q 756 718 682 758 q 874 602 831 678 q 918 424 918 526 q 863 201 918 300 q 714 45 808 101 q 504 -11 619 -11 q 353 19 417 -11 q 254 111 289 50 l 232 0 l 26 0 l 232 1031 l 449 1031 l 379 683 q 594 758 469 758 m 479 168 q 593 199 543 168 q 671 286 643 231 q 699 414 699 342 q 653 535 699 490 q 528 579 608 579 q 415 548 465 579 q 338 461 365 517 q 310 333 310 406 q 354 213 310 257 q 479 168 399 168 z "},"c":{"ha":821,"x_min":40,"x_max":832,"o":"m 421 -11 q 219 31 306 -11 q 87 148 133 72 q 40 324 40 224 q 99 546 40 447 q 261 701 157 644 q 496 758 365 758 q 702 709 615 758 q 832 569 789 660 l 649 478 q 482 579 600 579 q 367 548 418 579 q 288 461 317 517 q 260 335 260 406 q 306 213 260 258 q 433 168 351 168 q 617 268 553 168 l 776 168 q 628 36 722 83 q 421 -11 535 -11 z "},"ć":{"ha":821,"x_min":40,"x_max":844,"o":"m 421 -11 q 219 31 306 -11 q 87 148 133 72 q 40 324 40 224 q 99 546 40 447 q 261 701 157 644 q 496 758 365 758 q 702 709 615 758 q 832 569 789 660 l 649 478 q 482 579 600 579 q 367 548 418 579 q 288 461 317 517 q 260 335 260 406 q 306 213 260 258 q 433 168 351 168 q 617 268 553 168 l 776 168 q 628 36 722 83 q 421 -11 535 -11 m 606 1043 l 844 1043 l 572 843 l 397 843 l 606 1043 z "},"č":{"ha":821,"x_min":40,"x_max":836,"o":"m 421 -11 q 219 31 306 -11 q 87 148 133 72 q 40 324 40 224 q 99 546 40 447 q 261 701 157 644 q 496 758 365 758 q 702 709 615 758 q 832 569 789 660 l 649 478 q 482 579 600 579 q 367 548 418 579 q 288 461 317 517 q 260 335 260 406 q 306 213 260 258 q 433 168 351 168 q 617 268 553 168 l 776 168 q 628 36 722 83 q 421 -11 535 -11 m 836 1043 l 626 843 l 435 843 l 279 1043 l 433 1043 l 540 939 l 675 1043 l 836 1043 z "},"ç":{"ha":821,"x_min":40,"x_max":832,"o":"m 421 -11 q 219 31 306 -11 q 87 148 133 72 q 40 324 40 224 q 99 546 40 447 q 261 701 157 644 q 496 758 365 758 q 702 709 615 758 q 832 569 789 660 l 649 478 q 482 579 600 579 q 367 548 418 579 q 288 461 317 517 q 260 335 260 406 q 306 213 260 258 q 433 168 351 168 q 617 268 553 168 l 776 168 q 628 36 722 83 q 421 -11 535 -11 m 292 -322 q 161 -293 215 -322 l 208 -200 q 301 -221 250 -221 q 358 -208 339 -221 q 378 -175 376 -196 q 318 -136 382 -136 l 269 -136 l 336 11 l 451 11 l 417 -69 q 488 -102 463 -75 q 514 -165 514 -129 q 453 -281 514 -239 q 292 -322 393 -322 z "},"ḉ":{"ha":821,"x_min":40,"x_max":844,"o":"m 421 -11 q 219 31 306 -11 q 87 148 133 72 q 40 324 40 224 q 99 546 40 447 q 261 701 157 644 q 496 758 365 758 q 702 709 615 758 q 832 569 789 660 l 649 478 q 482 579 600 579 q 367 548 418 579 q 288 461 317 517 q 260 335 260 406 q 306 213 260 258 q 433 168 351 168 q 617 268 553 168 l 776 168 q 628 36 722 83 q 421 -11 535 -11 m 292 -322 q 161 -293 215 -322 l 208 -200 q 301 -221 250 -221 q 358 -208 339 -221 q 378 -175 376 -196 q 318 -136 382 -136 l 269 -136 l 336 11 l 451 11 l 417 -69 q 488 -102 463 -75 q 514 -165 514 -129 q 453 -281 514 -239 q 292 -322 393 -322 m 606 1043 l 844 1043 l 572 843 l 397 843 l 606 1043 z "},"ĉ":{"ha":821,"x_min":40,"x_max":832,"o":"m 421 -11 q 219 31 306 -11 q 87 148 133 72 q 40 324 40 224 q 99 546 40 447 q 261 701 157 644 q 496 758 365 758 q 702 709 615 758 q 832 569 789 660 l 649 478 q 482 579 600 579 q 367 548 418 579 q 288 461 317 517 q 260 335 260 406 q 306 213 260 258 q 433 168 351 168 q 617 268 553 168 l 776 168 q 628 36 722 83 q 421 -11 535 -11 m 651 843 l 544 947 l 410 843 l 247 843 l 458 1043 l 649 1043 l 806 843 l 651 843 z "},"ċ":{"ha":821,"x_min":40,"x_max":832,"o":"m 421 -11 q 219 31 306 -11 q 87 148 133 72 q 40 324 40 224 q 99 546 40 447 q 261 701 157 644 q 496 758 365 758 q 702 709 615 758 q 832 569 789 660 l 649 478 q 482 579 600 579 q 367 548 418 579 q 288 461 317 517 q 260 335 260 406 q 306 213 260 258 q 433 168 351 168 q 617 268 553 168 l 776 168 q 628 36 722 83 q 421 -11 535 -11 m 543 850 q 464 879 494 850 q 433 953 433 908 q 469 1048 433 1011 q 560 1085 506 1085 q 638 1056 608 1085 q 668 981 668 1026 q 632 887 668 924 q 543 850 596 850 z "},"d":{"ha":1032,"x_min":44,"x_max":992,"o":"m 839 263 q 835 231 835 246 q 855 178 835 196 q 911 161 875 161 q 974 172 949 161 l 951 7 q 833 -11 896 -11 q 702 21 754 -11 q 631 113 650 53 q 517 21 583 53 q 367 -11 450 -11 q 206 29 279 -11 q 88 145 132 69 q 44 324 44 221 q 99 547 44 447 q 249 702 154 646 q 457 758 343 758 q 603 731 540 758 q 701 646 665 703 l 775 1031 l 992 1031 l 839 263 m 433 168 q 547 199 497 168 q 625 286 597 231 q 653 414 653 342 q 608 535 653 490 q 482 579 563 579 q 368 548 418 579 q 290 461 318 517 q 263 333 263 406 q 308 213 263 257 q 433 168 353 168 z "},"ð":{"ha":913,"x_min":32,"x_max":940,"o":"m 836 847 q 899 613 899 749 q 835 297 899 440 q 653 68 772 153 q 375 -17 533 -17 q 196 19 274 -17 q 75 122 118 56 q 32 271 32 188 q 83 451 32 372 q 224 575 133 531 q 428 619 314 619 q 569 593 507 619 q 667 518 631 567 q 674 586 671 539 q 675 618 675 597 q 632 772 675 715 l 283 646 l 244 756 l 508 853 q 418 863 463 863 q 235 836 318 863 l 242 1003 q 453 1029 339 1029 q 750 940 636 1029 l 901 996 l 940 885 l 836 847 m 403 151 q 543 199 486 151 q 600 318 600 246 q 559 417 600 381 q 446 453 518 453 q 303 406 357 453 q 249 286 249 360 q 290 188 249 224 q 403 151 331 151 z "},"ď":{"ha":1035,"x_min":47,"x_max":1282,"o":"m 1119 1088 l 1282 1088 l 1197 808 l 1064 808 l 1119 1088 m 842 263 q 838 231 838 246 q 858 178 838 196 q 914 161 878 161 q 976 172 951 161 l 954 7 q 836 -11 899 -11 q 705 21 757 -11 q 633 113 653 53 q 519 21 586 53 q 369 -11 453 -11 q 208 29 282 -11 q 91 145 135 69 q 47 324 47 221 q 102 547 47 447 q 251 702 157 646 q 460 758 346 758 q 606 731 543 758 q 704 646 668 703 l 778 1031 l 994 1031 l 842 263 m 436 168 q 550 199 500 168 q 628 286 600 231 q 656 414 656 342 q 610 535 656 490 q 485 579 565 579 q 371 548 421 579 q 293 461 321 517 q 265 333 265 406 q 310 213 265 257 q 436 168 356 168 z "},"đ":{"ha":1033,"x_min":44,"x_max":1075,"o":"m 504 949 l 1075 949 l 1051 824 l 479 824 l 504 949 m 839 263 q 835 231 835 246 q 855 178 835 196 q 911 161 875 161 q 974 172 949 161 l 951 7 q 833 -11 896 -11 q 702 21 754 -11 q 631 113 650 53 q 517 21 583 53 q 367 -11 450 -11 q 206 29 279 -11 q 88 145 132 69 q 44 324 44 221 q 99 547 44 447 q 249 702 154 646 q 457 758 343 758 q 603 731 540 758 q 701 646 665 703 l 775 1031 l 992 1031 l 839 263 m 433 168 q 547 199 497 168 q 625 286 597 231 q 653 414 653 342 q 608 535 653 490 q 482 579 563 579 q 368 548 418 579 q 290 461 318 517 q 263 333 263 406 q 308 213 263 257 q 433 168 353 168 z "},"ḍ":{"ha":1032,"x_min":44,"x_max":992,"o":"m 839 263 q 835 231 835 246 q 855 178 835 196 q 911 161 875 161 q 974 172 949 161 l 951 7 q 833 -11 896 -11 q 702 21 754 -11 q 631 113 650 53 q 517 21 583 53 q 367 -11 450 -11 q 206 29 279 -11 q 88 145 132 69 q 44 324 44 221 q 99 547 44 447 q 249 702 154 646 q 457 758 343 758 q 603 731 540 758 q 701 646 665 703 l 775 1031 l 992 1031 l 839 263 m 433 168 q 547 199 497 168 q 625 286 597 231 q 653 414 653 342 q 608 535 653 490 q 482 579 563 579 q 368 548 418 579 q 290 461 318 517 q 263 333 263 406 q 308 213 263 257 q 433 168 353 168 m 379 -292 q 315 -268 339 -292 q 290 -206 290 -244 q 322 -132 290 -162 q 396 -101 354 -101 q 459 -125 433 -101 q 485 -185 485 -149 q 455 -262 485 -233 q 379 -292 425 -292 z "},"ḏ":{"ha":1032,"x_min":44,"x_max":992,"o":"m 839 263 q 835 231 835 246 q 855 178 835 196 q 911 161 875 161 q 974 172 949 161 l 951 7 q 833 -11 896 -11 q 702 21 754 -11 q 631 113 650 53 q 517 21 583 53 q 367 -11 450 -11 q 206 29 279 -11 q 88 145 132 69 q 44 324 44 221 q 99 547 44 447 q 249 702 154 646 q 457 758 343 758 q 603 731 540 758 q 701 646 665 703 l 775 1031 l 992 1031 l 839 263 m 433 168 q 547 199 497 168 q 625 286 597 231 q 653 414 653 342 q 608 535 653 490 q 482 579 563 579 q 368 548 418 579 q 290 461 318 517 q 263 333 263 406 q 308 213 263 257 q 433 168 353 168 m 143 -132 l 657 -132 l 635 -253 l 121 -253 l 143 -132 z "},"ǆ":{"ha":1800,"x_min":44,"x_max":1821,"o":"m 839 263 q 835 231 835 246 q 855 178 835 196 q 911 161 875 161 q 974 172 949 161 l 951 7 q 833 -11 896 -11 q 702 21 754 -11 q 631 113 650 53 q 517 21 583 53 q 367 -11 450 -11 q 206 29 279 -11 q 88 145 132 69 q 44 324 44 221 q 99 547 44 447 q 249 702 154 646 q 457 758 343 758 q 603 731 540 758 q 701 646 665 703 l 775 1031 l 992 1031 l 839 263 m 433 168 q 547 199 497 168 q 625 286 597 231 q 653 414 653 342 q 608 535 653 490 q 482 579 563 579 q 368 548 418 579 q 290 461 318 517 q 263 333 263 406 q 308 213 263 257 q 433 168 353 168 m 1790 617 l 1618 449 l 1722 449 l 1694 304 l 1469 304 l 1328 167 l 1713 167 l 1679 0 l 1013 0 l 1039 131 l 1218 306 l 1124 306 l 1153 450 l 1367 450 l 1501 581 l 1140 581 l 1174 747 l 1815 747 l 1790 617 m 1821 1043 l 1611 843 l 1419 843 l 1264 1043 l 1418 1043 l 1525 939 l 1660 1043 l 1821 1043 z "},"e":{"ha":865,"x_min":42,"x_max":838,"o":"m 482 758 q 740 671 642 758 q 838 421 838 583 q 836 379 838 393 l 260 274 q 447 163 289 163 q 557 180 506 163 q 646 232 608 197 l 736 89 q 593 14 674 39 q 424 -11 513 -11 q 222 30 308 -11 q 88 147 135 71 q 42 324 42 224 q 97 547 42 447 q 253 702 153 646 q 482 758 354 758 m 472 596 q 330 543 385 596 q 258 401 275 490 l 636 471 q 584 563 628 531 q 472 596 540 596 z "},"é":{"ha":865,"x_min":42,"x_max":847,"o":"m 482 758 q 740 671 642 758 q 838 421 838 583 q 836 379 838 393 l 260 274 q 447 163 289 163 q 557 180 506 163 q 646 232 608 197 l 736 89 q 593 14 674 39 q 424 -11 513 -11 q 222 30 308 -11 q 88 147 135 71 q 42 324 42 224 q 97 547 42 447 q 253 702 153 646 q 482 758 354 758 m 472 596 q 330 543 385 596 q 258 401 275 490 l 636 471 q 584 563 628 531 q 472 596 540 596 m 608 1042 l 847 1042 l 575 842 l 400 842 l 608 1042 z "},"ĕ":{"ha":865,"x_min":42,"x_max":838,"o":"m 482 758 q 740 671 642 758 q 838 421 838 583 q 836 379 838 393 l 260 274 q 447 163 289 163 q 557 180 506 163 q 646 232 608 197 l 736 89 q 593 14 674 39 q 424 -11 513 -11 q 222 30 308 -11 q 88 147 135 71 q 42 324 42 224 q 97 547 42 447 q 253 702 153 646 q 482 758 354 758 m 472 596 q 330 543 385 596 q 258 401 275 490 l 636 471 q 584 563 628 531 q 472 596 540 596 m 542 831 q 376 883 442 831 q 311 1021 311 935 q 313 1042 311 1035 l 444 1042 q 473 970 443 997 q 554 943 503 943 q 640 970 606 943 q 683 1042 675 997 l 824 1042 q 729 888 806 944 q 542 831 653 831 z "},"ě":{"ha":865,"x_min":42,"x_max":839,"o":"m 482 758 q 740 671 642 758 q 838 421 838 583 q 836 379 838 393 l 260 274 q 447 163 289 163 q 557 180 506 163 q 646 232 608 197 l 736 89 q 593 14 674 39 q 424 -11 513 -11 q 222 30 308 -11 q 88 147 135 71 q 42 324 42 224 q 97 547 42 447 q 253 702 153 646 q 482 758 354 758 m 472 596 q 330 543 385 596 q 258 401 275 490 l 636 471 q 584 563 628 531 q 472 596 540 596 m 839 1042 l 629 842 l 438 842 l 282 1042 l 436 1042 l 543 938 l 678 1042 l 839 1042 z "},"ḝ":{"ha":865,"x_min":42,"x_max":838,"o":"m 482 758 q 740 671 642 758 q 838 421 838 583 q 836 379 838 393 l 260 274 q 447 163 289 163 q 557 180 506 163 q 646 232 608 197 l 736 89 q 593 14 674 39 q 424 -11 513 -11 q 222 30 308 -11 q 88 147 135 71 q 42 324 42 224 q 97 547 42 447 q 253 702 153 646 q 482 758 354 758 m 472 596 q 330 543 385 596 q 258 401 275 490 l 636 471 q 584 563 628 531 q 472 596 540 596 m 264 -322 q 133 -293 188 -322 l 181 -200 q 274 -221 222 -221 q 330 -208 311 -221 q 350 -175 349 -196 q 290 -136 354 -136 l 242 -136 l 308 11 l 424 11 l 389 -69 q 460 -102 435 -75 q 486 -165 486 -129 q 426 -281 486 -239 q 264 -322 365 -322 m 542 831 q 376 883 442 831 q 311 1021 311 935 q 313 1042 311 1035 l 444 1042 q 473 970 443 997 q 554 943 503 943 q 640 970 606 943 q 683 1042 675 997 l 824 1042 q 729 888 806 944 q 542 831 653 831 z "},"ê":{"ha":865,"x_min":42,"x_max":838,"o":"m 482 758 q 740 671 642 758 q 838 421 838 583 q 836 379 838 393 l 260 274 q 447 163 289 163 q 557 180 506 163 q 646 232 608 197 l 736 89 q 593 14 674 39 q 424 -11 513 -11 q 222 30 308 -11 q 88 147 135 71 q 42 324 42 224 q 97 547 42 447 q 253 702 153 646 q 482 758 354 758 m 472 596 q 330 543 385 596 q 258 401 275 490 l 636 471 q 584 563 628 531 q 472 596 540 596 m 654 842 l 547 946 l 413 842 l 250 842 l 461 1042 l 651 1042 l 808 842 l 654 842 z "},"ế":{"ha":865,"x_min":42,"x_max":1090,"o":"m 482 758 q 740 671 642 758 q 838 421 838 583 q 836 379 838 393 l 260 274 q 447 163 289 163 q 557 180 506 163 q 646 232 608 197 l 736 89 q 593 14 674 39 q 424 -11 513 -11 q 222 30 308 -11 q 88 147 135 71 q 42 324 42 224 q 97 547 42 447 q 253 702 153 646 q 482 758 354 758 m 472 596 q 330 543 385 596 q 258 401 275 490 l 636 471 q 584 563 628 531 q 472 596 540 596 m 651 842 l 544 921 l 413 842 l 250 842 l 458 1000 l 646 1000 l 808 842 l 651 842 m 864 1143 l 1090 1143 l 854 975 l 692 975 l 864 1143 z "},"ệ":{"ha":865,"x_min":42,"x_max":838,"o":"m 482 758 q 740 671 642 758 q 838 421 838 583 q 836 379 838 393 l 260 274 q 447 163 289 163 q 557 180 506 163 q 646 232 608 197 l 736 89 q 593 14 674 39 q 424 -11 513 -11 q 222 30 308 -11 q 88 147 135 71 q 42 324 42 224 q 97 547 42 447 q 253 702 153 646 q 482 758 354 758 m 472 596 q 330 543 385 596 q 258 401 275 490 l 636 471 q 584 563 628 531 q 472 596 540 596 m 315 -292 q 251 -268 275 -292 q 226 -206 226 -244 q 258 -132 226 -162 q 332 -101 290 -101 q 395 -125 369 -101 q 421 -185 421 -149 q 391 -262 421 -233 q 315 -292 361 -292 m 654 842 l 547 946 l 413 842 l 250 842 l 461 1042 l 651 1042 l 808 842 l 654 842 z "},"ề":{"ha":865,"x_min":42,"x_max":935,"o":"m 482 758 q 740 671 642 758 q 838 421 838 583 q 836 379 838 393 l 260 274 q 447 163 289 163 q 557 180 506 163 q 646 232 608 197 l 736 89 q 593 14 674 39 q 424 -11 513 -11 q 222 30 308 -11 q 88 147 135 71 q 42 324 42 224 q 97 547 42 447 q 253 702 153 646 q 482 758 354 758 m 472 596 q 330 543 385 596 q 258 401 275 490 l 636 471 q 584 563 628 531 q 472 596 540 596 m 651 842 l 544 921 l 413 842 l 250 842 l 458 1000 l 646 1000 l 808 842 l 651 842 m 593 1143 l 815 1143 l 935 975 l 778 975 l 593 1143 z "},"ể":{"ha":865,"x_min":42,"x_max":896,"o":"m 482 758 q 740 671 642 758 q 838 421 838 583 q 836 379 838 393 l 260 274 q 447 163 289 163 q 557 180 506 163 q 646 232 608 197 l 736 89 q 593 14 674 39 q 424 -11 513 -11 q 222 30 308 -11 q 88 147 135 71 q 42 324 42 224 q 97 547 42 447 q 253 702 153 646 q 482 758 354 758 m 472 596 q 330 543 385 596 q 258 401 275 490 l 636 471 q 584 563 628 531 q 472 596 540 596 m 651 842 l 544 921 l 413 842 l 250 842 l 458 1000 l 646 1000 l 808 842 l 651 842 m 735 1000 q 794 1065 794 1026 q 784 1090 794 1081 q 754 1099 774 1099 q 689 1082 722 1099 l 663 1150 q 779 1179 717 1179 q 864 1153 832 1179 q 896 1083 896 1126 q 865 1003 896 1038 q 782 949 833 968 l 735 1000 z "},"ễ":{"ha":865,"x_min":42,"x_max":860,"o":"m 482 758 q 740 671 642 758 q 838 421 838 583 q 836 379 838 393 l 260 274 q 447 163 289 163 q 557 180 506 163 q 646 232 608 197 l 736 89 q 593 14 674 39 q 424 -11 513 -11 q 222 30 308 -11 q 88 147 135 71 q 42 324 42 224 q 97 547 42 447 q 253 702 153 646 q 482 758 354 758 m 472 596 q 330 543 385 596 q 258 401 275 490 l 636 471 q 584 563 628 531 q 472 596 540 596 m 651 842 l 544 921 l 413 842 l 250 842 l 458 1000 l 646 1000 l 808 842 l 651 842 m 678 1049 q 615 1060 642 1049 q 557 1093 588 1072 q 496 1121 519 1121 q 450 1103 468 1121 q 426 1057 432 1086 l 314 1057 q 374 1185 326 1140 q 496 1231 422 1231 q 559 1219 532 1231 q 615 1186 586 1207 q 650 1165 636 1172 q 679 1158 664 1158 q 726 1176 707 1158 q 751 1221 744 1193 l 860 1221 q 800 1094 847 1140 q 678 1049 753 1049 z "},"ȅ":{"ha":865,"x_min":42,"x_max":838,"o":"m 482 758 q 740 671 642 758 q 838 421 838 583 q 836 379 838 393 l 260 274 q 447 163 289 163 q 557 180 506 163 q 646 232 608 197 l 736 89 q 593 14 674 39 q 424 -11 513 -11 q 222 30 308 -11 q 88 147 135 71 q 42 324 42 224 q 97 547 42 447 q 253 702 153 646 q 482 758 354 758 m 472 596 q 330 543 385 596 q 258 401 275 490 l 636 471 q 584 563 628 531 q 472 596 540 596 m 208 1042 l 403 1042 l 464 842 l 314 842 l 208 1042 m 489 1042 l 683 1042 l 744 842 l 594 842 l 489 1042 z "},"ë":{"ha":865,"x_min":42,"x_max":838,"o":"m 482 758 q 740 671 642 758 q 838 421 838 583 q 836 379 838 393 l 260 274 q 447 163 289 163 q 557 180 506 163 q 646 232 608 197 l 736 89 q 593 14 674 39 q 424 -11 513 -11 q 222 30 308 -11 q 88 147 135 71 q 42 324 42 224 q 97 547 42 447 q 253 702 153 646 q 482 758 354 758 m 472 596 q 330 543 385 596 q 258 401 275 490 l 636 471 q 584 563 628 531 q 472 596 540 596 m 401 849 q 337 872 363 849 q 311 935 311 896 q 342 1010 311 981 q 414 1040 372 1040 q 479 1017 453 1040 q 506 954 506 993 q 474 878 506 908 q 401 849 443 849 m 683 849 q 619 872 644 849 q 593 935 593 896 q 623 1011 593 982 q 696 1040 653 1040 q 760 1017 735 1040 q 786 954 786 993 q 756 878 786 908 q 683 849 725 849 z "},"ė":{"ha":865,"x_min":42,"x_max":838,"o":"m 482 758 q 740 671 642 758 q 838 421 838 583 q 836 379 838 393 l 260 274 q 447 163 289 163 q 557 180 506 163 q 646 232 608 197 l 736 89 q 593 14 674 39 q 424 -11 513 -11 q 222 30 308 -11 q 88 147 135 71 q 42 324 42 224 q 97 547 42 447 q 253 702 153 646 q 482 758 354 758 m 472 596 q 330 543 385 596 q 258 401 275 490 l 636 471 q 584 563 628 531 q 472 596 540 596 m 546 849 q 467 878 497 849 q 436 951 436 907 q 472 1047 436 1010 q 563 1083 508 1083 q 641 1054 611 1083 q 671 979 671 1025 q 635 885 671 922 q 546 849 599 849 z "},"ẹ":{"ha":865,"x_min":42,"x_max":838,"o":"m 482 758 q 740 671 642 758 q 838 421 838 583 q 836 379 838 393 l 260 274 q 447 163 289 163 q 557 180 506 163 q 646 232 608 197 l 736 89 q 593 14 674 39 q 424 -11 513 -11 q 222 30 308 -11 q 88 147 135 71 q 42 324 42 224 q 97 547 42 447 q 253 702 153 646 q 482 758 354 758 m 472 596 q 330 543 385 596 q 258 401 275 490 l 636 471 q 584 563 628 531 q 472 596 540 596 m 315 -292 q 251 -268 275 -292 q 226 -206 226 -244 q 258 -132 226 -162 q 332 -101 290 -101 q 395 -125 369 -101 q 421 -185 421 -149 q 391 -262 421 -233 q 315 -292 361 -292 z "},"è":{"ha":865,"x_min":42,"x_max":838,"o":"m 482 758 q 740 671 642 758 q 838 421 838 583 q 836 379 838 393 l 260 274 q 447 163 289 163 q 557 180 506 163 q 646 232 608 197 l 736 89 q 593 14 674 39 q 424 -11 513 -11 q 222 30 308 -11 q 88 147 135 71 q 42 324 42 224 q 97 547 42 447 q 253 702 153 646 q 482 758 354 758 m 472 596 q 330 543 385 596 q 258 401 275 490 l 636 471 q 584 563 628 531 q 472 596 540 596 m 275 1042 l 507 1042 l 654 842 l 486 842 l 275 1042 z "},"ẻ":{"ha":865,"x_min":42,"x_max":838,"o":"m 482 758 q 740 671 642 758 q 838 421 838 583 q 836 379 838 393 l 260 274 q 447 163 289 163 q 557 180 506 163 q 646 232 608 197 l 736 89 q 593 14 674 39 q 424 -11 513 -11 q 222 30 308 -11 q 88 147 135 71 q 42 324 42 224 q 97 547 42 447 q 253 702 153 646 q 482 758 354 758 m 472 596 q 330 543 385 596 q 258 401 275 490 l 636 471 q 584 563 628 531 q 472 596 540 596 m 519 900 q 603 993 603 935 q 587 1031 603 1017 q 544 1044 571 1044 q 461 1017 503 1044 l 424 1106 q 581 1151 488 1151 q 690 1117 650 1151 q 731 1022 731 1082 q 576 826 731 894 l 519 900 z "},"ȇ":{"ha":865,"x_min":42,"x_max":838,"o":"m 482 758 q 740 671 642 758 q 838 421 838 583 q 836 379 838 393 l 260 274 q 447 163 289 163 q 557 180 506 163 q 646 232 608 197 l 736 89 q 593 14 674 39 q 424 -11 513 -11 q 222 30 308 -11 q 88 147 135 71 q 42 324 42 224 q 97 547 42 447 q 253 702 153 646 q 482 758 354 758 m 472 596 q 330 543 385 596 q 258 401 275 490 l 636 471 q 584 563 628 531 q 472 596 540 596 m 272 842 q 367 997 290 939 q 556 1054 444 1054 q 728 996 663 1054 q 785 842 793 938 l 651 842 q 624 915 654 888 q 543 942 594 942 q 457 915 492 942 q 413 842 422 888 l 272 842 z "},"ē":{"ha":865,"x_min":42,"x_max":838,"o":"m 482 758 q 740 671 642 758 q 838 421 838 583 q 836 379 838 393 l 260 274 q 447 163 289 163 q 557 180 506 163 q 646 232 608 197 l 736 89 q 593 14 674 39 q 424 -11 513 -11 q 222 30 308 -11 q 88 147 135 71 q 42 324 42 224 q 97 547 42 447 q 253 702 153 646 q 482 758 354 758 m 472 596 q 330 543 385 596 q 258 401 275 490 l 636 471 q 584 563 628 531 q 472 596 540 596 m 304 1003 l 817 1003 l 793 881 l 281 881 l 304 1003 z "},"ḗ":{"ha":865,"x_min":42,"x_max":849,"o":"m 482 758 q 740 671 642 758 q 838 421 838 583 q 836 379 838 393 l 260 274 q 447 163 289 163 q 557 180 506 163 q 646 232 608 197 l 736 89 q 593 14 674 39 q 424 -11 513 -11 q 222 30 308 -11 q 88 147 135 71 q 42 324 42 224 q 97 547 42 447 q 253 702 153 646 q 482 758 354 758 m 472 596 q 330 543 385 596 q 258 401 275 490 l 636 471 q 584 563 628 531 q 472 596 540 596 m 299 979 l 813 979 l 790 864 l 276 864 l 299 979 m 622 1233 l 849 1233 l 613 1065 l 450 1065 l 622 1233 z "},"ḕ":{"ha":865,"x_min":42,"x_max":838,"o":"m 482 758 q 740 671 642 758 q 838 421 838 583 q 836 379 838 393 l 260 274 q 447 163 289 163 q 557 180 506 163 q 646 232 608 197 l 736 89 q 593 14 674 39 q 424 -11 513 -11 q 222 30 308 -11 q 88 147 135 71 q 42 324 42 224 q 97 547 42 447 q 253 702 153 646 q 482 758 354 758 m 472 596 q 330 543 385 596 q 258 401 275 490 l 636 471 q 584 563 628 531 q 472 596 540 596 m 299 979 l 813 979 l 790 864 l 276 864 l 299 979 m 351 1233 l 574 1233 l 693 1065 l 536 1065 l 351 1233 z "},"ę":{"ha":865,"x_min":42,"x_max":838,"o":"m 482 758 q 740 671 642 758 q 838 421 838 583 q 836 379 838 393 l 260 274 q 447 163 289 163 q 557 180 506 163 q 646 232 608 197 l 736 89 q 664 42 714 71 q 517 -60 565 -12 q 469 -153 469 -107 q 488 -197 469 -182 q 536 -212 506 -212 q 621 -192 582 -212 l 636 -290 q 500 -322 572 -322 q 377 -285 424 -322 q 331 -185 331 -249 q 357 -91 331 -136 q 431 -11 383 -46 l 424 -11 q 222 31 308 -11 q 89 148 136 72 q 42 324 42 224 q 97 547 42 447 q 253 702 153 646 q 482 758 354 758 m 472 596 q 330 543 385 596 q 258 401 275 490 l 636 471 q 584 563 628 531 q 472 596 540 596 z "},"ẽ":{"ha":865,"x_min":42,"x_max":838,"o":"m 482 758 q 740 671 642 758 q 838 421 838 583 q 836 379 838 393 l 260 274 q 447 163 289 163 q 557 180 506 163 q 646 232 608 197 l 736 89 q 593 14 674 39 q 424 -11 513 -11 q 222 30 308 -11 q 88 147 135 71 q 42 324 42 224 q 97 547 42 447 q 253 702 153 646 q 482 758 354 758 m 472 596 q 330 543 385 596 q 258 401 275 490 l 636 471 q 584 563 628 531 q 472 596 540 596 m 646 838 q 581 851 608 838 q 522 890 554 865 q 482 917 496 910 q 451 925 468 925 q 404 904 424 925 q 378 847 385 883 l 268 847 q 332 998 283 946 q 453 1050 381 1050 q 516 1036 489 1050 q 575 997 543 1022 q 615 969 600 978 q 646 961 629 961 q 694 981 675 961 q 719 1036 713 1001 l 829 1036 q 766 890 814 942 q 646 838 718 838 z "},"ə":{"ha":865,"x_min":28,"x_max":824,"o":"m 383 -11 q 126 76 224 -11 q 28 326 28 164 q 29 368 28 354 l 606 474 q 418 585 576 585 q 308 567 360 585 q 219 515 257 550 l 129 658 q 272 733 192 708 q 442 758 353 758 q 644 717 557 758 q 777 600 731 676 q 824 424 824 524 q 768 201 824 300 q 612 45 713 101 q 383 -11 511 -11 m 393 151 q 535 204 481 151 q 607 346 590 257 l 229 276 q 281 184 238 217 q 393 151 325 151 z "},"ʒ":{"ha":774,"x_min":-128,"x_max":768,"o":"m 743 603 l 457 329 q 622 245 565 310 q 679 78 679 181 q 617 -115 679 -33 q 451 -239 554 -196 q 228 -282 347 -282 q 39 -253 131 -282 q -128 -167 -53 -224 l -26 -1 q 100 -69 29 -46 q 240 -93 171 -93 q 393 -53 332 -93 q 454 64 454 -12 q 416 151 454 119 q 299 182 378 182 l 192 182 l 218 325 l 471 567 l 54 567 l 90 747 l 768 747 l 743 603 z "},"ǯ":{"ha":774,"x_min":-128,"x_max":785,"o":"m 743 603 l 457 329 q 622 245 565 310 q 679 78 679 181 q 617 -115 679 -33 q 451 -239 554 -196 q 228 -282 347 -282 q 39 -253 131 -282 q -128 -167 -53 -224 l -26 -1 q 100 -69 29 -46 q 240 -93 171 -93 q 393 -53 332 -93 q 454 64 454 -12 q 416 151 454 119 q 299 182 378 182 l 192 182 l 218 325 l 471 567 l 54 567 l 90 747 l 768 747 l 743 603 m 785 1043 l 575 843 l 383 843 l 228 1043 l 382 1043 l 489 939 l 624 1043 l 785 1043 z "},"f":{"ha":511,"x_min":25,"x_max":676,"o":"m 506 871 q 429 844 457 871 q 389 758 401 817 l 383 731 l 574 731 l 540 564 l 356 564 l 242 0 l 25 0 l 181 774 q 288 970 206 899 q 506 1042 371 1042 q 600 1031 556 1042 q 676 1000 644 1019 l 592 844 q 506 871 557 871 z "},"g":{"ha":972,"x_min":-11,"x_max":946,"o":"m 946 747 l 822 125 q 662 -183 781 -86 q 344 -281 543 -281 q 145 -256 236 -281 q -11 -182 54 -231 l 92 -25 q 206 -84 136 -62 q 354 -106 276 -106 q 521 -58 464 -106 q 599 88 578 -10 l 604 119 q 376 36 514 36 q 208 74 283 36 q 90 183 133 113 q 46 350 46 254 q 100 557 46 464 q 249 704 154 650 q 463 758 344 758 q 616 726 550 758 q 715 625 682 693 l 739 747 l 946 747 m 435 214 q 590 275 529 214 q 651 432 651 336 q 607 540 651 500 q 483 579 563 579 q 326 518 388 579 q 264 361 264 457 q 310 253 264 293 q 435 214 356 214 z "},"ğ":{"ha":972,"x_min":-11,"x_max":946,"o":"m 946 747 l 822 125 q 662 -183 781 -86 q 344 -281 543 -281 q 145 -256 236 -281 q -11 -182 54 -231 l 92 -25 q 206 -84 136 -62 q 354 -106 276 -106 q 521 -58 464 -106 q 599 88 578 -10 l 604 119 q 376 36 514 36 q 208 74 283 36 q 90 183 133 113 q 46 350 46 254 q 100 557 46 464 q 249 704 154 650 q 463 758 344 758 q 616 726 550 758 q 715 625 682 693 l 739 747 l 946 747 m 435 214 q 590 275 529 214 q 651 432 651 336 q 607 540 651 500 q 483 579 563 579 q 326 518 388 579 q 264 361 264 457 q 310 253 264 293 q 435 214 356 214 m 581 832 q 415 884 481 832 q 350 1022 350 936 q 351 1043 350 1036 l 483 1043 q 512 972 482 999 q 593 944 542 944 q 679 972 644 944 q 722 1043 714 999 l 863 1043 q 768 889 844 946 q 581 832 692 832 z "},"ǧ":{"ha":972,"x_min":-11,"x_max":946,"o":"m 946 747 l 822 125 q 662 -183 781 -86 q 344 -281 543 -281 q 145 -256 236 -281 q -11 -182 54 -231 l 92 -25 q 206 -84 136 -62 q 354 -106 276 -106 q 521 -58 464 -106 q 599 88 578 -10 l 604 119 q 376 36 514 36 q 208 74 283 36 q 90 183 133 113 q 46 350 46 254 q 100 557 46 464 q 249 704 154 650 q 463 758 344 758 q 616 726 550 758 q 715 625 682 693 l 739 747 l 946 747 m 435 214 q 590 275 529 214 q 651 432 651 336 q 607 540 651 500 q 483 579 563 579 q 326 518 388 579 q 264 361 264 457 q 310 253 264 293 q 435 214 356 214 m 878 1043 l 668 843 l 476 843 l 321 1043 l 475 1043 l 582 939 l 717 1043 l 878 1043 z "},"ĝ":{"ha":972,"x_min":-11,"x_max":946,"o":"m 946 747 l 822 125 q 662 -183 781 -86 q 344 -281 543 -281 q 145 -256 236 -281 q -11 -182 54 -231 l 92 -25 q 206 -84 136 -62 q 354 -106 276 -106 q 521 -58 464 -106 q 599 88 578 -10 l 604 119 q 376 36 514 36 q 208 74 283 36 q 90 183 133 113 q 46 350 46 254 q 100 557 46 464 q 249 704 154 650 q 463 758 344 758 q 616 726 550 758 q 715 625 682 693 l 739 747 l 946 747 m 435 214 q 590 275 529 214 q 651 432 651 336 q 607 540 651 500 q 483 579 563 579 q 326 518 388 579 q 264 361 264 457 q 310 253 264 293 q 435 214 356 214 m 693 843 l 586 947 l 451 843 l 289 843 l 500 1043 l 690 1043 l 847 843 l 693 843 z "},"ģ":{"ha":972,"x_min":-11,"x_max":946,"o":"m 946 747 l 822 125 q 662 -183 781 -86 q 344 -281 543 -281 q 145 -256 236 -281 q -11 -182 54 -231 l 92 -25 q 206 -84 136 -62 q 354 -106 276 -106 q 521 -58 464 -106 q 599 88 578 -10 l 604 119 q 376 36 514 36 q 208 74 283 36 q 90 183 133 113 q 46 350 46 254 q 100 557 46 464 q 249 704 154 650 q 463 758 344 758 q 616 726 550 758 q 715 625 682 693 l 739 747 l 946 747 m 435 214 q 590 275 529 214 q 651 432 651 336 q 607 540 651 500 q 483 579 563 579 q 326 518 388 579 q 264 361 264 457 q 310 253 264 293 q 435 214 356 214 m 647 988 q 693 926 693 971 q 663 858 693 885 q 575 832 632 832 q 498 853 525 832 q 471 907 471 874 q 481 948 471 928 q 518 1004 490 968 l 607 1129 l 724 1129 l 647 988 z "},"ġ":{"ha":972,"x_min":-11,"x_max":946,"o":"m 946 747 l 822 125 q 662 -183 781 -86 q 344 -281 543 -281 q 145 -256 236 -281 q -11 -182 54 -231 l 92 -25 q 206 -84 136 -62 q 354 -106 276 -106 q 521 -58 464 -106 q 599 88 578 -10 l 604 119 q 376 36 514 36 q 208 74 283 36 q 90 183 133 113 q 46 350 46 254 q 100 557 46 464 q 249 704 154 650 q 463 758 344 758 q 616 726 550 758 q 715 625 682 693 l 739 747 l 946 747 m 435 214 q 590 275 529 214 q 651 432 651 336 q 607 540 651 500 q 483 579 563 579 q 326 518 388 579 q 264 361 264 457 q 310 253 264 293 q 435 214 356 214 m 585 850 q 506 879 536 850 q 475 953 475 908 q 511 1048 475 1011 q 601 1085 547 1085 q 680 1056 650 1085 q 710 981 710 1026 q 674 887 710 924 q 585 850 638 850 z "},"ḡ":{"ha":972,"x_min":-11,"x_max":946,"o":"m 946 747 l 822 125 q 662 -183 781 -86 q 344 -281 543 -281 q 145 -256 236 -281 q -11 -182 54 -231 l 92 -25 q 206 -84 136 -62 q 354 -106 276 -106 q 521 -58 464 -106 q 599 88 578 -10 l 604 119 q 376 36 514 36 q 208 74 283 36 q 90 183 133 113 q 46 350 46 254 q 100 557 46 464 q 249 704 154 650 q 463 758 344 758 q 616 726 550 758 q 715 625 682 693 l 739 747 l 946 747 m 435 214 q 590 275 529 214 q 651 432 651 336 q 607 540 651 500 q 483 579 563 579 q 326 518 388 579 q 264 361 264 457 q 310 253 264 293 q 435 214 356 214 m 343 1004 l 856 1004 l 832 882 l 319 882 l 343 1004 z "},"ǥ":{"ha":992,"x_min":-7,"x_max":951,"o":"m 810 54 l 901 54 l 881 -53 l 768 -53 q 604 -226 708 -171 q 350 -281 500 -281 q -7 -182 132 -281 l 94 -31 q 210 -90 142 -68 q 357 -111 279 -111 q 533 -53 472 -111 l 300 -53 l 321 53 l 594 53 l 603 88 l 621 175 q 381 90 522 90 q 213 126 288 90 q 94 227 138 161 q 51 381 51 293 q 103 572 51 486 q 249 708 156 658 q 461 757 343 757 q 617 727 547 757 q 722 636 686 697 l 744 747 l 951 747 l 826 125 l 810 54 m 439 251 q 596 310 535 251 q 657 458 657 368 q 612 560 657 522 q 488 597 567 597 q 331 539 392 597 q 269 389 269 481 q 315 289 269 326 q 439 251 360 251 z "},"h":{"ha":960,"x_min":26,"x_max":882,"o":"m 610 758 q 808 692 735 758 q 882 503 882 625 q 872 414 882 458 l 789 0 l 572 0 l 653 400 q 658 451 658 424 q 626 540 658 510 q 531 571 594 571 q 392 523 447 571 q 318 379 338 475 l 243 0 l 26 0 l 232 1031 l 449 1031 l 379 679 q 610 758 475 758 z "},"ħ":{"ha":960,"x_min":26,"x_max":882,"o":"m 610 758 q 808 692 735 758 q 882 503 882 625 q 872 414 882 458 l 789 0 l 572 0 l 653 400 q 658 451 658 424 q 626 540 658 510 q 531 571 594 571 q 392 523 447 571 q 318 379 338 475 l 243 0 l 26 0 l 232 1031 l 449 1031 l 379 679 q 610 758 475 758 m 114 949 l 685 949 l 661 824 l 89 824 l 114 949 z "},"ḫ":{"ha":960,"x_min":26,"x_max":882,"o":"m 610 758 q 808 692 735 758 q 882 503 882 625 q 872 414 882 458 l 789 0 l 572 0 l 653 400 q 658 451 658 424 q 626 540 658 510 q 531 571 594 571 q 392 523 447 571 q 318 379 338 475 l 243 0 l 26 0 l 232 1031 l 449 1031 l 379 679 q 610 758 475 758 m 368 -301 q 197 -251 264 -301 q 131 -122 131 -200 q 132 -103 131 -110 l 264 -103 q 292 -171 263 -146 q 374 -196 321 -196 q 460 -171 425 -196 q 503 -103 494 -146 l 642 -103 q 549 -248 625 -194 q 368 -301 474 -301 z "},"ȟ":{"ha":960,"x_min":26,"x_max":882,"o":"m 610 758 q 808 692 735 758 q 882 503 882 625 q 872 414 882 458 l 789 0 l 572 0 l 653 400 q 658 451 658 424 q 626 540 658 510 q 531 571 594 571 q 392 523 447 571 q 318 379 338 475 l 243 0 l 26 0 l 232 1031 l 449 1031 l 379 679 q 610 758 475 758 m 669 1326 l 460 1126 l 268 1126 l 113 1326 l 267 1326 l 374 1222 l 508 1326 l 669 1326 z "},"ĥ":{"ha":960,"x_min":26,"x_max":882,"o":"m 610 758 q 808 692 735 758 q 882 503 882 625 q 872 414 882 458 l 789 0 l 572 0 l 653 400 q 658 451 658 424 q 626 540 658 510 q 531 571 594 571 q 392 523 447 571 q 318 379 338 475 l 243 0 l 26 0 l 232 1031 l 449 1031 l 379 679 q 610 758 475 758 m 481 1110 l 374 1214 l 239 1110 l 76 1110 l 288 1310 l 478 1310 l 635 1110 l 481 1110 z "},"ḥ":{"ha":960,"x_min":26,"x_max":882,"o":"m 610 758 q 808 692 735 758 q 882 503 882 625 q 872 414 882 458 l 789 0 l 572 0 l 653 400 q 658 451 658 424 q 626 540 658 510 q 531 571 594 571 q 392 523 447 571 q 318 379 338 475 l 243 0 l 26 0 l 232 1031 l 449 1031 l 379 679 q 610 758 475 758 m 360 -292 q 295 -268 319 -292 q 271 -206 271 -244 q 303 -132 271 -162 q 376 -101 335 -101 q 440 -125 414 -101 q 465 -185 465 -149 q 435 -262 465 -233 q 360 -292 406 -292 z "},"i":{"ha":417,"x_min":26,"x_max":464,"o":"m 175 747 l 390 747 l 242 0 l 26 0 l 175 747 m 319 851 q 228 884 264 851 q 193 964 193 917 q 233 1056 193 1019 q 336 1093 272 1093 q 428 1062 393 1093 q 464 985 464 1031 q 424 888 464 925 q 319 851 383 851 z "},"ı":{"ha":417,"x_min":26,"x_max":390,"o":"m 175 747 l 390 747 l 242 0 l 26 0 l 175 747 z "},"í":{"ha":417,"x_min":26,"x_max":621,"o":"m 175 747 l 390 747 l 242 0 l 26 0 l 175 747 m 382 1043 l 621 1043 l 349 843 l 174 843 l 382 1043 z "},"ĭ":{"ha":417,"x_min":26,"x_max":563,"o":"m 175 747 l 390 747 l 242 0 l 26 0 l 175 747 m 321 832 q 174 881 229 832 q 118 1011 118 929 q 121 1043 118 1021 l 247 1043 q 246 1024 246 1036 q 267 965 246 986 q 328 943 289 943 q 431 1043 415 943 l 563 1043 q 484 888 547 944 q 321 832 421 832 z "},"î":{"ha":417,"x_min":26,"x_max":547,"o":"m 175 747 l 390 747 l 242 0 l 26 0 l 175 747 m 397 843 l 319 940 l 217 843 l 58 843 l 238 1043 l 424 1043 l 547 843 l 397 843 z "},"ȉ":{"ha":417,"x_min":-18,"x_max":518,"o":"m 175 747 l 390 747 l 242 0 l 26 0 l 175 747 m -18 1043 l 176 1043 l 238 843 l 88 843 l -18 1043 m 263 1043 l 457 1043 l 518 843 l 368 843 l 263 1043 z "},"ï":{"ha":417,"x_min":26,"x_max":526,"o":"m 175 747 l 390 747 l 242 0 l 26 0 l 175 747 m 203 850 q 142 874 167 850 q 117 936 117 899 q 144 1012 117 982 q 215 1042 172 1042 q 275 1017 251 1042 q 299 953 299 992 q 271 879 299 908 q 203 850 243 850 m 431 850 q 370 874 394 850 q 346 936 346 899 q 374 1012 346 982 q 443 1042 401 1042 q 503 1017 479 1042 q 526 956 526 993 q 499 880 526 910 q 431 850 472 850 z "},"ḯ":{"ha":417,"x_min":26,"x_max":622,"o":"m 175 747 l 390 747 l 242 0 l 26 0 l 175 747 m 181 850 q 119 872 143 850 q 94 932 94 894 q 123 1005 94 976 q 192 1033 151 1033 q 253 1010 229 1033 q 278 949 278 986 q 249 878 278 906 q 181 850 221 850 m 451 850 q 390 872 414 850 q 365 932 365 894 q 394 1004 365 975 q 464 1033 424 1033 q 526 1010 501 1033 q 550 949 550 986 q 521 878 550 906 q 451 850 492 850 m 396 1235 l 622 1235 l 386 1067 l 224 1067 l 396 1235 z "},"ị":{"ha":417,"x_min":-4,"x_max":464,"o":"m 175 747 l 390 747 l 242 0 l 26 0 l 175 747 m 319 851 q 228 884 264 851 q 193 964 193 917 q 233 1056 193 1019 q 336 1093 272 1093 q 428 1062 393 1093 q 464 985 464 1031 q 424 888 464 925 q 319 851 383 851 m 85 -292 q 20 -268 44 -292 q -4 -206 -4 -244 q 28 -132 -4 -162 q 101 -101 60 -101 q 165 -125 139 -101 q 190 -185 190 -149 q 160 -262 190 -233 q 85 -292 131 -292 z "},"ì":{"ha":417,"x_min":26,"x_max":428,"o":"m 175 747 l 390 747 l 242 0 l 26 0 l 175 747 m 49 1043 l 281 1043 l 428 843 l 260 843 l 49 1043 z "},"ỉ":{"ha":417,"x_min":26,"x_max":504,"o":"m 175 747 l 390 747 l 242 0 l 26 0 l 175 747 m 293 901 q 376 994 376 936 q 360 1032 376 1018 q 318 1046 344 1046 q 235 1018 276 1046 l 197 1107 q 354 1153 261 1153 q 464 1118 424 1153 q 504 1024 504 1083 q 350 828 504 896 l 293 901 z "},"ȋ":{"ha":417,"x_min":26,"x_max":526,"o":"m 175 747 l 390 747 l 242 0 l 26 0 l 175 747 m 81 843 q 160 999 96 943 q 328 1054 225 1054 q 472 1006 417 1054 q 526 875 526 957 q 524 843 526 865 l 396 843 q 397 863 397 850 q 376 922 397 900 q 317 943 356 943 q 215 843 228 943 l 81 843 z "},"ĳ":{"ha":842,"x_min":26,"x_max":889,"o":"m 175 747 l 390 747 l 242 0 l 26 0 l 175 747 m 319 851 q 228 884 264 851 q 193 964 193 917 q 233 1056 193 1019 q 336 1093 272 1093 q 428 1062 393 1093 q 464 985 464 1031 q 424 888 464 925 q 319 851 383 851 m 346 -281 q 167 -239 238 -281 l 253 -82 q 343 -108 290 -108 q 413 -82 388 -108 q 450 1 439 -56 l 600 747 l 817 747 l 668 7 q 346 -281 611 -281 m 744 851 q 653 884 689 851 q 618 964 618 917 q 658 1056 618 1019 q 761 1093 697 1093 q 853 1062 818 1093 q 889 985 889 1031 q 849 888 889 925 q 744 851 808 851 z "},"ī":{"ha":417,"x_min":26,"x_max":543,"o":"m 175 747 l 390 747 l 242 0 l 26 0 l 175 747 m 126 1004 l 543 1004 l 519 882 l 103 882 l 126 1004 z "},"į":{"ha":417,"x_min":-21,"x_max":464,"o":"m 175 747 l 390 747 l 242 0 l 26 0 l 175 747 m 319 851 q 228 884 264 851 q 193 964 193 917 q 233 1056 193 1019 q 336 1093 272 1093 q 428 1062 393 1093 q 464 985 464 1031 q 424 888 464 925 q 319 851 383 851 m 129 -322 q 18 -285 57 -322 q -21 -189 -21 -249 q 35 -49 -21 -111 q 185 58 90 14 l 242 0 q 122 -165 122 -85 q 135 -200 122 -187 q 168 -212 147 -212 q 217 -199 193 -212 l 229 -296 q 129 -322 189 -322 z "},"ĩ":{"ha":417,"x_min":26,"x_max":565,"o":"m 175 747 l 390 747 l 242 0 l 26 0 l 175 747 m 404 839 q 346 853 369 839 q 293 896 322 868 q 265 922 275 914 q 242 929 254 929 q 207 908 221 929 q 188 849 193 888 l 79 849 q 133 1000 90 949 q 243 1051 175 1051 q 302 1036 278 1051 q 351 994 326 1021 q 380 969 369 976 q 403 961 390 961 q 440 981 425 961 q 458 1038 454 1001 l 565 1038 q 514 890 556 940 q 404 839 472 839 z "},"j":{"ha":425,"x_min":-250,"x_max":472,"o":"m -71 -281 q -250 -239 -179 -281 l -164 -82 q -74 -108 -126 -108 q -3 -82 -29 -108 q 33 1 22 -56 l 183 747 l 400 747 l 251 7 q -71 -281 194 -281 m 328 851 q 237 884 272 851 q 201 964 201 917 q 241 1056 201 1019 q 344 1093 281 1093 q 437 1062 401 1093 q 472 985 472 1031 q 432 888 472 925 q 328 851 392 851 z "},"ȷ":{"ha":425,"x_min":-250,"x_max":400,"o":"m -71 -281 q -250 -239 -179 -281 l -164 -82 q -74 -108 -126 -108 q -3 -82 -29 -108 q 33 1 22 -56 l 183 747 l 400 747 l 251 7 q -71 -281 194 -281 z "},"ĵ":{"ha":425,"x_min":-250,"x_max":556,"o":"m -71 -281 q -250 -239 -179 -281 l -164 -82 q -74 -108 -126 -108 q -3 -82 -29 -108 q 33 1 22 -56 l 183 747 l 400 747 l 251 7 q -71 -281 194 -281 m 406 843 l 328 940 l 225 843 l 67 843 l 246 1043 l 432 1043 l 556 843 l 406 843 z "},"k":{"ha":896,"x_min":26,"x_max":974,"o":"m 583 422 l 840 0 l 589 0 l 411 290 l 279 181 l 243 0 l 26 0 l 232 1031 l 449 1031 l 333 454 l 692 747 l 974 747 l 583 422 z "},"ǩ":{"ha":896,"x_min":26,"x_max":974,"o":"m 583 422 l 840 0 l 589 0 l 411 290 l 279 181 l 243 0 l 26 0 l 232 1031 l 449 1031 l 333 454 l 692 747 l 974 747 l 583 422 m 669 1326 l 460 1126 l 268 1126 l 113 1326 l 267 1326 l 374 1222 l 508 1326 l 669 1326 z "},"ķ":{"ha":896,"x_min":26,"x_max":974,"o":"m 583 422 l 840 0 l 589 0 l 411 290 l 279 181 l 243 0 l 26 0 l 232 1031 l 449 1031 l 333 454 l 692 747 l 974 747 l 583 422 m 333 -101 q 402 -122 378 -101 q 426 -175 426 -143 q 417 -217 426 -197 q 383 -274 408 -237 l 315 -369 l 217 -369 l 274 -257 q 232 -196 232 -240 q 258 -128 232 -154 q 333 -101 285 -101 z "},"ĸ":{"ha":896,"x_min":26,"x_max":974,"o":"m 583 422 l 840 0 l 589 0 l 411 290 l 279 179 l 243 0 l 26 0 l 175 747 l 392 747 l 333 453 l 692 747 l 974 747 l 583 422 z "},"l":{"ha":488,"x_min":69,"x_max":449,"o":"m 290 -11 q 128 42 186 -11 q 69 189 69 94 q 76 257 69 218 l 232 1031 l 449 1031 l 294 263 q 292 232 292 251 q 312 179 292 197 q 368 161 332 161 q 429 172 404 161 l 407 7 q 290 -11 351 -11 z "},"ĺ":{"ha":488,"x_min":69,"x_max":678,"o":"m 290 -11 q 128 42 186 -11 q 69 189 69 94 q 76 257 69 218 l 232 1031 l 449 1031 l 294 263 q 292 232 292 251 q 312 179 292 197 q 368 161 332 161 q 429 172 404 161 l 407 7 q 290 -11 351 -11 m 439 1326 l 678 1326 l 406 1126 l 231 1126 l 439 1326 z "},"ľ":{"ha":488,"x_min":69,"x_max":733,"o":"m 290 -11 q 128 42 186 -11 q 69 189 69 94 q 76 257 69 218 l 232 1031 l 449 1031 l 294 263 q 292 232 292 251 q 312 179 292 197 q 368 161 332 161 q 429 172 404 161 l 407 7 q 290 -11 351 -11 m 571 1088 l 733 1088 l 649 808 l 515 808 l 571 1088 z "},"ļ":{"ha":488,"x_min":69,"x_max":449,"o":"m 290 -11 q 128 42 186 -11 q 69 189 69 94 q 76 257 69 218 l 232 1031 l 449 1031 l 294 263 q 292 232 292 251 q 312 179 292 197 q 368 161 332 161 q 429 172 404 161 l 407 7 q 290 -11 351 -11 m 194 -101 q 263 -122 239 -101 q 288 -175 288 -143 q 278 -217 288 -197 q 244 -274 269 -237 l 176 -369 l 78 -369 l 135 -257 q 93 -196 93 -240 q 119 -128 93 -154 q 194 -101 146 -101 z "},"ŀ":{"ha":597,"x_min":69,"x_max":635,"o":"m 290 -11 q 128 42 186 -11 q 69 189 69 94 q 76 257 69 218 l 232 1031 l 449 1031 l 294 263 q 292 232 292 251 q 312 179 292 197 q 368 161 332 161 q 429 172 404 161 l 407 7 q 290 -11 351 -11 m 521 396 q 449 424 478 396 q 419 497 419 453 q 451 581 419 547 q 532 614 483 614 q 606 586 576 614 q 635 514 635 558 q 602 429 635 463 q 521 396 569 396 z "},"ḷ":{"ha":488,"x_min":69,"x_max":449,"o":"m 290 -11 q 128 42 186 -11 q 69 189 69 94 q 76 257 69 218 l 232 1031 l 449 1031 l 294 263 q 292 232 292 251 q 312 179 292 197 q 368 161 332 161 q 429 172 404 161 l 407 7 q 290 -11 351 -11 m 179 -292 q 115 -268 139 -292 q 90 -206 90 -244 q 122 -132 90 -162 q 196 -101 154 -101 q 259 -125 233 -101 q 285 -185 285 -149 q 255 -262 285 -233 q 179 -292 225 -292 z "},"ǉ":{"ha":913,"x_min":69,"x_max":960,"o":"m 290 -11 q 128 42 186 -11 q 69 189 69 94 q 76 257 69 218 l 232 1031 l 449 1031 l 294 263 q 292 232 292 251 q 312 179 292 197 q 368 161 332 161 q 429 172 404 161 l 407 7 q 290 -11 351 -11 m 417 -281 q 238 -239 308 -281 l 324 -82 q 414 -108 361 -108 q 484 -82 458 -108 q 521 1 510 -56 l 671 747 l 888 747 l 739 7 q 417 -281 682 -281 m 815 851 q 724 884 760 851 q 689 964 689 917 q 728 1056 689 1019 q 832 1093 768 1093 q 924 1062 889 1093 q 960 985 960 1031 q 919 888 960 925 q 815 851 879 851 z "},"ḻ":{"ha":488,"x_min":-79,"x_max":457,"o":"m 290 -11 q 128 42 186 -11 q 69 189 69 94 q 76 257 69 218 l 232 1031 l 449 1031 l 294 263 q 292 232 292 251 q 312 179 292 197 q 368 161 332 161 q 429 172 404 161 l 407 7 q 290 -11 351 -11 m -57 -132 l 457 -132 l 435 -253 l -79 -253 l -57 -132 z "},"ł":{"ha":488,"x_min":-58,"x_max":528,"o":"m 290 -11 q 128 42 186 -11 q 69 189 69 94 q 76 257 69 218 l 232 1031 l 449 1031 l 294 263 q 292 232 292 251 q 312 179 292 197 q 368 161 332 161 q 429 172 404 161 l 407 7 q 290 -11 351 -11 m -58 390 l 460 729 l 528 618 l 10 279 l -58 390 z "},"m":{"ha":1457,"x_min":26,"x_max":1379,"o":"m 1113 758 q 1307 692 1235 758 q 1379 506 1379 626 q 1369 414 1379 461 l 1288 0 l 1071 0 l 1150 399 q 1156 456 1156 426 q 1126 542 1156 513 q 1038 571 1096 571 q 842 383 881 571 l 765 0 l 549 0 l 628 399 q 633 454 633 426 q 603 541 633 511 q 515 571 574 571 q 318 381 358 571 l 243 0 l 26 0 l 175 747 l 381 747 l 364 669 q 599 758 461 758 q 737 727 676 758 q 828 636 797 696 q 954 727 882 696 q 1113 758 1026 758 z "},"ṃ":{"ha":1457,"x_min":26,"x_max":1379,"o":"m 1113 758 q 1307 692 1235 758 q 1379 506 1379 626 q 1369 414 1379 461 l 1288 0 l 1071 0 l 1150 399 q 1156 456 1156 426 q 1126 542 1156 513 q 1038 571 1096 571 q 842 383 881 571 l 765 0 l 549 0 l 628 399 q 633 454 633 426 q 603 541 633 511 q 515 571 574 571 q 318 381 358 571 l 243 0 l 26 0 l 175 747 l 381 747 l 364 669 q 599 758 461 758 q 737 727 676 758 q 828 636 797 696 q 954 727 882 696 q 1113 758 1026 758 m 608 -292 q 544 -268 568 -292 q 519 -206 519 -244 q 551 -132 519 -162 q 625 -101 583 -101 q 688 -125 663 -101 q 714 -185 714 -149 q 684 -262 714 -233 q 608 -292 654 -292 z "},"n":{"ha":960,"x_min":26,"x_max":882,"o":"m 610 758 q 808 692 735 758 q 882 504 882 626 q 872 414 882 458 l 789 0 l 572 0 l 653 400 q 658 451 658 424 q 626 540 658 510 q 531 571 594 571 q 392 523 447 571 q 318 379 338 475 l 243 0 l 26 0 l 175 747 l 381 747 l 364 667 q 610 758 464 758 z "},"ń":{"ha":960,"x_min":26,"x_max":896,"o":"m 610 758 q 808 692 735 758 q 882 504 882 626 q 872 414 882 458 l 789 0 l 572 0 l 653 400 q 658 451 658 424 q 626 540 658 510 q 531 571 594 571 q 392 523 447 571 q 318 379 338 475 l 243 0 l 26 0 l 175 747 l 381 747 l 364 667 q 610 758 464 758 m 657 1043 l 896 1043 l 624 843 l 449 843 l 657 1043 z "},"ŉ":{"ha":1090,"x_min":104,"x_max":1014,"o":"m 100 996 l 242 1015 l 138 637 l 24 622 l 100 996 m 742 758 q 940 692 867 758 q 1014 504 1014 626 q 1004 414 1014 458 l 921 0 l 704 0 l 785 400 q 790 451 790 424 q 758 540 790 510 q 663 571 726 571 q 524 523 579 571 q 450 379 469 475 l 375 0 l 158 0 l 307 747 l 513 747 l 496 667 q 742 758 596 758 z "},"ň":{"ha":960,"x_min":26,"x_max":888,"o":"m 610 758 q 808 692 735 758 q 882 504 882 626 q 872 414 882 458 l 789 0 l 572 0 l 653 400 q 658 451 658 424 q 626 540 658 510 q 531 571 594 571 q 392 523 447 571 q 318 379 338 475 l 243 0 l 26 0 l 175 747 l 381 747 l 364 667 q 610 758 464 758 m 888 1043 l 678 843 l 486 843 l 331 1043 l 485 1043 l 592 939 l 726 1043 l 888 1043 z "},"ņ":{"ha":960,"x_min":26,"x_max":882,"o":"m 610 758 q 808 692 735 758 q 882 504 882 626 q 872 414 882 458 l 789 0 l 572 0 l 653 400 q 658 451 658 424 q 626 540 658 510 q 531 571 594 571 q 392 523 447 571 q 318 379 338 475 l 243 0 l 26 0 l 175 747 l 381 747 l 364 667 q 610 758 464 758 m 376 -101 q 445 -122 421 -101 q 469 -175 469 -143 q 460 -217 469 -197 q 426 -274 451 -237 l 358 -369 l 260 -369 l 317 -257 q 275 -196 275 -240 q 301 -128 275 -154 q 376 -101 328 -101 z "},"ṅ":{"ha":960,"x_min":26,"x_max":882,"o":"m 610 758 q 808 692 735 758 q 882 504 882 626 q 872 414 882 458 l 789 0 l 572 0 l 653 400 q 658 451 658 424 q 626 540 658 510 q 531 571 594 571 q 392 523 447 571 q 318 379 338 475 l 243 0 l 26 0 l 175 747 l 381 747 l 364 667 q 610 758 464 758 m 594 850 q 515 879 546 850 q 485 953 485 908 q 521 1048 485 1011 q 611 1085 557 1085 q 690 1056 660 1085 q 719 981 719 1026 q 683 887 719 924 q 594 850 647 850 z "},"ṇ":{"ha":960,"x_min":26,"x_max":882,"o":"m 610 758 q 808 692 735 758 q 882 504 882 626 q 872 414 882 458 l 789 0 l 572 0 l 653 400 q 658 451 658 424 q 626 540 658 510 q 531 571 594 571 q 392 523 447 571 q 318 379 338 475 l 243 0 l 26 0 l 175 747 l 381 747 l 364 667 q 610 758 464 758 m 361 -292 q 297 -268 321 -292 q 272 -206 272 -244 q 304 -132 272 -162 q 378 -101 336 -101 q 441 -125 415 -101 q 467 -185 467 -149 q 437 -262 467 -233 q 361 -292 407 -292 z "},"ŋ":{"ha":960,"x_min":26,"x_max":882,"o":"m 610 758 q 808 692 735 758 q 882 504 882 626 q 872 414 882 458 l 790 7 q 468 -281 733 -281 q 289 -239 363 -281 l 375 -82 q 465 -108 415 -108 q 535 -82 510 -108 q 572 1 561 -56 l 653 400 q 658 451 658 424 q 626 540 658 510 q 531 571 594 571 q 392 523 447 571 q 318 379 338 475 l 243 0 l 26 0 l 175 747 l 381 747 l 364 667 q 610 758 464 758 z "},"ǌ":{"ha":1385,"x_min":26,"x_max":1432,"o":"m 610 758 q 808 692 735 758 q 882 504 882 626 q 872 414 882 458 l 789 0 l 572 0 l 653 400 q 658 451 658 424 q 626 540 658 510 q 531 571 594 571 q 392 523 447 571 q 318 379 338 475 l 243 0 l 26 0 l 175 747 l 381 747 l 364 667 q 610 758 464 758 m 889 -281 q 710 -239 781 -281 l 796 -82 q 886 -108 833 -108 q 956 -82 931 -108 q 993 1 982 -56 l 1143 747 l 1360 747 l 1211 7 q 889 -281 1154 -281 m 1288 851 q 1197 884 1232 851 q 1161 964 1161 917 q 1201 1056 1161 1019 q 1304 1093 1240 1093 q 1397 1062 1361 1093 q 1432 985 1432 1031 q 1392 888 1432 925 q 1288 851 1351 851 z "},"ṉ":{"ha":960,"x_min":26,"x_max":882,"o":"m 610 758 q 808 692 735 758 q 882 504 882 626 q 872 414 882 458 l 789 0 l 572 0 l 653 400 q 658 451 658 424 q 626 540 658 510 q 531 571 594 571 q 392 523 447 571 q 318 379 338 475 l 243 0 l 26 0 l 175 747 l 381 747 l 364 667 q 610 758 464 758 m 125 -132 l 639 -132 l 617 -253 l 103 -253 l 125 -132 z "},"ñ":{"ha":960,"x_min":26,"x_max":882,"o":"m 610 758 q 808 692 735 758 q 882 504 882 626 q 872 414 882 458 l 789 0 l 572 0 l 653 400 q 658 451 658 424 q 626 540 658 510 q 531 571 594 571 q 392 523 447 571 q 318 379 338 475 l 243 0 l 26 0 l 175 747 l 381 747 l 364 667 q 610 758 464 758 m 694 839 q 630 853 657 839 q 571 892 603 867 q 531 919 544 911 q 500 926 517 926 q 453 906 472 926 q 426 849 433 885 l 317 849 q 381 999 332 947 q 501 1051 429 1051 q 565 1038 538 1051 q 624 999 592 1024 q 663 971 649 979 q 694 963 678 963 q 742 983 724 963 q 768 1038 761 1003 l 878 1038 q 815 891 863 943 q 694 839 767 839 z "},"o":{"ha":908,"x_min":40,"x_max":868,"o":"m 417 -11 q 219 31 304 -11 q 87 148 133 72 q 40 324 40 224 q 99 546 40 447 q 260 701 157 644 q 492 758 363 758 q 690 717 606 758 q 822 599 775 675 q 868 424 868 524 q 810 201 868 300 q 649 46 753 103 q 417 -11 546 -11 m 431 168 q 543 199 493 168 q 621 286 593 231 q 649 414 649 342 q 604 535 649 490 q 479 579 560 579 q 365 548 415 579 q 288 461 315 517 q 260 333 260 406 q 305 213 260 257 q 431 168 350 168 z "},"ó":{"ha":908,"x_min":40,"x_max":868,"o":"m 417 -11 q 219 31 304 -11 q 87 148 133 72 q 40 324 40 224 q 99 546 40 447 q 260 701 157 644 q 492 758 363 758 q 690 717 606 758 q 822 599 775 675 q 868 424 868 524 q 810 201 868 300 q 649 46 753 103 q 417 -11 546 -11 m 431 168 q 543 199 493 168 q 621 286 593 231 q 649 414 649 342 q 604 535 649 490 q 479 579 560 579 q 365 548 415 579 q 288 461 315 517 q 260 333 260 406 q 305 213 260 257 q 431 168 350 168 m 624 1043 l 863 1043 l 590 843 l 415 843 l 624 1043 z "},"ŏ":{"ha":908,"x_min":40,"x_max":868,"o":"m 417 -11 q 219 31 304 -11 q 87 148 133 72 q 40 324 40 224 q 99 546 40 447 q 260 701 157 644 q 492 758 363 758 q 690 717 606 758 q 822 599 775 675 q 868 424 868 524 q 810 201 868 300 q 649 46 753 103 q 417 -11 546 -11 m 431 168 q 543 199 493 168 q 621 286 593 231 q 649 414 649 342 q 604 535 649 490 q 479 579 560 579 q 365 548 415 579 q 288 461 315 517 q 260 333 260 406 q 305 213 260 257 q 431 168 350 168 m 557 832 q 392 884 457 832 q 326 1022 326 936 q 328 1043 326 1036 l 460 1043 q 488 972 458 999 q 569 944 518 944 q 656 972 621 944 q 699 1043 690 999 l 839 1043 q 744 889 821 946 q 557 832 668 832 z "},"ô":{"ha":908,"x_min":40,"x_max":868,"o":"m 417 -11 q 219 31 304 -11 q 87 148 133 72 q 40 324 40 224 q 99 546 40 447 q 260 701 157 644 q 492 758 363 758 q 690 717 606 758 q 822 599 775 675 q 868 424 868 524 q 810 201 868 300 q 649 46 753 103 q 417 -11 546 -11 m 431 168 q 543 199 493 168 q 621 286 593 231 q 649 414 649 342 q 604 535 649 490 q 479 579 560 579 q 365 548 415 579 q 288 461 315 517 q 260 333 260 406 q 305 213 260 257 q 431 168 350 168 m 669 843 l 563 947 l 428 843 l 265 843 l 476 1043 l 667 1043 l 824 843 l 669 843 z "}}}
